{
.appVersion = "850";
copyright = "Copyright (c) 2012, Eduardo Tunni (http://www.tipo.net.ar), with Reserved Font Name Changa"";
customParameters = (
{
name = licenseURL;
value = "http://scripts.sil.org/OFL";
},
{
name = trademark;
value = "Changa is a trademark of Eduardo Rodriguez Tunni.";
},
{
name = license;
value = "This Font Software is licensed under the SIL Open Font License, Version 1.1. This license is available with a FAQ at: http://scripts.sil.org/OFL";
},
{
name = openTypeOS2VendorID;
value = TIPO;
}
);
date = "2016-02-27 15:08:35 +0000";
designer = "Eduardo Rodriguez Tunni";
designerURL = "http://www.tipo.net.ar";
familyName = "Changa";
featurePrefixes = (
{
automatic = 1;
code = "languagesystem DFLT dflt;\012languagesystem arab dflt;\012languagesystem latn dflt;\012languagesystem latn CAT;\012languagesystem latn ROM;\012languagesystem latn MOL;\012languagesystem latn KAZ;\012languagesystem latn TAT;\012languagesystem latn TRK;\012languagesystem latn CRT;\012languagesystem latn AZE;\012languagesystem arab URD;\012";
name = Languagesystems;
}
);
features = (
{
automatic = 1;
code = "feature ccmp;\012feature locl;\012feature subs;\012feature sups;\012feature numr;\012feature dnom;\012feature frac;\012feature ordn;\012feature init;\012feature medi;\012feature fina;\012feature rlig;\012";
name = aalt;
},
{
automatic = 1;

glyphs = (
{
color = 10;
glyphname = A;
layers = (
{
anchors = (
{
name = bottom;
position = "{321, 0}";
},
{
name = ogonek;
position = "{626, 0}";
},
{
name = top;
position = "{321, 625}";
}
);
hints = (
{
horizontal = 1;
origin = "{1, 3}";
target = "{1, 2}";
},
{
horizontal = 1;
origin = "{0, 1}";
target = "{0, 6}";
},
{
horizontal = 1;
origin = "{0, 7}";
target = up;
type = BottomGhost;
},
{
horizontal = 1;
origin = "{0, 6}";
target = down;
type = TopGhost;
}
);
layerId = "6DB5A621-F658-4304-B48E-115D54993538";
paths = (
{
closed = 1;
nodes = (
"205 0 LINE",
"316 433 LINE",
"325 433 LINE",
"436 0 LINE",
"636 0 LINE",
"476 625 LINE",
"165 625 LINE",
"5 0 LINE"
);
},
{
closed = 1;
nodes = (
"519 99 LINE",
"519 244 LINE",
"122 244 LINE",
"122 99 LINE"
);
}
);
width = 641;
}
);
leftKerningGroup = A;
rightKerningGroup = A;
unicode = 0041;
},
{
color = 10;
glyphname = AE;
layers = (
{
anchors = (
{
name = bottom;
position = "{419, 0}";
},
{
name = top;
position = "{419, 625}";
}
);
hints = (
{
horizontal = 1;
origin = "{0, 15}";
target = "{0, 6}";
},
{
horizontal = 1;
origin = "{0, 1}";
target = "{1, 3}";
},
{
horizontal = 1;
origin = "{0, 7}";
target = "{0, 10}";
},
{
horizontal = 1;
origin = "{0, 14}";
target = "{0, 11}";
},
{
horizontal = 1;
origin = "{0, 15}";
target = up;
type = BottomGhost;
},
{
horizontal = 1;
origin = "{0, 14}";
target = down;
type = TopGhost;
}
);
layerId = "6DB5A621-F658-4304-B48E-115D54993538";
paths = (
{
closed = 1;
nodes = (
"216 0 LINE",
"239 99 LINE",
"404 99 LINE",
"427 0 LINE",
"808 0 LINE",
"808 160 LINE",
"596 160 LINE",
"577 236 LINE",
"717 236 LINE",
"717 381 LINE",
"539 381 LINE",
"517 465 LINE",
"732 465 LINE",
"757 625 LINE",
"167 625 LINE",
"5 0 LINE"
);
},
{
closed = 1;
nodes = (
"316 433 LINE",
"327 433 LINE",
"367 258 LINE",
"275 258 LINE"
);
}
);
width = 838;
}
);
leftKerningGroup = A;
leftMetricsKey = A;
rightKerningGroup = E;
rightMetricsKey = E;
unicode = 00C6;
},
{
color = 10;
glyphname = B;
layers = (
{
hints = (
{
horizontal = 1;
origin = "{0, 0}";
target = "{1, 18}";
},
{
horizontal = 1;
origin = "{1, 10}";
target = "{1, 9}";
},
{
horizontal = 1;
origin = "{0, 15}";
target = "{1, 1}";
},
{
origin = "{0, 0}";
target = "{1, 19}";
},
{
origin = "{1, 14}";
target = "{0, 4}";
},
{
origin = "{1, 5}";
target = "{0, 11}";
},
{
horizontal = 1;
origin = "{0, 0}";
target = up;
type = BottomGhost;
},
{
horizontal = 1;
origin = "{0, 15}";
target = down;
type = TopGhost;
}
);
layerId = "6DB5A621-F658-4304-B48E-115D54993538";
paths = (
{
closed = 1;
nodes = (
"50 0 LINE",
"369 0 LINE SMOOTH",
"499 0 OFFCURVE",
"572 63 OFFCURVE",
"572 176 CURVE SMOOTH",
"572 241 OFFCURVE",
"528 301 OFFCURVE",
"471 314 CURVE",
"471 320 LINE",
"513 344 OFFCURVE",
"541 401 OFFCURVE",
"541 460 CURVE SMOOTH",
"541 576 OFFCURVE",
"480 625 OFFCURVE",
"334 625 CURVE SMOOTH",
"50 625 LINE"
);
},
{
closed = 1;
nodes = (
"250 561 LINE",
"169 480 LINE",
"299 480 LINE SMOOTH",
"333 480 OFFCURVE",
"341 471 OFFCURVE",
"341 434 CURVE SMOOTH",
"341 397 OFFCURVE",
"332 387 OFFCURVE",
"299 387 CURVE SMOOTH",
"234 387 LINE",
"234 247 LINE",
"323 247 LINE SMOOTH",
"356 247 OFFCURVE",
"366 235 OFFCURVE",
"366 196 CURVE SMOOTH",
"366 158 OFFCURVE",
"355 145 OFFCURVE",
"322 145 CURVE SMOOTH",
"169 145 LINE",
"250 64 LINE"
);
}
);
width = 592;
}
);
leftKerningGroup = H;
leftMetricsKey = H;
rightKerningGroup = B;
unicode = 0042;
},
{
color = 10;
glyphname = C;
layers = (
{
anchors = (
{
name = bottom;
position = "{285, 0}";
},
{
name = top;
position = "{295, 625}";
}
);
hints = (
{
horizontal = 1;
origin = "{0, 23}";
target = "{0, 3}";
},
{
horizontal = 1;
origin = "{0, 17}";
target = "{0, 10}";
},
{
origin = "{0, 20}";
target = "{0, 6}";
}
);
layerId = "6DB5A621-F658-4304-B48E-115D54993538";
paths = (
{
closed = 1;
nodes = (
"475 179 LINE",
"436 164 OFFCURVE",
"378 155 OFFCURVE",
"324 155 CURVE SMOOTH",
"299 155 OFFCURVE",
"273 158 OFFCURVE",
"245 163 CURVE",
"245 405 LINE SMOOTH",
"245 459 OFFCURVE",
"267 475 OFFCURVE",
"339 475 CURVE SMOOTH",
"371 475 OFFCURVE",
"426 467 OFFCURVE",
"465 456 CURVE",
"490 614 LINE",
"460 628 OFFCURVE",
"381 640 OFFCURVE",
"324 640 CURVE SMOOTH",
"101 640 OFFCURVE",
"30 561 OFFCURVE",
"30 312 CURVE SMOOTH",
"30 64 OFFCURVE",
"96 -15 OFFCURVE",
"304 -15 CURVE SMOOTH",
"384 -15 OFFCURVE",
"439 -7 OFFCURVE",
"490 11 CURVE"
);
}
);
width = 510;
}
);
leftKerningGroup = O;
leftMetricsKey = O;
rightKerningGroup = C;
unicode = 0043;
},
{
color = 10;
glyphname = D;
layers = (
{
anchors = (
{
name = bottom;
position = "{328, 0}";
},
{
name = center;
position = "{170, 313}";
},
{
name = top;
position = "{328, 625}";
}
);
hints = (
{
horizontal = 1;
origin = "{0, 0}";
target = "{1, 8}";
},
{
horizontal = 1;
origin = "{0, 8}";
target = "{1, 9}";
},
{
origin = "{0, 0}";
target = "{1, 8}";
},
{
origin = "{1, 4}";
target = "{0, 4}";
},
{
horizontal = 1;
origin = "{0, 0}";
target = up;
type = BottomGhost;
},
{
horizontal = 1;
origin = "{0, 8}";
target = down;
type = TopGhost;
}
);
layerId = "6DB5A621-F658-4304-B48E-115D54993538";
paths = (
{
closed = 1;
nodes = (
"50 0 LINE",
"329 0 LINE SMOOTH",
"560 0 OFFCURVE",
"625 68 OFFCURVE",
"625 312 CURVE SMOOTH",
"625 556 OFFCURVE",
"560 625 OFFCURVE",
"329 625 CURVE SMOOTH",
"50 625 LINE"
);
},
{
closed = 1;
nodes = (
"332 469 LINE SMOOTH",
"391 469 OFFCURVE",
"410 454 OFFCURVE",
"410 406 CURVE SMOOTH",
"410 219 LINE SMOOTH",
"410 171 OFFCURVE",
"391 156 OFFCURVE",
"332 156 CURVE SMOOTH",
"250 156 LINE",
"250 469 LINE"
);
}
);
width = 655;
}
);
leftKerningGroup = H;
leftMetricsKey = H;
rightKerningGroup = O;
rightMetricsKey = O;
unicode = 0044;
},
{
color = 10;
glyphname = E;
layers = (
{
anchors = (
{
name = bottom;
position = "{265, 0}";
},
{
name = ogonek;
position = "{485, 0}";
},
{
name = top;
position = "{275, 625}";
},
{
name = topleft;
position = "{20, 625}";
}
);
hints = (
{
horizontal = 1;
origin = "{0, 7}";
target = "{0, 10}";
},
{
horizontal = 1;
origin = "{0, 11}";
target = "{0, 2}";
},
{
horizontal = 1;
origin = "{0, 6}";
target = "{0, 3}";
},
{
origin = "{0, 7}";
target = "{0, 10}";
},
{
horizontal = 1;
origin = "{0, 7}";
target = up;
type = BottomGhost;
},
{
horizontal = 1;
origin = "{0, 6}";
target = down;
type = TopGhost;
}
);
layerId = "6DB5A621-F658-4304-B48E-115D54993538";
paths = (
{
closed = 1;
nodes = (
"450 240 LINE",
"450 385 LINE",
"250 385 LINE",
"250 460 LINE",
"465 460 LINE",
"490 625 LINE",
"50 625 LINE",
"50 0 LINE",
"485 0 LINE",
"485 165 LINE",
"250 165 LINE",
"250 240 LINE"
);
}
);
width = 520;
}
);
leftKerningGroup = H;
leftMetricsKey = H;
rightKerningGroup = E;
unicode = 0045;
},
{
color = 10;
glyphname = F;
layers = (
{
hints = (
{
horizontal = 1;
origin = "{0, 9}";
target = "{0, 2}";
},
{
horizontal = 1;
origin = "{0, 3}";
target = "{0, 6}";
},
{
origin = "{0, 7}";
target = "{0, 8}";
},
{
horizontal = 1;
origin = "{0, 7}";
target = up;
type = BottomGhost;
},
{
horizontal = 1;
origin = "{0, 6}";
target = down;
type = TopGhost;
}
);
layerId = "6DB5A621-F658-4304-B48E-115D54993538";
paths = (
{
closed = 1;
nodes = (
"420 220 LINE",
"420 365 LINE",
"250 365 LINE",
"250 460 LINE",
"435 460 LINE",
"460 625 LINE",
"50 625 LINE",
"50 0 LINE",
"250 0 LINE",
"250 220 LINE"
);
}
);
width = 470;
}
);
leftKerningGroup = H;
leftMetricsKey = H;
rightKerningGroup = F;
unicode = 0046;
},
{
color = 10;
glyphname = G;
layers = (
{
anchors = (
{
name = bottom;
position = "{295, 0}";
},
{
name = top;
position = "{315, 625}";
}
);
hints = (
{
horizontal = 1;
origin = "{0, 21}";
target = "{0, 4}";
},
{
horizontal = 1;
origin = "{1, 3}";
target = "{1, 2}";
},
{
horizontal = 1;
origin = "{0, 15}";
target = "{0, 8}";
},
{
origin = "{0, 18}";
target = "{0, 4}";
},
{
origin = "{1, 5}";
target = "{0, 2}";
}
);
layerId = "6DB5A621-F658-4304-B48E-115D54993538";
paths = (
{
closed = 1;
nodes = (
"406 -15 OFFCURVE",
"482 -2 OFFCURVE",
"550 30 CURVE",
"535 146 LINE",
"245 146 LINE",
"245 405 LINE SMOOTH",
"245 459 OFFCURVE",
"267 475 OFFCURVE",
"339 475 CURVE SMOOTH",
"380 475 OFFCURVE",
"447 467 OFFCURVE",
"495 456 CURVE",
"520 614 LINE",
"485 628 OFFCURVE",
"392 640 OFFCURVE",
"324 640 CURVE SMOOTH",
"96 640 OFFCURVE",
"30 566 OFFCURVE",
"30 312 CURVE SMOOTH",
"30 58 OFFCURVE",
"89 -15 OFFCURVE",
"294 -15 CURVE SMOOTH"
);
},
{
closed = 1;
nodes = (
"550 30 LINE",
"550 374 LINE",
"309 374 LINE",
"309 229 LINE",
"360 229 LINE",
"360 30 LINE"
);
}
);
width = 575;
}
);
leftKerningGroup = O;
leftMetricsKey = O;
rightKerningGroup = G;
rightMetricsKey = "=H-25";
unicode = 0047;
},
{
color = 10;
glyphname = H;
layers = (
{
anchors = (
{
name = bottom;
position = "{325, 0}";
},
{
name = center;
position = "{325, 503}";
},
{
name = top;
position = "{325, 625}";
},
{
name = topleft;
position = "{20, 625}";
}
);
hints = (
{
horizontal = 1;
origin = "{2, 2}";
target = "{2, 1}";
},
{
origin = "{0, 2}";
target = "{0, 3}";
},
{
origin = "{1, 0}";
target = "{1, 1}";
},
{
horizontal = 1;
origin = "{0, 1}";
target = down;
type = TopGhost;
},
{
horizontal = 1;
origin = "{0, 2}";
target = up;
type = BottomGhost;
}
);
layerId = "6DB5A621-F658-4304-B48E-115D54993538";
paths = (
{
closed = 1;
nodes = (
"250 625 LINE",
"50 625 LINE",
"50 0 LINE",
"250 0 LINE"
);
},
{
closed = 1;
nodes = (
"400 0 LINE",
"600 0 LINE",
"600 625 LINE",
"400 625 LINE"
);
},
{
closed = 1;
nodes = (
"416 385 LINE",
"234 385 LINE",
"234 240 LINE",
"416 240 LINE"
);
}
);
width = 650;
}
);
leftKerningGroup = H;
rightKerningGroup = H;
unicode = 0048;
},
{
color = 10;
glyphname = I;
layers = (
{
anchors = (
{
name = bottom;
position = "{150, 0}";
},
{
name = ogonek;
position = "{250, 0}";
},
{
name = top;
position = "{150, 625}";
},
{
name = topleft;
position = "{20, 625}";
}
);
hints = (
{
origin = "{0, 0}";
target = "{0, 1}";
},
{
horizontal = 1;
origin = "{0, 0}";
target = up;
type = BottomGhost;
},
{
horizontal = 1;
origin = "{0, 3}";
target = down;
type = TopGhost;
}
);
layerId = "6DB5A621-F658-4304-B48E-115D54993538";
paths = (
{
closed = 1;
nodes = (
"50 0 LINE",
"250 0 LINE",
"250 625 LINE",
"50 625 LINE"
);
}
);
width = 300;
}
);
leftKerningGroup = H;
leftMetricsKey = H;
rightKerningGroup = H;
rightMetricsKey = H;
unicode = 0049;
},
{
color = 10;
glyphname = J;
layers = (
{
anchors = (
{
name = bottom;
position = "{196, 0}";
},
{
name = top;
position = "{196, 625}";
}
);
hints = (
{
horizontal = 1;
origin = "{0, 0}";
target = "{0, 13}";
},
{
horizontal = 1;
origin = "{0, 7}";
target = "{0, 6}";
},
{
origin = "{0, 9}";
target = "{0, 4}";
},
{
horizontal = 1;
origin = "{0, 0}";
target = up;
type = BottomGhost;
},
{
horizontal = 1;
origin = "{0, 6}";
target = down;
type = TopGhost;
}
);
layerId = "6DB5A621-F658-4304-B48E-115D54993538";
paths = (
{
closed = 1;
nodes = (
"30 0 LINE",
"186 0 LINE SMOOTH",
"286 0 OFFCURVE",
"341 57 OFFCURVE",
"341 165 CURVE SMOOTH",
"341 625 LINE",
"41 625 LINE",
"41 460 LINE",
"141 460 LINE",
"141 195 LINE SMOOTH",
"141 167 OFFCURVE",
"120 165 OFFCURVE",
"93 165 CURVE SMOOTH",
"10 165 LINE"
);
}
);
width = 391;
}
);
leftKerningGroup = J;
rightKerningGroup = J;
rightMetricsKey = H;
unicode = 004A;
},
{
color = 10;
glyphname = K;
layers = (
{
anchors = (
{
name = bottom;
position = "{319, 0}";
},
{
name = top;
position = "{319, 625}";
}
);
hints = (
{
horizontal = 1;
origin = "{0, 9}";
target = "{0, 8}";
},
{
origin = "{1, 3}";
target = "{1, 0}";
},
{
horizontal = 1;
origin = "{1, 3}";
target = up;
type = BottomGhost;
},
{
horizontal = 1;
origin = "{1, 2}";
target = down;
type = TopGhost;
}
);
layerId = "6DB5A621-F658-4304-B48E-115D54993538";
paths = (
{
closed = 1;
nodes = (
"613 0 LINE",
"461 321 LINE",
"608 625 LINE",
"396 625 LINE",
"322 474 LINE SMOOTH",
"305 439 OFFCURVE",
"297 413 OFFCURVE",
"297 394 CURVE",
"234 394 LINE",
"234 248 LINE",
"297 248 LINE",
"297 229 OFFCURVE",
"305 203 OFFCURVE",
"322 168 CURVE SMOOTH",
"401 0 LINE"
);
},
{
closed = 1;
nodes = (
"250 0 LINE",
"250 625 LINE",
"50 625 LINE",
"50 0 LINE"
);
}
);
width = 618;
}
);
leftKerningGroup = H;
leftMetricsKey = H;
rightKerningGroup = K;
unicode = 004B;
},
{
color = 10;
glyphname = L;
layers = (
{
anchors = (
{
name = bottom;
position = "{258, 0}";
},
{
name = center;
position = "{150, 358}";
},
{
name = top;
position = "{150, 625}";
},
{
name = topright;
position = "{385, 625}";
}
);
hints = (
{
horizontal = 1;
origin = "{0, 5}";
target = "{0, 2}";
},
{
horizontal = 1;
origin = "{0, 4}";
target = down;
type = TopGhost;
},
{
origin = "{0, 5}";
target = "{0, 2}";
},
{
horizontal = 1;
origin = "{0, 5}";
target = up;
type = BottomGhost;
}
);
layerId = "6DB5A621-F658-4304-B48E-115D54993538";
paths = (
{
closed = 1;
nodes = (
"440 0 LINE",
"440 165 LINE",
"250 165 LINE",
"250 625 LINE",
"50 625 LINE",
"50 0 LINE"
);
}
);
width = 445;
}
);
leftKerningGroup = H;
leftMetricsKey = H;
rightKerningGroup = L;
unicode = 004C;
},
{
color = 10;
glyphname = M;
layers = (
{
hints = (
{
horizontal = 1;
origin = "{0, 15}";
target = up;
type = BottomGhost;
},
{
horizontal = 1;
origin = "{0, 14}";
target = down;
type = TopGhost;
}
);
layerId = "6DB5A621-F658-4304-B48E-115D54993538";
paths = (
{
closed = 1;
nodes = (
"234 0 LINE",
"250 303 LINE",
"256 303 LINE",
"329 0 LINE",
"482 0 LINE",
"554 303 LINE",
"561 303 LINE",
"577 0 LINE",
"776 0 LINE",
"738 625 LINE",
"487 625 LINE",
"409 307 LINE",
"402 307 LINE",
"324 625 LINE",
"73 625 LINE",
"35 0 LINE"
);
}
);
width = 811;
}
);
leftKerningGroup = M;
leftMetricsKey = "=H-15";
rightKerningGroup = M;
rightMetricsKey = "=H-15";
unicode = 004D;
},
{
color = 10;
glyphname = N;
layers = (
{
anchors = (
{
name = bottom;
position = "{338, 0}";
},
{
name = top;
position = "{338, 625}";
}
);
hints = (
{
origin = "{0, 17}";
target = "{0, 0}";
},
{
origin = "{0, 10}";
target = "{0, 7}";
},
{
horizontal = 1;
origin = "{0, 17}";
target = up;
type = BottomGhost;
},
{
horizontal = 1;
origin = "{0, 16}";
target = down;
type = TopGhost;
}
);
layerId = "6DB5A621-F658-4304-B48E-115D54993538";
paths = (
{
closed = 1;
nodes = (
"255 0 LINE",
"255 290 LINE",
"261 290 LINE",
"261 272 OFFCURVE",
"268 249 OFFCURVE",
"286 219 CURVE SMOOTH",
"422 0 LINE",
"620 0 LINE",
"620 625 LINE",
"420 625 LINE",
"420 335 LINE",
"414 335 LINE",
"414 353 OFFCURVE",
"407 376 OFFCURVE",
"389 406 CURVE SMOOTH",
"253 625 LINE",
"55 625 LINE",
"55 0 LINE"
);
}
);
width = 675;
}
);
leftKerningGroup = H;
leftMetricsKey = "=H+5";
rightKerningGroup = H;
rightMetricsKey = "=H+5";
unicode = 004E;
},
{
color = 10;
glyphname = O;
layers = (
{
anchors = (
{
name = bottom;
position = "{330, 0}";
},
{
name = center;
position = "{330, 313}";
},
{
name = ogonek;
position = "{412, -9}";
},
{
name = top;
position = "{330, 625}";
},
{
name = topleft;
position = "{28, 625}";
},
{
name = topright;
position = "{632, 625}";
}
);
hints = (
{
horizontal = 1;
origin = "{0, 2}";
target = "{1, 9}";
},
{
horizontal = 1;
origin = "{0, 8}";
target = "{1, 3}";
},
{
origin = "{0, 11}";
target = "{1, 9}";
},
{
origin = "{1, 5}";
target = "{0, 5}";
}
);
layerId = "6DB5A621-F658-4304-B48E-115D54993538";
paths = (
{
closed = 1;
nodes = (
"30 65 OFFCURVE",
"103 -15 OFFCURVE",
"330 -15 CURVE SMOOTH",
"557 -15 OFFCURVE",
"630 65 OFFCURVE",
"630 312 CURVE SMOOTH",
"630 560 OFFCURVE",
"557 640 OFFCURVE",
"330 640 CURVE SMOOTH",
"103 640 OFFCURVE",
"30 560 OFFCURVE",
"30 312 CURVE SMOOTH"
);
},
{
closed = 1;
nodes = (
"245 416 LINE SMOOTH",
"245 456 OFFCURVE",
"264 469 OFFCURVE",
"323 469 CURVE SMOOTH",
"415 469 LINE",
"415 209 LINE SMOOTH",
"415 169 OFFCURVE",
"396 156 OFFCURVE",
"336 156 CURVE SMOOTH",
"245 156 LINE"
);
}
);
width = 660;
}
);
leftKerningGroup = O;
rightKerningGroup = O;
unicode = 004F;
},
{
color = 1;
glyphname = Oslash;
layers = (
{
anchors = (
{
name = _center;
position = "{330, 313}";
},
{
name = bottom;
position = "{330, 0}";
},
{
name = top;
position = "{330, 625}";
}
);
components = (
{
name = O;
}
);
layerId = "6DB5A621-F658-4304-B48E-115D54993538";
paths = (
{
closed = 1;
nodes = (
"193 80 LINE",
"128 -75 LINE",
"179 -75 LINE SMOOTH",
"202 -75 OFFCURVE",
"212 -71 OFFCURVE",
"222 -48 CURVE SMOOTH",
"275 81 LINE"
);
},
{
closed = 1;
nodes = (
"464 538 LINE",
"532 700 LINE",
"481 700 LINE SMOOTH",
"458 700 OFFCURVE",
"447 695 OFFCURVE",
"438 673 CURVE SMOOTH",
"382 537 LINE"
);
}
);
width = 660;
}
);
leftKerningGroup = O;
rightKerningGroup = O;
unicode = 00D8;
},
{
color = 10;
glyphname = OE;
layers = (
{
anchors = (
{
name = bottom;
position = "{443, 0}";
},
{
name = top;
position = "{443, 625}";
}
);
hints = (
{
horizontal = 1;
origin = "{0, 7}";
target = "{0, 10}";
},
{
horizontal = 1;
origin = "{0, 11}";
target = "{0, 2}";
},
{
horizontal = 1;
origin = "{0, 6}";
target = "{0, 3}";
},
{
origin = "{0, 7}";
target = "{0, 10}";
},
{
horizontal = 1;
origin = "{0, 8}";
target = up;
type = BottomGhost;
},
{
horizontal = 1;
origin = "{0, 5}";
target = down;
type = TopGhost;
}
);
layerId = "6DB5A621-F658-4304-B48E-115D54993538";
paths = (
{
closed = 1;
nodes = (
"815 240 LINE",
"815 385 LINE",
"615 385 LINE",
"615 460 LINE",
"830 460 LINE",
"855 625 LINE",
"415 625 LINE",
"415 0 LINE",
"850 0 LINE",
"850 165 LINE",
"615 165 LINE",
"615 240 LINE"
);
},
{
closed = 1;
nodes = (
"30 75 OFFCURVE",
"102 0 OFFCURVE",
"330 0 CURVE SMOOTH",
"435 0 LINE",
"435 625 LINE",
"330 625 LINE",
"102 625 OFFCURVE",
"30 550 OFFCURVE",
"30 312 CURVE SMOOTH"
);
},
{
closed = 1;
nodes = (
"245 407 LINE SMOOTH",
"245 447 OFFCURVE",
"264 460 OFFCURVE",
"323 460 CURVE SMOOTH",
"415 460 LINE",
"415 218 LINE SMOOTH",
"415 178 OFFCURVE",
"396 165 OFFCURVE",
"336 165 CURVE SMOOTH",
"245 165 LINE"
);
}
);
width = 885;
}
);
leftKerningGroup = O;
leftMetricsKey = O;
rightKerningGroup = E;
rightMetricsKey = E;
unicode = 0152;
},
{
color = 10;
glyphname = P;
layers = (
{
hints = (
{
horizontal = 1;
origin = "{0, 10}";
target = "{1, 9}";
},
{
horizontal = 1;
origin = "{0, 7}";
target = "{1, 0}";
},
{
origin = "{0, 8}";
target = "{0, 9}";
},
{
origin = "{1, 5}";
target = "{0, 3}";
},
{
horizontal = 1;
origin = "{0, 8}";
target = up;
type = BottomGhost;
},
{
horizontal = 1;
origin = "{0, 7}";
target = down;
type = TopGhost;
}
);
layerId = "6DB5A621-F658-4304-B48E-115D54993538";
paths = (
{
closed = 1;
nodes = (
"350 151 LINE SMOOTH",
"503 151 OFFCURVE",
"575 228 OFFCURVE",
"575 394 CURVE SMOOTH",
"575 558 OFFCURVE",
"505 625 OFFCURVE",
"335 625 CURVE SMOOTH",
"50 625 LINE",
"50 0 LINE",
"250 0 LINE",
"250 151 LINE"
);
},
{
closed = 1;
nodes = (
"250 460 LINE",
"326 460 LINE SMOOTH",
"355 460 OFFCURVE",
"365 450 OFFCURVE",
"365 418 CURVE SMOOTH",
"365 338 LINE SMOOTH",
"365 306 OFFCURVE",
"355 296 OFFCURVE",
"326 296 CURVE SMOOTH",
"250 296 LINE"
);
}
);
width = 590;
}
);
leftKerningGroup = H;
leftMetricsKey = H;
rightKerningGroup = P;
unicode = 0050;
},
{
color = 10;
glyphname = Thorn;
layers = (
{
hints = (
{
horizontal = 1;
origin = "{0, 5}";
target = "{1, 3}";
},
{
horizontal = 1;
origin = "{0, 0}";
target = "{1, 4}";
},
{
origin = "{0, 3}";
target = "{0, 4}";
},
{
origin = "{1, 9}";
target = "{0, 9}";
},
{
horizontal = 1;
origin = "{0, 3}";
target = up;
type = BottomGhost;
},
{
horizontal = 1;
origin = "{0, 2}";
target = down;
type = TopGhost;
}
);
layerId = "6DB5A621-F658-4304-B48E-115D54993538";
paths = (
{
closed = 1;
nodes = (
"250 550 LINE",
"250 625 LINE",
"50 625 LINE",
"50 0 LINE",
"250 0 LINE",
"250 76 LINE",
"350 76 LINE SMOOTH",
"503 76 OFFCURVE",
"575 153 OFFCURVE",
"575 319 CURVE SMOOTH",
"575 483 OFFCURVE",
"505 550 OFFCURVE",
"335 550 CURVE SMOOTH"
);
},
{
closed = 1;
nodes = (
"365 231 OFFCURVE",
"355 221 OFFCURVE",
"326 221 CURVE SMOOTH",
"250 221 LINE",
"250 405 LINE",
"326 405 LINE SMOOTH",
"355 405 OFFCURVE",
"365 395 OFFCURVE",
"365 363 CURVE SMOOTH",
"365 263 LINE SMOOTH"
);
}
);
width = 590;
}
);
leftKerningGroup = H;
leftMetricsKey = H;
rightKerningGroup = Thorn;
rightMetricsKey = P;
unicode = 00DE;
},
{
color = 10;
glyphname = Q;
layers = (
{
hints = (
{
horizontal = 1;
origin = "{0, 13}";
target = "{1, 9}";
},
{
horizontal = 1;
origin = "{0, 7}";
target = "{1, 3}";
},
{
origin = "{0, 10}";
target = "{1, 9}";
},
{
origin = "{1, 5}";
target = "{0, 4}";
}
);
layerId = "6DB5A621-F658-4304-B48E-115D54993538";
paths = (
{
closed = 1;
nodes = (
"385 42 LINE",
"493 35 LINE",
"584 77 OFFCURVE",
"620 155 OFFCURVE",
"620 312 CURVE SMOOTH",
"620 555 OFFCURVE",
"544 640 OFFCURVE",
"325 640 CURVE SMOOTH",
"106 640 OFFCURVE",
"30 555 OFFCURVE",
"30 312 CURVE SMOOTH",
"30 70 OFFCURVE",
"107 -15 OFFCURVE",
"325 -15 CURVE"
);
},
{
closed = 1;
nodes = (
"245 416 LINE SMOOTH",
"245 456 OFFCURVE",
"263 469 OFFCURVE",
"322 469 CURVE SMOOTH",
"406 469 LINE",
"406 209 LINE SMOOTH",
"406 169 OFFCURVE",
"387 156 OFFCURVE",
"328 156 CURVE SMOOTH",
"245 156 LINE"
);
},
{
closed = 1;
nodes = (
"629 37 LINE",
"517 107 LINE",
"385 42 LINE",
"385 -15 LINE",
"577 -78 LINE"
);
}
);
width = 650;
}
);
leftKerningGroup = O;
rightKerningGroup = O;
unicode = 0051;
},
{
color = 10;
glyphname = R;
layers = (
{
anchors = (
{
name = bottom;
position = "{313, 0}";
},
{
name = top;
position = "{313, 625}";
}
);
hints = (
{
horizontal = 1;
origin = "{0, 10}";
target = "{1, 9}";
},
{
horizontal = 1;
origin = "{1, 0}";
target = "{0, 7}";
},
{
origin = "{0, 8}";
target = "{0, 9}";
},
{
origin = "{1, 5}";
target = "{0, 3}";
},
{
horizontal = 1;
origin = "{0, 8}";
target = up;
type = BottomGhost;
},
{
horizontal = 1;
origin = "{0, 7}";
target = down;
type = TopGhost;
}
);
layerId = "6DB5A621-F658-4304-B48E-115D54993538";
paths = (
{
closed = 1;
nodes = (
"355 181 LINE SMOOTH",
"509 181 OFFCURVE",
"580 249 OFFCURVE",
"580 394 CURVE SMOOTH",
"580 558 OFFCURVE",
"510 625 OFFCURVE",
"340 625 CURVE SMOOTH",
"50 625 LINE",
"50 0 LINE",
"250 0 LINE",
"250 181 LINE"
);
},
{
closed = 1;
nodes = (
"250 460 LINE",
"331 460 LINE SMOOTH",
"360 460 OFFCURVE",
"370 450 OFFCURVE",
"370 418 CURVE SMOOTH",
"370 368 LINE SMOOTH",
"370 336 OFFCURVE",
"360 326 OFFCURVE",
"331 326 CURVE SMOOTH",
"250 326 LINE"
);
},
{
closed = 1;
nodes = (
"285 219 LINE",
"388 0 LINE",
"605 0 LINE",
"453 321 LINE"
);
}
);
width = 625;
}
);
leftKerningGroup = H;
leftMetricsKey = H;
rightKerningGroup = R;
unicode = 0052;
},
{
color = 10;
glyphname = S;
layers = (
{
anchors = (
{
name = bottom;
position = "{289, 0}";
},
{
name = top;
position = "{289, 625}";
}
);
hints = (
{
horizontal = 1;
origin = "{0, 3}";
target = "{0, 32}";
},
{
horizontal = 1;
place = "{263.5, 97}";
},
{
horizontal = 1;
origin = "{0, 21}";
target = "{0, 14}";
},
{
origin = "{0, 24}";
target = "{0, 10}";
},
{
origin = "{0, 29}";
target = "{0, 6}";
}
);
layerId = "6DB5A621-F658-4304-B48E-115D54993538";
paths = (
{
closed = 1;
nodes = (
"25 21 LINE",
"104 -3 OFFCURVE",
"191 -15 OFFCURVE",
"286 -15 CURVE SMOOTH",
"470 -15 OFFCURVE",
"552 51 OFFCURVE",
"552 199 CURVE SMOOTH",
"552 327 OFFCURVE",
"483 388 OFFCURVE",
"321 404 CURVE SMOOTH",
"249 411 LINE",
"249 465 LINE",
"274 469 OFFCURVE",
"292 470 OFFCURVE",
"331 470 CURVE SMOOTH",
"381 470 OFFCURVE",
"423 465 OFFCURVE",
"493 450 CURVE",
"518 610 LINE",
"443 630 OFFCURVE",
"364 640 OFFCURVE",
"283 640 CURVE SMOOTH",
"98 640 OFFCURVE",
"34 582 OFFCURVE",
"34 416 CURVE SMOOTH",
"34 289 OFFCURVE",
"93 236 OFFCURVE",
"247 222 CURVE SMOOTH",
"337 214 LINE",
"337 159 LINE",
"313 155 OFFCURVE",
"291 154 OFFCURVE",
"256 154 CURVE SMOOTH",
"188 154 OFFCURVE",
"122 164 OFFCURVE",
"53 186 CURVE"
);
}
);
width = 577;
}
);
leftKerningGroup = S;
rightKerningGroup = S;
unicode = 0053;
},
{
color = 10;
glyphname = T;
layers = (
{
anchors = (
{
name = bottom;
position = "{245, 0}";
},
{
name = center;
position = "{245, 273}";
},
{
name = top;
position = "{245, 625}";
}
);
hints = (
{
horizontal = 1;
origin = "{0, 3}";
target = "{0, 2}";
},
{
origin = "{0, 5}";
target = "{0, 6}";
},
{
horizontal = 1;
origin = "{0, 5}";
target = up;
type = BottomGhost;
},
{
horizontal = 1;
origin = "{0, 2}";
target = down;
type = TopGhost;
}
);
layerId = "6DB5A621-F658-4304-B48E-115D54993538";
paths = (
{
closed = 1;
nodes = (
"485 460 LINE",
"485 625 LINE",
"5 625 LINE",
"5 460 LINE",
"145 460 LINE",
"145 0 LINE",
"345 0 LINE",
"345 460 LINE"
);
}
);
width = 490;
}
);
leftKerningGroup = T;
rightKerningGroup = T;
unicode = 0054;
},
{
color = 10;
glyphname = U;
layers = (
{
anchors = (
{
name = bottom;
position = "{318, 0}";
},
{
name = ogonek;
position = "{368, -13}";
},
{
name = top;
position = "{318, 625}";
},
{
name = topright;
position = "{593, 625}";
}
);
hints = (
{
horizontal = 1;
origin = "{0, 15}";
target = "{0, 9}";
},
{
origin = "{0, 12}";
target = "{0, 9}";
},
{
origin = "{0, 5}";
target = "{0, 2}";
},
{
horizontal = 1;
origin = "{0, 11}";
target = down;
type = TopGhost;
}
);
layerId = "6DB5A621-F658-4304-B48E-115D54993538";
paths = (
{
closed = 1;
nodes = (
"535 -15 OFFCURVE",
"594 38 OFFCURVE",
"594 234 CURVE SMOOTH",
"594 625 LINE",
"394 625 LINE",
"394 209 LINE SMOOTH",
"394 166 OFFCURVE",
"380 156 OFFCURVE",
"320 156 CURVE SMOOTH",
"240 156 LINE",
"240 625 LINE",
"40 625 LINE",
"40 234 LINE SMOOTH",
"40 37 OFFCURVE",
"98 -15 OFFCURVE",
"316 -15 CURVE SMOOTH"
);
}
);
width = 634;
}
);
leftKerningGroup = U;
leftMetricsKey = "=H-10";
rightKerningGroup = U;
rightMetricsKey = "=H-10";
unicode = 0055;
},
{
color = 10;
glyphname = V;
layers = (
{
hints = (
{
horizontal = 1;
origin = "{0, 7}";
target = down;
type = TopGhost;
},
{
horizontal = 1;
origin = "{0, 0}";
target = up;
type = BottomGhost;
}
);
layerId = "6DB5A621-F658-4304-B48E-115D54993538";
paths = (
{
closed = 1;
nodes = (
"155 0 LINE",
"466 0 LINE",
"616 625 LINE",
"416 625 LINE",
"315 192 LINE",
"306 192 LINE",
"205 625 LINE",
"5 625 LINE"
);
}
);
width = 621;
}
);
leftKerningGroup = V;
rightKerningGroup = V;
unicode = 0056;
},
{
color = 10;
glyphname = W;
layers = (
{
anchors = (
{
name = bottom;
position = "{465, 0}";
},
{
name = top;
position = "{465, 625}";
}
);
hints = (
{
horizontal = 1;
origin = "{0, 7}";
target = down;
type = TopGhost;
},
{
horizontal = 1;
origin = "{0, 0}";
target = up;
type = BottomGhost;
}
);
layerId = "6DB5A621-F658-4304-B48E-115D54993538";
paths = (
{
closed = 1;
nodes = (
"108 0 LINE",
"406 0 LINE",
"503 625 LINE",
"356 625 LINE",
"287 192 LINE",
"278 192 LINE",
"225 625 LINE",
"25 625 LINE"
);
},
{
closed = 1;
nodes = (
"704 625 LINE",
"651 192 LINE",
"642 192 LINE",
"573 625 LINE",
"426 625 LINE",
"523 0 LINE",
"821 0 LINE",
"904 625 LINE"
);
}
);
width = 929;
}
);
leftKerningGroup = W;
rightKerningGroup = W;
unicode = 0057;
},
{
color = 10;
glyphname = X;
layers = (
{
hints = (
{
horizontal = 1;
origin = "{1, 1}";
target = up;
type = BottomGhost;
},
{
horizontal = 1;
origin = "{0, 1}";
target = down;
type = TopGhost;
}
);
layerId = "6DB5A621-F658-4304-B48E-115D54993538";
paths = (
{
closed = 1;
nodes = (
"234 625 LINE",
"12 625 LINE",
"403 0 LINE",
"625 0 LINE"
);
},
{
closed = 1;
nodes = (
"221 370 LINE",
"5 0 LINE",
"222 0 LINE",
"385 278 LINE"
);
},
{
closed = 1;
nodes = (
"402 255 LINE",
"618 625 LINE",
"401 625 LINE",
"238 347 LINE"
);
}
);
width = 630;
}
);
leftKerningGroup = X;
rightKerningGroup = X;
unicode = 0058;
},
{
color = 10;
glyphname = Y;
layers = (
{
anchors = (
{
name = bottom;
position = "{290, 0}";
},
{
name = top;
position = "{290, 625}";
},
{
name = topleft;
position = "{5, 625}";
}
);
hints = (
{
horizontal = 1;
origin = "{0, 2}";
target = down;
type = TopGhost;
},
{
origin = "{0, 4}";
target = "{0, 5}";
},
{
horizontal = 1;
origin = "{0, 4}";
target = up;
type = BottomGhost;
}
);
layerId = "6DB5A621-F658-4304-B48E-115D54993538";
paths = (
{
closed = 1;
nodes = (
"327 314 LINE",
"215 625 LINE",
"5 625 LINE",
"190 200 LINE",
"190 0 LINE",
"390 0 LINE",
"390 200 LINE",
"575 625 LINE",
"365 625 LINE",
"253 314 LINE"
);
}
);
width = 580;
}
);
leftKerningGroup = Y;
rightKerningGroup = Y;
unicode = 0059;
},
{
color = 10;
glyphname = Z;
layers = (
{
anchors = (
{
name = bottom;
position = "{295, 0}";
},
{
name = top;
position = "{320, 625}";
}
);
hints = (
{
horizontal = 1;
origin = "{0, 11}";
target = "{0, 2}";
},
{
horizontal = 1;
origin = "{0, 7}";
target = "{0, 6}";
},
{
horizontal = 1;
origin = "{0, 11}";
target = up;
type = BottomGhost;
},
{
horizontal = 1;
origin = "{0, 6}";
target = down;
type = TopGhost;
}
);
layerId = "6DB5A621-F658-4304-B48E-115D54993538";
paths = (
{
closed = 1;
nodes = (
"564 0 LINE",
"564 165 LINE",
"310 165 LINE",
"307 171 LINE",
"560 495 LINE",
"560 625 LINE",
"50 625 LINE",
"68 460 LINE",
"278 460 LINE",
"281 454 LINE",
"25 130 LINE",
"25 0 LINE"
);
}
);
width = 589;
}
);
leftKerningGroup = Z;
rightKerningGroup = Z;
unicode = 005A;
},
{
color = 10;
glyphname = a;
layers = (
{
anchors = (
{
name = bottom;
position = "{274, 0}";
},
{
name = ogonek;
position = "{520, 0}";
},
{
name = top;
position = "{290, 500}";
}
);
hints = (
{
horizontal = 1;
origin = "{0, 36}";
target = "{0, 23}";
},
{
horizontal = 1;
origin = "{0, 28}";
target = "{0, 29}";
},
{
horizontal = 1;
origin = "{0, 8}";
target = "{0, 15}";
},
{
origin = "{0, 33}";
target = "{0, 23}";
},
{
origin = "{0, 19}";
target = "{0, 4}";
},
{
horizontal = 1;
origin = "{0, 36}";
target = up;
type = BottomGhost;
},
{
horizontal = 1;
origin = "{0, 8}";
target = down;
type = TopGhost;
}
);
layerId = "6DB5A621-F658-4304-B48E-115D54993538";
paths = (
{
closed = 1;
nodes = (
"260 -15 OFFCURVE",
"320 8 OFFCURVE",
"370 50 CURVE",
"420 0 LINE",
"520 0 LINE",
"520 340 LINE SMOOTH",
"520 461 OFFCURVE",
"449 515 OFFCURVE",
"290 515 CURVE SMOOTH",
"205 515 OFFCURVE",
"124 504 OFFCURVE",
"48 481 CURVE",
"72 343 LINE",
"145 361 OFFCURVE",
"210 369 OFFCURVE",
"270 369 CURVE SMOOTH",
"294 369 OFFCURVE",
"309 368 OFFCURVE",
"320 365 CURVE",
"320 158 LINE SMOOTH",
"320 129 OFFCURVE",
"303 120 OFFCURVE",
"251 120 CURVE SMOOTH",
"209 120 LINE",
"209 178 LINE SMOOTH",
"209 210 OFFCURVE",
"226 220 OFFCURVE",
"278 220 CURVE SMOOTH",
"350 220 LINE",
"350 320 LINE",
"290 320 LINE SMOOTH",
"96 320 OFFCURVE",
"25 276 OFFCURVE",
"25 155 CURVE SMOOTH",
"25 38 OFFCURVE",
"79 -15 OFFCURVE",
"200 -15 CURVE SMOOTH"
);
}
);
width = 565;
}
);
leftKerningGroup = a;
leftMetricsKey = "=o-5";
rightKerningGroup = n;
rightMetricsKey = n;
unicode = 0061;
},
{
color = 10;
glyphname = ae;
layers = (
{
anchors = (
{
name = bottom;
position = "{423, 0}";
},
{
name = top;
position = "{423, 500}";
}
);
hints = (
{
horizontal = 1;
origin = "{0, 35}";
target = "{0, 22}";
},
{
horizontal = 1;
origin = "{0, 27}";
target = "{0, 28}";
},
{
horizontal = 1;
origin = "{0, 7}";
target = "{0, 14}";
},
{
origin = "{0, 32}";
target = "{0, 22}";
},
{
origin = "{0, 18}";
target = "{0, 3}";
},
{
horizontal = 1;
origin = "{1, 34}";
target = "{1, 6}";
},
{
horizontal = 1;
origin = "{1, 20}";
target = "{1, 19}";
},
{
horizontal = 1;
origin = "{1, 27}";
target = "{1, 13}";
},
{
origin = "{0, 18}";
target = "{1, 9}";
},
{
origin = "{1, 15}";
target = "{1, 24}";
},
{
horizontal = 1;
origin = "{0, 35}";
target = up;
type = BottomGhost;
},
{
horizontal = 1;
origin = "{0, 7}";
target = down;
type = TopGhost;
}
);
layerId = "6DB5A621-F658-4304-B48E-115D54993538";
paths = (
{
closed = 1;
nodes = (
"260 -15 OFFCURVE",
"320 8 OFFCURVE",
"370 50 CURVE",
"520 50 LINE",
"520 340 LINE SMOOTH",
"520 461 OFFCURVE",
"449 515 OFFCURVE",
"290 515 CURVE SMOOTH",
"205 515 OFFCURVE",
"124 504 OFFCURVE",
"48 481 CURVE",
"72 343 LINE",
"145 361 OFFCURVE",
"210 369 OFFCURVE",
"270 369 CURVE SMOOTH",
"294 369 OFFCURVE",
"309 368 OFFCURVE",
"320 365 CURVE",
"320 158 LINE SMOOTH",
"320 129 OFFCURVE",
"303 120 OFFCURVE",
"251 120 CURVE SMOOTH",
"209 120 LINE",
"209 178 LINE SMOOTH",
"209 210 OFFCURVE",
"226 220 OFFCURVE",
"278 220 CURVE SMOOTH",
"350 220 LINE",
"350 320 LINE",
"290 320 LINE SMOOTH",
"96 320 OFFCURVE",
"25 276 OFFCURVE",
"25 155 CURVE SMOOTH",
"25 38 OFFCURVE",
"79 -15 OFFCURVE",
"200 -15 CURVE SMOOTH"
);
},
{
closed = 1;
nodes = (
"646 -15 OFFCURVE",
"720 -4 OFFCURVE",
"792 19 CURVE",
"768 157 LINE",
"708 140 OFFCURVE",
"649 131 OFFCURVE",
"590 131 CURVE SMOOTH",
"561 131 OFFCURVE",
"538 132 OFFCURVE",
"520 135 CURVE",
"520 332 LINE SMOOTH",
"520 361 OFFCURVE",
"537 370 OFFCURVE",
"589 370 CURVE SMOOTH",
"625 370 LINE",
"625 322 LINE SMOOTH",
"625 290 OFFCURVE",
"608 280 OFFCURVE",
"556 280 CURVE SMOOTH",
"490 280 LINE",
"490 180 LINE",
"520 180 LINE SMOOTH",
"729 180 OFFCURVE",
"805 224 OFFCURVE",
"805 345 CURVE SMOOTH",
"805 475 OFFCURVE",
"750 515 OFFCURVE",
"570 515 CURVE SMOOTH",
"486 515 OFFCURVE",
"425 498 OFFCURVE",
"382 463 CURVE",
"348 74 LINE",
"390 14 OFFCURVE",
"462 -15 OFFCURVE",
"570 -15 CURVE"
);
}
);
width = 845;
}
);
leftKerningGroup = a;
leftMetricsKey = a;
rightKerningGroup = e;
rightMetricsKey = e;
unicode = 00E6;
},
{
color = 10;
glyphname = b;
layers = (
{
hints = (
{
horizontal = 1;
origin = "{0, 5}";
target = "{1, 4}";
},
{
horizontal = 1;
origin = "{0, 11}";
target = "{1, 8}";
},
{
origin = "{1, 0}";
target = "{0, 8}";
},
{
horizontal = 1;
origin = "{0, 5}";
target = up;
type = BottomGhost;
},
{
origin = "{2, 7}";
target = "{2, 6}";
},
{
horizontal = 1;
origin = "{0, 11}";
target = down;
type = TopGhost;
}
);
layerId = "6DB5A621-F658-4304-B48E-115D54993538";
paths = (
{
closed = 1;
nodes = (
"202 515 OFFCURVE",
"135 432 OFFCURVE",
"135 250 CURVE SMOOTH",
"135 68 OFFCURVE",
"190 -15 OFFCURVE",
"310 -15 CURVE SMOOTH",
"487 -15 OFFCURVE",
"565 66 OFFCURVE",
"565 250 CURVE SMOOTH",
"565 434 OFFCURVE",
"499 515 OFFCURVE",
"350 515 CURVE SMOOTH"
);
},
{
closed = 1;
nodes = (
"350 163 LINE SMOOTH",
"350 142 OFFCURVE",
"341 135 OFFCURVE",
"311 135 CURVE SMOOTH",
"250 135 LINE",
"250 337 LINE SMOOTH",
"250 358 OFFCURVE",
"259 365 OFFCURVE",
"289 365 CURVE SMOOTH",
"350 365 LINE"
);
},
{
closed = 1;
nodes = (
"50 25 LINE",
"132 -4 OFFCURVE",
"206 -15 OFFCURVE",
"310 -15 CURVE",
"250 95 LINE",
"250 135 LINE",
"250 665 LINE",
"50 650 LINE"
);
}
);
width = 595;
}
);
leftKerningGroup = h;
leftMetricsKey = n;
rightKerningGroup = o;
rightMetricsKey = o;
unicode = 0062;
},
{
color = 10;
glyphname = c;
layers = (
{
anchors = (
{
name = bottom;
position = "{255, 0}";
},
{
name = top;
position = "{245, 500}";
}
);
hints = (
{
horizontal = 1;
origin = "{0, 26}";
target = "{0, 6}";
},
{
horizontal = 1;
origin = "{0, 20}";
target = "{0, 13}";
},
{
horizontal = 1;
origin = "{0, 20}";
target = down;
type = TopGhost;
},
{
origin = "{0, 23}";
target = "{0, 10}";
},
{
horizontal = 1;
origin = "{0, 26}";
target = up;
type = BottomGhost;
},
{
horizontal = 1;
origin = "{0, 20}";
target = down;
type = TopGhost;
}
);
layerId = "6DB5A621-F658-4304-B48E-115D54993538";
paths = (
{
closed = 1;
nodes = (
"322 -15 OFFCURVE",
"383 -4 OFFCURVE",
"439 19 CURVE",
"422 157 LINE",
"383 139 OFFCURVE",
"342 131 OFFCURVE",
"296 131 CURVE SMOOTH",
"272 131 OFFCURVE",
"257 132 OFFCURVE",
"245 135 CURVE",
"245 296 LINE SMOOTH",
"245 349 OFFCURVE",
"264 369 OFFCURVE",
"313 369 CURVE SMOOTH",
"350 369 OFFCURVE",
"382 365 OFFCURVE",
"412 356 CURVE",
"429 494 LINE",
"398 505 OFFCURVE",
"317 515 OFFCURVE",
"258 515 CURVE SMOOTH",
"100 515 OFFCURVE",
"30 433 OFFCURVE",
"30 250 CURVE SMOOTH",
"30 67 OFFCURVE",
"101 -15 OFFCURVE",
"258 -15 CURVE SMOOTH"
);
}
);
width = 449;
}
);
leftKerningGroup = o;
leftMetricsKey = o;
rightKerningGroup = c;
rightMetricsKey = "=o-20";
unicode = 0063;
},
{
color = 10;
glyphname = d;
layers = (
{
anchors = (
{
name = bottom;
position = "{298, 0}";
},
{
name = center;
position = "{445, 585}";
},
{
name = top;
position = "{298, 500}";
},
{
name = topright;
position = "{545, 500}";
}
);
hints = (
{
horizontal = 1;
origin = "{0, 5}";
target = "{1, 4}";
},
{
horizontal = 1;
origin = "{0, 11}";
target = "{1, 8}";
},
{
origin = "{0, 2}";
target = "{1, 4}";
},
{
origin = "{2, 0}";
target = "{2, 4}";
},
{
horizontal = 1;
origin = "{0, 5}";
target = up;
type = BottomGhost;
},
{
horizontal = 1;
origin = "{0, 11}";
target = down;
type = TopGhost;
}
);
layerId = "6DB5A621-F658-4304-B48E-115D54993538";
paths = (
{
closed = 1;
nodes = (
"96 515 OFFCURVE",
"30 434 OFFCURVE",
"30 250 CURVE SMOOTH",
"30 66 OFFCURVE",
"96 -15 OFFCURVE",
"245 -15 CURVE SMOOTH",
"393 -15 OFFCURVE",
"460 68 OFFCURVE",
"460 250 CURVE SMOOTH",
"460 432 OFFCURVE",
"393 515 OFFCURVE",
"245 515 CURVE SMOOTH"
);
},
{
closed = 1;
nodes = (
"345 163 LINE SMOOTH",
"345 142 OFFCURVE",
"336 135 OFFCURVE",
"306 135 CURVE SMOOTH",
"245 135 LINE",
"245 337 LINE SMOOTH",
"245 358 OFFCURVE",
"254 365 OFFCURVE",
"284 365 CURVE SMOOTH",
"345 365 LINE"
);
},
{
closed = 1;
nodes = (
"345 650 LINE",
"345 135 LINE",
"445 0 LINE",
"545 0 LINE",
"545 665 LINE"
);
}
);
width = 595;
}
);
leftKerningGroup = o;
leftMetricsKey = o;
rightKerningGroup = l;
rightMetricsKey = "=|h";
unicode = 0064;
},
{
color = 10;
glyphname = eth;
layers = (
{
components = (
{
name = slashshortcomb;
transform = "{1, 0, 0, 1, 231, 236}";
}
);
hints = (
{
horizontal = 1;
origin = "{0, 11}";
target = "{1, 9}";
},
{
horizontal = 1;
origin = "{1, 3}";
target = "{0, 5}";
},
{
origin = "{0, 8}";
target = "{1, 9}";
},
{
origin = "{1, 5}";
target = "{0, 2}";
},
{
horizontal = 1;
origin = "{0, 11}";
target = up;
type = BottomGhost;
}
);
layerId = "6DB5A621-F658-4304-B48E-115D54993538";
paths = (
{
closed = 1;
nodes = (
"477 -15 OFFCURVE",
"560 69 OFFCURVE",
"560 255 CURVE SMOOTH",
"560 295 LINE",
"438 445 LINE",
"295 445 LINE SMOOTH",
"112 445 OFFCURVE",
"30 373 OFFCURVE",
"30 215 CURVE SMOOTH",
"30 57 OFFCURVE",
"113 -15 OFFCURVE",
"295 -15 CURVE SMOOTH"
);
},
{
closed = 1;
nodes = (
"245 267 LINE SMOOTH",
"245 288 OFFCURVE",
"254 295 OFFCURVE",
"284 295 CURVE SMOOTH",
"345 295 LINE",
"345 163 LINE SMOOTH",
"345 142 OFFCURVE",
"336 135 OFFCURVE",
"306 135 CURVE SMOOTH",
"245 135 LINE"
);
},
{
closed = 1;
nodes = (
"560 295 LINE",
"560 437 OFFCURVE",
"505 614 OFFCURVE",
"431 711 CURVE",
"247 659 LINE",
"322 556 OFFCURVE",
"365 422 OFFCURVE",
"365 295 CURVE"
);
}
);
width = 592;
}
);
leftKerningGroup = eth;
rightKerningGroup = eth;
unicode = 00F0;
},
{
color = 10;
glyphname = e;
layers = (
{
anchors = (
{
name = bottom;
position = "{275, 0}";
},
{
name = ogonek;
position = "{517, 19}";
},
{
name = top;
position = "{295, 500}";
}
);
hints = (
{
horizontal = 1;
origin = "{0, 33}";
target = "{0, 6}";
},
{
horizontal = 1;
origin = "{0, 20}";
target = "{0, 19}";
},
{
horizontal = 1;
origin = "{0, 27}";
target = "{0, 13}";
},
{
origin = "{0, 30}";
target = "{0, 9}";
},
{
origin = "{0, 15}";
target = "{0, 24}";
},
{
horizontal = 1;
origin = "{0, 33}";
target = up;
type = BottomGhost;
},
{
horizontal = 1;
origin = "{0, 27}";
target = down;
type = TopGhost;
}
);
layerId = "6DB5A621-F658-4304-B48E-115D54993538";
paths = (
{
closed = 1;
nodes = (
"373 -15 OFFCURVE",
"447 -4 OFFCURVE",
"517 19 CURVE",
"493 157 LINE",
"431 140 OFFCURVE",
"372 131 OFFCURVE",
"315 131 CURVE SMOOTH",
"281 131 OFFCURVE",
"261 132 OFFCURVE",
"245 135 CURVE",
"245 332 LINE SMOOTH",
"245 361 OFFCURVE",
"262 370 OFFCURVE",
"314 370 CURVE SMOOTH",
"350 370 LINE",
"350 322 LINE SMOOTH",
"350 290 OFFCURVE",
"333 280 OFFCURVE",
"281 280 CURVE SMOOTH",
"215 280 LINE",
"215 180 LINE",
"245 180 LINE SMOOTH",
"454 180 OFFCURVE",
"530 224 OFFCURVE",
"530 345 CURVE SMOOTH",
"530 475 OFFCURVE",
"475 515 OFFCURVE",
"295 515 CURVE SMOOTH",
"113 515 OFFCURVE",
"30 433 OFFCURVE",
"30 250 CURVE SMOOTH",
"30 68 OFFCURVE",
"113 -15 OFFCURVE",
"295 -15 CURVE"
);
}
);
width = 570;
}
);
leftKerningGroup = o;
leftMetricsKey = o;
rightKerningGroup = e;
rightMetricsKey = "=o+10";
unicode = 0065;
},
{
color = 10;
glyphname = f;
layers = (
{
hints = (
{
horizontal = 1;
origin = "{1, 0}";
target = "{1, 1}";
},
{
origin = "{0, 9}";
target = "{0, 10}";
},
{
horizontal = 1;
origin = "{0, 0}";
target = "{0, 5}";
},
{
horizontal = 1;
origin = "{0, 9}";
target = up;
type = BottomGhost;
},
{
horizontal = 1;
origin = "{0, 5}";
target = down;
type = TopGhost;
}
);
layerId = "6DB5A621-F658-4304-B48E-115D54993538";
paths = (
{
closed = 1;
nodes = (
"280 552 LINE",
"362 544 LINE",
"373 665 LINE",
"329 672 OFFCURVE",
"294 675 OFFCURVE",
"263 675 CURVE SMOOTH",
"132 675 OFFCURVE",
"85 631 OFFCURVE",
"80 500 CURVE",
"80 0 LINE",
"280 0 LINE"
);
},
{
closed = 1;
nodes = (
"30 500 LINE",
"30 371 LINE",
"340 371 LINE",
"340 500 LINE"
);
}
);
width = 358;
}
);
leftKerningGroup = f;
rightKerningGroup = f;
unicode = 0066;
},
{
color = 10;
glyphname = g;
layers = (
{
anchors = (
{
name = bottom;
position = "{277, -175}";
},
{
name = top;
position = "{274, 500}";
}
);
hints = (
{
horizontal = 1;
origin = "{2, 19}";
target = "{2, 12}";
},
{
horizontal = 1;
place = "{148, 64}";
},
{
horizontal = 1;
origin = "{1, 3}";
target = "{0, 5}";
},
{
origin = "{0, 8}";
target = "{1, 9}";
},
{
origin = "{2, 9}";
target = "{2, 22}";
},
{
origin = "{1, 5}";
target = "{0, 2}";
},
{
horizontal = 1;
origin = "{0, 5}";
target = down;
type = TopGhost;
}
);
layerId = "6DB5A621-F658-4304-B48E-115D54993538";
paths = (
{
closed = 1;
nodes = (
"429 143 OFFCURVE",
"501 199 OFFCURVE",
"501 329 CURVE SMOOTH",
"501 459 OFFCURVE",
"429 515 OFFCURVE",
"262 515 CURVE SMOOTH",
"98 515 OFFCURVE",
"25 457 OFFCURVE",
"25 329 CURVE SMOOTH",
"25 201 OFFCURVE",
"98 143 OFFCURVE",
"262 143 CURVE SMOOTH"
);
},
{
closed = 1;
nodes = (
"215 381 LINE SMOOTH",
"215 406 OFFCURVE",
"223 413 OFFCURVE",
"247 413 CURVE SMOOTH",
"311 413 LINE",
"311 277 LINE SMOOTH",
"311 254 OFFCURVE",
"302 245 OFFCURVE",
"277 245 CURVE SMOOTH",
"215 245 LINE"
);
},
{
closed = 1;
nodes = (
"507 67 OFFCURVE",
"463 99 OFFCURVE",
"315 120 CURVE",
"319 170 LINE",
"189 172 LINE",
"152 61 LINE",
"152 36 OFFCURVE",
"202 22 OFFCURVE",
"327 12 CURVE",
"327 -24 LINE",
"297 -27 OFFCURVE",
"269 -29 OFFCURVE",
"237 -29 CURVE SMOOTH",
"178 -29 OFFCURVE",
"119 -20 OFFCURVE",
"59 -3 CURVE",
"35 -141 LINE",
"113 -164 OFFCURVE",
"194 -175 OFFCURVE",
"277 -175 CURVE SMOOTH",
"436 -175 OFFCURVE",
"507 -127 OFFCURVE",
"507 -20 CURVE SMOOTH"
);
},
{
closed = 1;
nodes = (
"543 485 LINE",
"448 576 LINE",
"348 499 LINE",
"449 362 LINE"
);
}
);
width = 548;
}
);
leftKerningGroup = g;
rightKerningGroup = g;
unicode = 0067;
},
{
color = 10;
glyphname = h;
layers = (
{
anchors = (
{
name = bottom;
position = "{298, 0}";
},
{
name = center;
position = "{150, 564}";
},
{
name = top;
position = "{150, 645}";
}
);
hints = (
{
horizontal = 1;
origin = "{0, 17}";
target = up;
type = BottomGhost;
},
{
horizontal = 1;
origin = "{0, 11}";
target = "{0, 4}";
},
{
origin = "{0, 17}";
target = "{0, 0}";
},
{
origin = "{0, 6}";
target = "{0, 7}";
},
{
horizontal = 1;
origin = "{0, 17}";
target = up;
type = BottomGhost;
},
{
horizontal = 1;
origin = "{0, 11}";
target = down;
type = TopGhost;
}
);
layerId = "6DB5A621-F658-4304-B48E-115D54993538";
paths = (
{
closed = 1;
nodes = (
"250 0 LINE",
"250 308 LINE SMOOTH",
"250 340 OFFCURVE",
"267 350 OFFCURVE",
"319 350 CURVE SMOOTH",
"350 350 LINE",
"350 0 LINE",
"550 0 LINE",
"550 400 LINE SMOOTH",
"550 472 OFFCURVE",
"494 515 OFFCURVE",
"400 515 CURVE SMOOTH",
"342 515 OFFCURVE",
"288 504 OFFCURVE",
"246 482 CURVE",
"246 665 LINE",
"50 650 LINE",
"50 0 LINE"
);
}
);
width = 595;
}
);
leftKerningGroup = h;
leftMetricsKey = n;
rightKerningGroup = n;
rightMetricsKey = n;
unicode = 0068;
},
{
color = 10;
glyphname = idotless;
layers = (
{
anchors = (
{
name = bottom;
position = "{150, 0}";
},
{
name = ogonek;
position = "{250, 0}";
},
{
name = top;
position = "{150, 500}";
}
);
hints = (
{
horizontal = 1;
origin = "{0, 2}";
target = down;
type = TopGhost;
},
{
origin = "{0, 0}";
target = "{0, 1}";
},
{
horizontal = 1;
origin = "{0, 0}";
target = up;
type = BottomGhost;
},
{
horizontal = 1;
origin = "{0, 0}";
target = up;
type = BottomGhost;
},
{
horizontal = 1;
origin = "{0, 2}";
target = down;
type = TopGhost;
}
);
layerId = "6DB5A621-F658-4304-B48E-115D54993538";
paths = (
{
closed = 1;
nodes = (
"50 0 LINE",
"250 0 LINE",
"250 500 LINE",
"50 475 LINE"
);
}
);
width = 300;
}
);
leftKerningGroup = idotless;
rightKerningGroup = idotless;
unicode = 0131;
},
{
color = 10;
glyphname = jdotless;
layers = (
{
anchors = (
{
name = bottom;
position = "{150, 0}";
},
{
name = top;
position = "{150, 500}";
}
);
hints = (
{
horizontal = 1;
origin = "{0, 12}";
target = "{0, 8}";
},
{
origin = "{0, 5}";
target = "{0, 2}";
},
{
horizontal = 1;
origin = "{0, 12}";
target = up;
type = BottomGhost;
},
{
horizontal = 1;
origin = "{0, 3}";
target = down;
type = TopGhost;
}
);
layerId = "6DB5A621-F658-4304-B48E-115D54993538";
paths = (
{
closed = 1;
nodes = (
"197 -180 OFFCURVE",
"250 -127 OFFCURVE",
"250 -11 CURVE SMOOTH",
"250 500 LINE",
"50 475 LINE",
"50 25 LINE SMOOTH",
"50 -25 OFFCURVE",
"31 -39 OFFCURVE",
"-40 -39 CURVE",
"-49 -164 LINE",
"-11 -174 OFFCURVE",
"39 -180 OFFCURVE",
"81 -180 CURVE SMOOTH"
);
}
);
width = 300;
}
);
leftKerningGroup = jdotless;
rightKerningGroup = jdotless;
unicode = 0237;
},
{
color = 10;
glyphname = k;
layers = (
{
anchors = (
{
name = bottom;
position = "{288, 0}";
},
{
name = top;
position = "{288, 500}";
}
);
hints = (
{
horizontal = 1;
origin = "{0, 9}";
target = up;
type = BottomGhost;
},
{
horizontal = 1;
origin = "{0, 11}";
target = "{0, 6}";
},
{
origin = "{0, 9}";
target = "{0, 10}";
},
{
horizontal = 1;
origin = "{0, 7}";
target = down;
type = TopGhost;
},
{
horizontal = 1;
origin = "{0, 4}";
target = down;
type = TopGhost;
}
);
layerId = "6DB5A621-F658-4304-B48E-115D54993538";
paths = (
{
closed = 1;
nodes = (
"361 0 LINE",
"570 0 LINE",
"449 262 LINE",
"565 500 LINE",
"354 500 LINE",
"282 326 LINE",
"250 326 LINE",
"250 665 LINE",
"50 650 LINE",
"50 0 LINE",
"250 0 LINE",
"250 207 LINE",
"284 207 LINE"
);
}
);
width = 575;
}
);
leftKerningGroup = h;
leftMetricsKey = n;
rightKerningGroup = k;
unicode = 006B;
},
{
color = 10;
glyphname = kgreenlandic;
layers = (
{
anchors = (
{
name = bottom;
position = "{300, 0}";
},
{
name = top;
position = "{300, 500}";
}
);
hints = (
{
horizontal = 1;
origin = "{0, 11}";
target = "{0, 6}";
},
{
origin = "{0, 9}";
target = "{0, 10}";
},
{
horizontal = 1;
origin = "{0, 9}";
target = up;
type = BottomGhost;
},
{
horizontal = 1;
origin = "{0, 8}";
target = down;
type = TopGhost;
}
);
layerId = "6DB5A621-F658-4304-B48E-115D54993538";
paths = (
{
closed = 1;
nodes = (
"366 0 LINE",
"575 0 LINE",
"454 250 LINE",
"570 500 LINE",
"359 500 LINE",
"287 314 LINE",
"250 314 LINE",
"250 500 LINE",
"50 500 LINE",
"50 0 LINE",
"250 0 LINE",
"250 195 LINE",
"289 195 LINE"
);
}
);
width = 580;
}
);
leftKerningGroup = h;
leftMetricsKey = n;
rightKerningGroup = k;
unicode = 0138;
},
{
color = 10;
glyphname = l;
layers = (
{
anchors = (
{
name = bottom;
position = "{150, 0}";
},
{
name = center;
position = "{150, 330}";
},
{
name = top;
position = "{150, 645}";
},
{
name = topright;
position = "{250, 500}";
}
);
hints = (
{
origin = "{0, 2}";
target = "{0, 12}";
},
{
horizontal = 1;
origin = "{0, 5}";
target = "{0, 9}";
},
{
horizontal = 1;
origin = "{0, 5}";
target = up;
type = BottomGhost;
},
{
horizontal = 1;
origin = "{0, 0}";
target = down;
type = TopGhost;
}
);
layerId = "6DB5A621-F658-4304-B48E-115D54993538";
paths = (
{
closed = 1;
nodes = (
"250 665 LINE",
"50 650 LINE",
"50 94 LINE SMOOTH",
"50 19 OFFCURVE",
"91 -15 OFFCURVE",
"179 -15 CURVE SMOOTH",
"212 -15 OFFCURVE",
"250 -9 OFFCURVE",
"290 1 CURVE",
"299 136 LINE",
"286 137 OFFCURVE",
"270 139 OFFCURVE",
"250 143 CURVE"
);
}
);
width = 309;
}
);
leftKerningGroup = h;
rightKerningGroup = l;
unicode = 006C;
},
{
color = 10;
glyphname = m;
layers = (
{
hints = (
{
horizontal = 1;
origin = "{0, 17}";
target = up;
type = BottomGhost;
},
{
horizontal = 1;
origin = "{0, 11}";
target = "{0, 4}";
},
{
horizontal = 1;
origin = "{0, 16}";
target = down;
type = TopGhost;
},
{
origin = "{0, 17}";
target = "{0, 0}";
},
{
origin = "{0, 6}";
target = "{0, 7}";
},
{
origin = "{1, 6}";
target = "{1, 7}";
}
);
layerId = "6DB5A621-F658-4304-B48E-115D54993538";
paths = (
{
closed = 1;
nodes = (
"250 0 LINE",
"250 322 LINE SMOOTH",
"250 342 OFFCURVE",
"261 350 OFFCURVE",
"289 350 CURVE SMOOTH",
"340 350 LINE",
"340 0 LINE",
"540 0 LINE",
"540 400 LINE SMOOTH",
"540 472 OFFCURVE",
"484 515 OFFCURVE",
"390 515 CURVE SMOOTH",
"324 515 OFFCURVE",
"258 492 OFFCURVE",
"200 450 CURVE",
"150 500 LINE",
"50 500 LINE",
"50 0 LINE"
);
},
{
closed = 1;
nodes = (
"540 0 LINE",
"540 322 LINE SMOOTH",
"540 342 OFFCURVE",
"551 350 OFFCURVE",
"579 350 CURVE SMOOTH",
"630 350 LINE",
"630 0 LINE",
"830 0 LINE",
"830 400 LINE SMOOTH",
"830 472 OFFCURVE",
"774 515 OFFCURVE",
"680 515 CURVE SMOOTH",
"614 515 OFFCURVE",
"548 492 OFFCURVE",
"490 450 CURVE",
"340 500 LINE",
"340 0 LINE"
);
}
);
width = 875;
}
);
leftKerningGroup = n;
leftMetricsKey = n;
rightKerningGroup = n;
rightMetricsKey = n;
unicode = 006D;
},
{
color = 10;
glyphname = n;
layers = (
{
anchors = (
{
name = bottom;
position = "{298, 0}";
},
{
name = top;
position = "{308, 500}";
}
);
hints = (
{
horizontal = 1;
origin = "{0, 11}";
target = "{0, 4}";
},
{
horizontal = 1;
origin = "{0, 16}";
target = down;
type = TopGhost;
},
{
origin = "{0, 17}";
target = "{0, 0}";
},
{
origin = "{0, 6}";
target = "{0, 7}";
},
{
horizontal = 1;
origin = "{0, 17}";
target = up;
type = BottomGhost;
}
);
layerId = "6DB5A621-F658-4304-B48E-115D54993538";
paths = (
{
closed = 1;
nodes = (
"250 0 LINE",
"250 322 LINE SMOOTH",
"250 342 OFFCURVE",
"261 350 OFFCURVE",
"289 350 CURVE SMOOTH",
"350 350 LINE",
"350 0 LINE",
"550 0 LINE",
"550 400 LINE SMOOTH",
"550 472 OFFCURVE",
"494 515 OFFCURVE",
"400 515 CURVE SMOOTH",
"327 515 OFFCURVE",
"258 493 OFFCURVE",
"200 450 CURVE",
"150 500 LINE",
"50 500 LINE",
"50 0 LINE"
);
}
);
width = 595;
}
);
leftKerningGroup = n;
rightKerningGroup = n;
unicode = 006E;
},
{
color = 1;
glyphname = eng;
layers = (
{
components = (
{
name = n;
}
);
hints = (
{
horizontal = 1;
origin = "{0, 12}";
target = "{0, 8}";
},
{
origin = "{0, 5}";
target = "{0, 2}";
},
{
horizontal = 1;
origin = "{0, 12}";
target = up;
type = BottomGhost;
}
);
layerId = "6DB5A621-F658-4304-B48E-115D54993538";
paths = (
{
closed = 1;
nodes = (
"497 -180 OFFCURVE",
"550 -127 OFFCURVE",
"550 -11 CURVE SMOOTH",
"550 50 LINE",
"350 50 LINE",
"350 0 LINE SMOOTH",
"350 -50 OFFCURVE",
"331 -64 OFFCURVE",
"260 -64 CURVE",
"251 -164 LINE",
"291 -174 OFFCURVE",
"341 -180 OFFCURVE",
"381 -180 CURVE SMOOTH"
);
}
);
width = 595;
}
);
leftKerningGroup = n;
leftMetricsKey = n;
rightKerningGroup = n;
rightMetricsKey = n;
unicode = 014B;
},
{
color = 10;
glyphname = o;
layers = (
{
anchors = (
{
name = bottom;
position = "{295, 0}";
},
{
name = center;
position = "{295, 250}";
},
{
name = ogonek;
position = "{412, 0}";
},
{
name = top;
position = "{295, 500}";
},
{
name = topright;
position = "{570, 500}";
}
);
hints = (
{
horizontal = 1;
origin = "{0, 11}";
target = "{1, 9}";
},
{
horizontal = 1;
origin = "{0, 5}";
target = "{1, 3}";
},
{
origin = "{0, 8}";
target = "{1, 9}";
},
{
origin = "{1, 5}";
target = "{0, 2}";
},
{
horizontal = 1;
origin = "{0, 11}";
target = up;
type = BottomGhost;
},
{
horizontal = 1;
origin = "{0, 5}";
target = down;
type = TopGhost;
}
);
layerId = "6DB5A621-F658-4304-B48E-115D54993538";
paths = (
{
closed = 1;
nodes = (
"478 -15 OFFCURVE",
"560 68 OFFCURVE",
"560 250 CURVE SMOOTH",
"560 433 OFFCURVE",
"478 515 OFFCURVE",
"295 515 CURVE SMOOTH",
"113 515 OFFCURVE",
"30 433 OFFCURVE",
"30 250 CURVE SMOOTH",
"30 68 OFFCURVE",
"113 -15 OFFCURVE",
"295 -15 CURVE SMOOTH"
);
},
{
closed = 1;
nodes = (
"245 337 LINE SMOOTH",
"245 358 OFFCURVE",
"254 365 OFFCURVE",
"284 365 CURVE SMOOTH",
"345 365 LINE",
"345 163 LINE SMOOTH",
"345 142 OFFCURVE",
"336 135 OFFCURVE",
"306 135 CURVE SMOOTH",
"245 135 LINE"
);
}
);
width = 590;
}
);
leftKerningGroup = o;
rightKerningGroup = o;
unicode = 006F;
},
{
color = 1;
glyphname = oslash;
layers = (
{
anchors = (
{
name = _center;
position = "{295, 250}";
},
{
name = bottom;
position = "{295, 0}";
},
{
name = top;
position = "{295, 500}";
}
);
components = (
{
name = o;
}
);
layerId = "6DB5A621-F658-4304-B48E-115D54993538";
paths = (
{
closed = 1;
nodes = (
"172 68 LINE",
"93 -103 LINE",
"144 -103 LINE SMOOTH",
"167 -103 OFFCURVE",
"177 -100 OFFCURVE",
"187 -78 CURVE SMOOTH",
"254 69 LINE"
);
},
{
closed = 1;
nodes = (
"418 431 LINE",
"497 602 LINE",
"446 602 LINE SMOOTH",
"423 602 OFFCURVE",
"413 599 OFFCURVE",
"403 577 CURVE SMOOTH",
"336 430 LINE"
);
}
);
width = 590;
}
);
leftKerningGroup = o;
rightKerningGroup = o;
unicode = 00F8;
},
{
color = 10;
glyphname = oe;
layers = (
{
anchors = (
{
name = bottom;
position = "{443, 0}";
},
{
name = top;
position = "{443, 500}";
}
);
hints = (
{
horizontal = 1;
origin = "{2, 20}";
target = "{2, 19}";
},
{
horizontal = 1;
origin = "{2, 27}";
target = "{2, 13}";
},
{
horizontal = 1;
origin = "{2, 33}";
target = "{2, 6}";
},
{
place = "{65, 105}";
},
{
origin = "{2, 15}";
target = "{2, 24}";
},
{
origin = "{2, 30}";
target = "{2, 9}";
},
{
horizontal = 1;
origin = "{0, 11}";
target = up;
type = BottomGhost;
},
{
horizontal = 1;
origin = "{0, 5}";
target = down;
type = TopGhost;
}
);
layerId = "6DB5A621-F658-4304-B48E-115D54993538";
paths = (
{
closed = 1;
nodes = (
"464 -15 OFFCURVE",
"540 68 OFFCURVE",
"540 250 CURVE SMOOTH",
"540 433 OFFCURVE",
"464 515 OFFCURVE",
"295 515 CURVE SMOOTH",
"113 515 OFFCURVE",
"30 433 OFFCURVE",
"30 250 CURVE SMOOTH",
"30 68 OFFCURVE",
"113 -15 OFFCURVE",
"295 -15 CURVE SMOOTH"
);
},
{
closed = 1;
nodes = (
"245 337 LINE SMOOTH",
"245 358 OFFCURVE",
"254 365 OFFCURVE",
"284 365 CURVE SMOOTH",
"345 365 LINE",
"345 163 LINE SMOOTH",
"345 142 OFFCURVE",
"336 135 OFFCURVE",
"306 135 CURVE SMOOTH",
"245 135 LINE"
);
},
{
closed = 1;
nodes = (
"686 -15 OFFCURVE",
"760 -4 OFFCURVE",
"832 19 CURVE",
"808 157 LINE",
"748 140 OFFCURVE",
"689 131 OFFCURVE",
"630 131 CURVE SMOOTH",
"601 131 OFFCURVE",
"578 132 OFFCURVE",
"560 135 CURVE",
"560 332 LINE SMOOTH",
"560 361 OFFCURVE",
"577 370 OFFCURVE",
"629 370 CURVE SMOOTH",
"665 370 LINE",
"665 322 LINE SMOOTH",
"665 290 OFFCURVE",
"648 280 OFFCURVE",
"596 280 CURVE SMOOTH",
"530 280 LINE",
"530 180 LINE",
"560 180 LINE SMOOTH",
"769 180 OFFCURVE",
"845 224 OFFCURVE",
"845 345 CURVE SMOOTH",
"845 475 OFFCURVE",
"790 515 OFFCURVE",
"610 515 CURVE SMOOTH",
"441 515 OFFCURVE",
"365 433 OFFCURVE",
"365 250 CURVE SMOOTH",
"365 67 OFFCURVE",
"441 -15 OFFCURVE",
"610 -15 CURVE"
);
}
);
width = 885;
}
);
leftKerningGroup = o;
leftMetricsKey = o;
rightKerningGroup = e;
rightMetricsKey = e;
unicode = 0153;
},
{
color = 10;
glyphname = p;
layers = (
{
hints = (
{
horizontal = 1;
origin = "{0, 11}";
target = "{1, 9}";
},
{
horizontal = 1;
origin = "{0, 5}";
target = "{1, 3}";
},
{
horizontal = 1;
origin = "{0, 5}";
target = down;
type = TopGhost;
},
{
origin = "{2, 4}";
target = "{2, 0}";
},
{
origin = "{1, 5}";
target = "{0, 2}";
},
{
horizontal = 1;
origin = "{2, 4}";
target = up;
type = BottomGhost;
},
{
horizontal = 1;
origin = "{0, 11}";
target = up;
type = BottomGhost;
}
);
layerId = "6DB5A621-F658-4304-B48E-115D54993538";
paths = (
{
closed = 1;
nodes = (
"499 -15 OFFCURVE",
"565 66 OFFCURVE",
"565 250 CURVE SMOOTH",
"565 434 OFFCURVE",
"499 515 OFFCURVE",
"350 515 CURVE SMOOTH",
"202 515 OFFCURVE",
"135 432 OFFCURVE",
"135 250 CURVE SMOOTH",
"135 68 OFFCURVE",
"202 -15 OFFCURVE",
"350 -15 CURVE SMOOTH"
);
},
{
closed = 1;
nodes = (
"250 337 LINE SMOOTH",
"250 358 OFFCURVE",
"259 365 OFFCURVE",
"289 365 CURVE SMOOTH",
"350 365 LINE",
"350 163 LINE SMOOTH",
"350 142 OFFCURVE",
"341 135 OFFCURVE",
"311 135 CURVE SMOOTH",
"250 135 LINE"
);
},
{
closed = 1;
nodes = (
"250 -150 LINE",
"250 365 LINE",
"150 500 LINE",
"50 500 LINE",
"50 -165 LINE"
);
}
);
width = 595;
}
);
leftKerningGroup = p;
leftMetricsKey = n;
rightKerningGroup = o;
rightMetricsKey = o;
unicode = 0070;
},
{
color = 10;
glyphname = thorn;
layers = (
{
hints = (
{
horizontal = 1;
origin = "{0, 11}";
target = "{1, 9}";
},
{
horizontal = 1;
origin = "{0, 5}";
target = "{1, 3}";
},
{
horizontal = 1;
place = "{650, -20}";
target = down;
type = TopGhost;
},
{
origin = "{2, 3}";
target = "{2, 0}";
},
{
origin = "{1, 5}";
target = "{0, 2}";
},
{
horizontal = 1;
origin = "{0, 11}";
target = up;
type = BottomGhost;
},
{
horizontal = 1;
origin = "{0, 5}";
target = down;
type = TopGhost;
}
);
layerId = "6DB5A621-F658-4304-B48E-115D54993538";
paths = (
{
closed = 1;
nodes = (
"499 -15 OFFCURVE",
"565 66 OFFCURVE",
"565 250 CURVE SMOOTH",
"565 434 OFFCURVE",
"499 515 OFFCURVE",
"350 515 CURVE SMOOTH",
"202 515 OFFCURVE",
"135 432 OFFCURVE",
"135 250 CURVE SMOOTH",
"135 68 OFFCURVE",
"202 -15 OFFCURVE",
"350 -15 CURVE SMOOTH"
);
},
{
closed = 1;
nodes = (
"250 337 LINE SMOOTH",
"250 358 OFFCURVE",
"259 365 OFFCURVE",
"289 365 CURVE SMOOTH",
"350 365 LINE",
"350 163 LINE SMOOTH",
"350 142 OFFCURVE",
"341 135 OFFCURVE",
"311 135 CURVE SMOOTH",
"250 135 LINE"
);
},
{
closed = 1;
nodes = (
"250 -150 LINE",
"250 665 LINE",
"50 650 LINE",
"50 -165 LINE"
);
}
);
width = 595;
}
);
leftKerningGroup = p;
leftMetricsKey = n;
rightKerningGroup = o;
rightMetricsKey = o;
unicode = 00FE;
},
{
color = 10;
glyphname = q;
layers = (
{
hints = (
{
horizontal = 1;
origin = "{0, 11}";
target = "{1, 9}";
},
{
horizontal = 1;
origin = "{0, 5}";
target = "{1, 3}";
},
{
horizontal = 1;
origin = "{0, 5}";
target = "{1, 3}";
},
{
origin = "{0, 8}";
target = "{1, 9}";
},
{
origin = "{2, 3}";
target = "{2, 4}";
},
{
horizontal = 1;
origin = "{0, 11}";
target = up;
type = BottomGhost;
},
{
horizontal = 1;
origin = "{0, 5}";
target = down;
type = TopGhost;
}
);
layerId = "6DB5A621-F658-4304-B48E-115D54993538";
paths = (
{
closed = 1;
nodes = (
"393 -15 OFFCURVE",
"460 68 OFFCURVE",
"460 250 CURVE SMOOTH",
"460 432 OFFCURVE",
"393 515 OFFCURVE",
"245 515 CURVE SMOOTH",
"96 515 OFFCURVE",
"30 434 OFFCURVE",
"30 250 CURVE SMOOTH",
"30 66 OFFCURVE",
"96 -15 OFFCURVE",
"245 -15 CURVE SMOOTH"
);
},
{
closed = 1;
nodes = (
"245 337 LINE SMOOTH",
"245 358 OFFCURVE",
"254 365 OFFCURVE",
"284 365 CURVE SMOOTH",
"345 365 LINE",
"345 163 LINE SMOOTH",
"345 142 OFFCURVE",
"336 135 OFFCURVE",
"306 135 CURVE SMOOTH",
"245 135 LINE"
);
},
{
closed = 1;
nodes = (
"545 500 LINE",
"445 500 LINE",
"345 365 LINE",
"345 -165 LINE",
"545 -150 LINE"
);
}
);
width = 595;
}
);
leftKerningGroup = o;
leftMetricsKey = o;
rightKerningGroup = q;
rightMetricsKey = "=|n";
unicode = 0071;
},
{
color = 10;
glyphname = r;
layers = (
{
anchors = (
{
name = bottom;
position = "{150, 0}";
},
{
name = top;
position = "{195, 500}";
}
);
hints = (
{
origin = "{0, 1}";
target = "{0, 2}";
},
{
horizontal = 1;
origin = "{0, 7}";
target = "{0, 6}";
},
{
horizontal = 1;
origin = "{0, 1}";
target = up;
type = BottomGhost;
},
{
horizontal = 1;
origin = "{0, 0}";
target = down;
type = TopGhost;
}
);
layerId = "6DB5A621-F658-4304-B48E-115D54993538";
paths = (
{
closed = 1;
nodes = (
"50 500 LINE",
"50 0 LINE",
"250 0 LINE",
"250 281 LINE",
"271 296 OFFCURVE",
"334 318 OFFCURVE",
"365 321 CURVE",
"353 515 LINE",
"293 502 OFFCURVE",
"244 475 OFFCURVE",
"205 434 CURVE",
"150 500 LINE"
);
}
);
width = 370;
}
);
leftKerningGroup = n;
leftMetricsKey = n;
rightKerningGroup = r;
unicode = 0072;
},
{
color = 10;
glyphname = s;
layers = (
{
anchors = (
{
name = bottom;
position = "{261, 0}";
},
{
name = top;
position = "{256, 500}";
}
);
hints = (
{
horizontal = 1;
origin = "{0, 13}";
target = "{0, 6}";
},
{
horizontal = 1;
origin = "{0, 30}";
target = "{0, 23}";
},
{
horizontal = 1;
origin = "{0, 30}";
target = down;
type = TopGhost;
},
{
origin = "{0, 33}";
target = "{0, 19}";
},
{
origin = "{0, 3}";
target = "{0, 16}";
},
{
horizontal = 1;
origin = "{0, 13}";
target = up;
type = BottomGhost;
},
{
horizontal = 1;
origin = "{0, 30}";
target = down;
type = TopGhost;
}
);
layerId = "6DB5A621-F658-4304-B48E-115D54993538";
paths = (
{
closed = 1;
nodes = (
"32 235 OFFCURVE",
"87 198 OFFCURVE",
"281 179 CURVE",
"281 140 LINE",
"252 135 OFFCURVE",
"227 132 OFFCURVE",
"210 132 CURVE SMOOTH",
"149 132 OFFCURVE",
"98 142 OFFCURVE",
"50 163 CURVE",
"25 19 LINE",
"84 -2 OFFCURVE",
"166 -15 OFFCURVE",
"244 -15 CURVE SMOOTH",
"419 -15 OFFCURVE",
"496 37 OFFCURVE",
"496 156 CURVE SMOOTH",
"496 259 OFFCURVE",
"430 303 OFFCURVE",
"247 322 CURVE",
"247 358 LINE",
"266 364 OFFCURVE",
"300 368 OFFCURVE",
"331 368 CURVE SMOOTH",
"377 368 OFFCURVE",
"415 364 OFFCURVE",
"448 355 CURVE",
"471 493 LINE",
"407 507 OFFCURVE",
"331 515 OFFCURVE",
"255 515 CURVE SMOOTH",
"102 515 OFFCURVE",
"32 462 OFFCURVE",
"32 346 CURVE SMOOTH"
);
}
);
width = 521;
}
);
leftKerningGroup = s;
rightKerningGroup = s;
unicode = 0073;
},
{
color = 10;
glyphname = germandbls;
layers = (
{
hints = (
{
horizontal = 1;
origin = "{0, 43}";
target = "{0, 36}";
},
{
horizontal = 1;
origin = "{0, 15}";
target = "{0, 16}";
},
{
horizontal = 1;
origin = "{0, 23}";
target = "{0, 11}";
},
{
origin = "{0, 18}";
target = "{0, 19}";
},
{
origin = "{0, 33}";
target = "{0, 2}";
},
{
origin = "{0, 26}";
target = "{0, 8}";
},
{
horizontal = 1;
origin = "{0, 18}";
target = up;
type = BottomGhost;
},
{
horizontal = 1;
origin = "{0, 43}";
target = up;
type = BottomGhost;
},
{
horizontal = 1;
origin = "{0, 11}";
target = down;
type = TopGhost;
}
);
layerId = "6DB5A621-F658-4304-B48E-115D54993538";
paths = (
{
closed = 1;
nodes = (
"590 -15 OFFCURVE",
"660 41 OFFCURVE",
"660 151 CURVE SMOOTH",
"660 244 OFFCURVE",
"621 295 OFFCURVE",
"510 344 CURVE",
"565 413 OFFCURVE",
"585 458 OFFCURVE",
"585 515 CURVE SMOOTH",
"585 617 OFFCURVE",
"496 675 OFFCURVE",
"340 675 CURVE SMOOTH",
"163 675 OFFCURVE",
"97 631 OFFCURVE",
"80 500 CURVE",
"30 500 LINE",
"30 371 LINE",
"80 371 LINE",
"80 0 LINE",
"280 0 LINE",
"280 524 LINE",
"288 527 OFFCURVE",
"297 528 OFFCURVE",
"315 528 CURVE SMOOTH",
"362 528 OFFCURVE",
"385 510 OFFCURVE",
"385 474 CURVE SMOOTH",
"385 425 OFFCURVE",
"312 385 OFFCURVE",
"312 320 CURVE SMOOTH",
"312 256 OFFCURVE",
"337 235 OFFCURVE",
"460 196 CURVE",
"460 136 LINE",
"459 133 OFFCURVE",
"449 132 OFFCURVE",
"422 132 CURVE SMOOTH",
"400 132 OFFCURVE",
"373 135 OFFCURVE",
"336 143 CURVE",
"311 -1 LINE",
"330 -9 OFFCURVE",
"392 -15 OFFCURVE",
"454 -15 CURVE SMOOTH"
);
}
);
width = 685;
}
);
leftKerningGroup = h;
leftMetricsKey = f;
rightKerningGroup = germandbls;
rightMetricsKey = s;
unicode = 00DF;
},
{
color = 10;
glyphname = t;
layers = (
{
anchors = (
{
name = bottom;
position = "{182, 0}";
},
{
name = center;
position = "{170, 255}";
},
{
name = top;
position = "{170, 625}";
},
{
name = topright;
position = "{299, 500}";
}
);
hints = (
{
horizontal = 1;
origin = "{0, 12}";
target = "{0, 3}";
},
{
horizontal = 1;
origin = "{1, 2}";
target = "{1, 3}";
},
{
horizontal = 1;
origin = "{0, 7}";
target = down;
type = TopGhost;
},
{
origin = "{0, 9}";
target = "{0, 6}";
},
{
horizontal = 1;
origin = "{0, 12}";
target = up;
type = BottomGhost;
},
{
horizontal = 1;
origin = "{0, 7}";
target = down;
type = TopGhost;
}
);
layerId = "6DB5A621-F658-4304-B48E-115D54993538";
paths = (
{
closed = 1;
nodes = (
"234 -15 OFFCURVE",
"274 -10 OFFCURVE",
"320 1 CURVE",
"329 136 LINE",
"312 137 OFFCURVE",
"292 139 OFFCURVE",
"270 143 CURVE",
"270 630 LINE",
"70 580 LINE",
"70 94 LINE SMOOTH",
"70 19 OFFCURVE",
"111 -15 OFFCURVE",
"199 -15 CURVE SMOOTH"
);
},
{
closed = 1;
nodes = (
"339 371 LINE",
"339 500 LINE",
"20 500 LINE",
"20 371 LINE"
);
}
);
width = 364;
}
);
leftKerningGroup = t;
rightKerningGroup = t;
unicode = 0074;
},
{
color = 10;
glyphname = u;
layers = (
{
anchors = (
{
name = bottom;
position = "{298, 0}";
},
{
name = ogonek;
position = "{545, 0}";
},
{
name = top;
position = "{298, 500}";
},
{
name = topright;
position = "{545, 500}";
}
);
hints = (
{
horizontal = 1;
origin = "{0, 11}";
target = "{0, 5}";
},
{
horizontal = 1;
origin = "{0, 7}";
target = down;
type = TopGhost;
},
{
origin = "{0, 8}";
target = "{0, 5}";
},
{
origin = "{0, 1}";
target = "{0, 16}";
},
{
horizontal = 1;
origin = "{0, 7}";
target = down;
type = TopGhost;
},
{
horizontal = 1;
origin = "{0, 11}";
target = up;
type = BottomGhost;
}
);
layerId = "6DB5A621-F658-4304-B48E-115D54993538";
paths = (
{
closed = 1;
nodes = (
"345 500 LINE",
"345 148 LINE SMOOTH",
"345 128 OFFCURVE",
"334 120 OFFCURVE",
"306 120 CURVE SMOOTH",
"245 120 LINE",
"245 500 LINE",
"45 500 LINE",
"45 130 LINE SMOOTH",
"45 29 OFFCURVE",
"91 -15 OFFCURVE",
"195 -15 CURVE SMOOTH",
"268 -15 OFFCURVE",
"337 7 OFFCURVE",
"395 50 CURVE",
"445 0 LINE",
"545 0 LINE",
"545 500 LINE"
);
}
);
width = 595;
}
);
leftKerningGroup = u;
leftMetricsKey = "=|n";
rightKerningGroup = u;
rightMetricsKey = "=|n";
unicode = 0075;
},
{
color = 10;
glyphname = v;
layers = (
{
hints = (
{
horizontal = 1;
origin = "{0, 0}";
target = "{0, 5}";
},
{
horizontal = 1;
origin = "{0, 0}";
target = up;
type = BottomGhost;
},
{
horizontal = 1;
origin = "{0, 7}";
target = down;
type = TopGhost;
}
);
layerId = "6DB5A621-F658-4304-B48E-115D54993538";
paths = (
{
closed = 1;
nodes = (
"117 0 LINE",
"417 0 LINE",
"531 500 LINE",
"336 500 LINE",
"272 175 LINE",
"262 175 LINE",
"198 500 LINE",
"3 500 LINE"
);
}
);
width = 534;
}
);
leftKerningGroup = v;
rightKerningGroup = v;
unicode = 0076;
},
{
color = 10;
glyphname = w;
layers = (
{
anchors = (
{
name = bottom;
position = "{400, 0}";
},
{
name = top;
position = "{400, 500}";
}
);
hints = (
{
horizontal = 1;
origin = "{1, 7}";
target = "{1, 4}";
},
{
horizontal = 1;
origin = "{1, 7}";
target = up;
type = BottomGhost;
},
{
horizontal = 1;
origin = "{1, 6}";
target = down;
type = TopGhost;
}
);
layerId = "6DB5A621-F658-4304-B48E-115D54993538";
paths = (
{
closed = 1;
nodes = (
"703 0 LINE",
"797 500 LINE",
"602 500 LINE",
"553 175 LINE",
"543 175 LINE",
"484 500 LINE",
"339 500 LINE",
"438 0 LINE"
);
},
{
closed = 1;
nodes = (
"362 0 LINE",
"461 500 LINE",
"316 500 LINE",
"257 175 LINE",
"247 175 LINE",
"198 500 LINE",
"3 500 LINE",
"97 0 LINE"
);
}
);
width = 800;
}
);
leftKerningGroup = w;
rightKerningGroup = w;
unicode = 0077;
},
{
color = 10;
glyphname = x;
layers = (
{
hints = (
{
horizontal = 1;
origin = "{1, 3}";
target = up;
type = BottomGhost;
},
{
horizontal = 1;
origin = "{0, 2}";
target = down;
type = TopGhost;
}
);
layerId = "6DB5A621-F658-4304-B48E-115D54993538";
paths = (
{
closed = 1;
nodes = (
"559 0 LINE",
"225 500 LINE",
"3 500 LINE",
"337 0 LINE"
);
},
{
closed = 1;
nodes = (
"217 0 LINE",
"310 170 LINE",
"191 308 LINE",
"3 0 LINE"
);
},
{
closed = 1;
nodes = (
"559 500 LINE",
"345 500 LINE",
"252 330 LINE",
"365 182 LINE"
);
}
);
width = 562;
}
);
leftKerningGroup = x;
rightKerningGroup = x;
unicode = 0078;
},
{
color = 10;
glyphname = y;
layers = (
{
anchors = (
{
name = bottom;
position = "{262, -180}";
},
{
name = top;
position = "{262, 500}";
}
);
hints = (
{
horizontal = 1;
origin = "{0, 7}";
target = "{0, 4}";
},
{
horizontal = 1;
origin = "{1, 12}";
target = "{1, 8}";
},
{
horizontal = 1;
origin = "{1, 12}";
target = up;
type = BottomGhost;
},
{
horizontal = 1;
origin = "{0, 6}";
target = down;
type = TopGhost;
}
);
layerId = "6DB5A621-F658-4304-B48E-115D54993538";
paths = (
{
closed = 1;
nodes = (
"412 50 LINE",
"521 500 LINE",
"326 500 LINE",
"267 225 LINE",
"257 225 LINE",
"198 500 LINE",
"3 500 LINE",
"112 50 LINE"
);
},
{
closed = 1;
nodes = (
"304 -180 OFFCURVE",
"371 -123 OFFCURVE",
"412 50 CURVE",
"229 50 LINE",
"227 40 LINE SMOOTH",
"215 -23 OFFCURVE",
"205 -37 OFFCURVE",
"150 -44 CURVE SMOOTH",
"30 -59 LINE",
"21 -164 LINE",
"54 -174 OFFCURVE",
"99 -180 OFFCURVE",
"141 -180 CURVE SMOOTH"
);
}
);
width = 524;
}
);
leftKerningGroup = y;
rightKerningGroup = y;
unicode = 0079;
},
{
color = 10;
glyphname = z;
layers = (
{
anchors = (
{
name = bottom;
position = "{265, 0}";
},
{
name = top;
position = "{275, 500}";
}
);
hints = (
{
horizontal = 1;
origin = "{0, 1}";
target = "{0, 4}";
},
{
horizontal = 1;
origin = "{0, 8}";
target = "{0, 9}";
},
{
horizontal = 1;
origin = "{0, 1}";
target = up;
type = BottomGhost;
},
{
horizontal = 1;
origin = "{0, 8}";
target = down;
type = TopGhost;
}
);
layerId = "6DB5A621-F658-4304-B48E-115D54993538";
paths = (
{
closed = 1;
nodes = (
"35 110 LINE",
"35 0 LINE",
"495 0 LINE",
"495 144 LINE",
"290 144 LINE",
"287 150 LINE",
"488 390 LINE",
"488 500 LINE",
"50 500 LINE",
"63 356 LINE",
"233 356 LINE",
"236 350 LINE"
);
}
);
width = 530;
}
);
leftKerningGroup = z;
rightKerningGroup = z;
unicode = 007A;
},
{
color = 10;
glyphname = ordfeminine;
layers = (
{
components = (
{
name = strokeshortcomb;
transform = "{1.1, 0, 0, 1, 10, -59}";
}
);
hints = (
{
horizontal = 1;
origin = "{0, 12}";
target = "{0, 15}";
},
{
horizontal = 1;
origin = "{0, 8}";
},
{
horizontal = 1;
place = "{662, 62}";
},
{
origin = "{0, 12}";
target = "{0, 24}";
},
{
origin = "{0, 30}";
target = "{0, 3}";
}
);
layerId = "6DB5A621-F658-4304-B48E-115D54993538";
paths = (
{
closed = 1;
nodes = (
"198 338 OFFCURVE",
"245 356 OFFCURVE",
"285 389 CURVE",
"326 350 LINE",
"410 350 LINE",
"410 612 LINE SMOOTH",
"410 708 OFFCURVE",
"352 752 OFFCURVE",
"226 752 CURVE SMOOTH",
"159 752 OFFCURVE",
"96 744 OFFCURVE",
"32 725 CURVE",
"52 610 LINE",
"106 623 OFFCURVE",
"158 631 OFFCURVE",
"210 631 CURVE SMOOTH",
"223 631 OFFCURVE",
"234 630 OFFCURVE",
"243 628 CURVE",
"243 478 LINE SMOOTH",
"243 457 OFFCURVE",
"230 450 OFFCURVE",
"190 450 CURVE SMOOTH",
"168 450 LINE",
"168 490 LINE SMOOTH",
"168 512 OFFCURVE",
"180 520 OFFCURVE",
"220 520 CURVE SMOOTH",
"267 520 LINE",
"267 592 LINE",
"217 592 LINE SMOOTH",
"73 592 OFFCURVE",
"13 557 OFFCURVE",
"13 473 CURVE SMOOTH",
"13 381 OFFCURVE",
"56 338 OFFCURVE",
"153 338 CURVE SMOOTH"
);
}
);
width = 433;
}
);
leftKerningGroup = ordfeminine;
leftMetricsKey = "=a/2";
rightKerningGroup = ordfeminine;
rightMetricsKey = "=a/2";
unicode = 00AA;
userData = {
RMXScaler = {
source = a;
};
};
},
{
color = 10;
glyphname = ordmasculine;
layers = (
{
components = (
{
name = strokeshortcomb;
transform = "{1.2, 0, 0, 1, 43, -55}";
}
);
hints = (
{
horizontal = 1;
place = "{695, 0}";
},
{
horizontal = 1;
place = "{705, 62}";
},
{
origin = "{0, 8}";
target = "{1, 0}";
},
{
origin = "{0, 5}";
target = "{0, 5}";
}
);
layerId = "6DB5A621-F658-4304-B48E-115D54993538";
paths = (
{
closed = 1;
nodes = (
"420 348 OFFCURVE",
"489 416 OFFCURVE",
"489 560 CURVE SMOOTH",
"489 704 OFFCURVE",
"420 772 OFFCURVE",
"265 772 CURVE SMOOTH",
"111 772 OFFCURVE",
"42 705 OFFCURVE",
"42 560 CURVE SMOOTH",
"42 416 OFFCURVE",
"111 348 OFFCURVE",
"265 348 CURVE SMOOTH"
);
},
{
closed = 1;
nodes = (
"221 625 LINE SMOOTH",
"221 642 OFFCURVE",
"228 647 OFFCURVE",
"254 647 CURVE SMOOTH",
"310 647 LINE",
"310 495 LINE SMOOTH",
"310 478 OFFCURVE",
"302 473 OFFCURVE",
"276 473 CURVE SMOOTH",
"221 473 LINE"
);
}
);
width = 531;
}
);
leftKerningGroup = ordmasculine;
rightKerningGroup = ordmasculine;
unicode = 00BA;
userData = {
RMXScaler = {
source = o;
};
};
},
{
color = 10;
glyphname = Omega;
layers = (
{
layerId = "6DB5A621-F658-4304-B48E-115D54993538";
paths = (
{
closed = 1;
nodes = (
"413 483 LINE SMOOTH",
"458 483 OFFCURVE",
"472 471 OFFCURVE",
"472 433 CURVE SMOOTH",
"472 230 LINE",
"413 230 LINE",
"428 0 LINE",
"694 0 LINE",
"694 123 LINE",
"551 132 LINE",
"551 156 LINE",
"646 176 OFFCURVE",
"687 250 OFFCURVE",
"687 375 CURVE SMOOTH",
"687 556 OFFCURVE",
"585 640 OFFCURVE",
"363 640 CURVE SMOOTH",
"141 640 OFFCURVE",
"39 556 OFFCURVE",
"39 375 CURVE SMOOTH",
"39 250 OFFCURVE",
"80 176 OFFCURVE",
"175 156 CURVE",
"175 132 LINE",
"32 123 LINE",
"32 0 LINE",
"298 0 LINE",
"313 230 LINE",
"268 230 OFFCURVE",
"254 242 OFFCURVE",
"254 280 CURVE SMOOTH",
"254 483 LINE"
);
}
);
width = 726;
}
);
leftKerningGroup = uni03A9;
rightKerningGroup = uni03A9;
unicode = 03A9;
},
{
color = 10;
glyphname = pi;
layers = (
{
layerId = "6DB5A621-F658-4304-B48E-115D54993538";
paths = (
{
closed = 1;
nodes = (
"225 0 LINE",
"281 312 LINE SMOOTH",
"286 339 OFFCURVE",
"299 349 OFFCURVE",
"325 349 CURVE SMOOTH",
"535 351 LINE SMOOTH",
"608 352 OFFCURVE",
"630 393 OFFCURVE",
"630 529 CURVE",
"483 536 LINE",
"482 521 OFFCURVE",
"480 509 OFFCURVE",
"477 500 CURVE",
"45 500 LINE",
"45 378 LINE",
"98 366 LINE",
"73 0 LINE"
);
},
{
closed = 1;
nodes = (
"514 -15 OFFCURVE",
"552 -9 OFFCURVE",
"592 1 CURVE",
"601 136 LINE",
"588 137 OFFCURVE",
"572 139 OFFCURVE",
"552 143 CURVE",
"552 423 LINE",
"352 423 LINE",
"352 94 LINE SMOOTH",
"352 19 OFFCURVE",
"393 -15 OFFCURVE",
"481 -15 CURVE SMOOTH"
);
}
);
width = 657;
}
);
leftKerningGroup = pi;
rightKerningGroup = pi;
unicode = 03C0;
},
{
color = 4;
glyphname = "hamza-ar";
layers = (
{
anchors = (
{
name = bottom;
position = "{218, 0}";
},
{
name = top;
position = "{218, 500}";
}
);
color = 1;
hints = (
{
horizontal = 1;
origin = "{0, 6}";
target = "{0, 7}";
},
{
origin = "{0, 10}";
target = "{0, 2}";
}
);
layerId = "6DB5A621-F658-4304-B48E-115D54993538";
paths = (
{
closed = 1;
nodes = (
"257 209 OFFCURVE",
"248 222 OFFCURVE",
"248 245 CURVE SMOOTH",
"248 296 LINE",
"275 309 OFFCURVE",
"333 324 OFFCURVE",
"377 324 CURVE",
"377 504 LINE",
"188 504 OFFCURVE",
"88 431 OFFCURVE",
"88 284 CURVE SMOOTH",
"88 233 OFFCURVE",
"98 192 OFFCURVE",
"115 171 CURVE",
"20 146 LINE",
"20 -23 LINE",
"426 86 LINE",
"426 255 LINE",
"290 218 LINE SMOOTH"
);
}
);
width = 456;
}
);
unicode = 0621;
},
{
color = 4;
glyphname = "alef-ar";
layers = (
{
anchors = (
{
name = bottom;
position = "{150, -80}";
},
{
name = top;
position = "{150, 730}";
}
);
hints = (
{
horizontal = 1;
origin = "{0, 3}";
target = up;
type = BottomGhost;
},
{
horizontal = 1;
origin = "{0, 2}";
target = down;
type = TopGhost;
},
{
origin = "{0, 3}";
target = "{0, 0}";
},
{
horizontal = 1;
origin = "{0, 3}";
target = up;
type = BottomGhost;
},
{
horizontal = 1;
origin = "{0, 2}";
target = down;
type = TopGhost;
}
);
layerId = "6DB5A621-F658-4304-B48E-115D54993538";
paths = (
{
closed = 1;
nodes = (
"230 0 LINE",
"230 630 LINE",
"70 630 LINE",
"70 0 LINE"
);
}
);
width = 300;
}
);
unicode = 0627;
},
{
color = 4;
glyphname = "alef-ar.fina";
layers = (
{
anchors = (
{
name = bottom;
position = "{150, -80}";
},
{
name = entry;
position = "{300, 90}";
},
{
name = top;
position = "{150, 730}";
}
);
hints = (
{
horizontal = 1;
origin = "{0, 5}";
target = "{0, 2}";
},
{
horizontal = 1;
origin = "{0, 4}";
target = down;
type = TopGhost;
},
{
origin = "{0, 5}";
target = "{0, 2}";
},
{
horizontal = 1;
origin = "{0, 4}";
target = down;
type = TopGhost;
},
{
horizontal = 1;
origin = "{0, 5}";
target = up;
type = BottomGhost;
}
);
layerId = "6DB5A621-F658-4304-B48E-115D54993538";
paths = (
{
closed = 1;
nodes = (
"320 0 LINE",
"320 180 LINE",
"230 180 LINE",
"230 630 LINE",
"70 630 LINE",
"70 0 LINE"
);
}
);
width = 300;
}
);
unicode = FE8E;
},
{
color = 4;
glyphname = "alef-ar.short";
layers = (
{
anchors = (
{
name = bottom;
position = "{150, -80}";
},
{
name = top;
position = "{150, 550}";
}
);
hints = (
{
horizontal = 1;
origin = "{0, 3}";
target = up;
type = BottomGhost;
},
{
horizontal = 1;
origin = "{0, 2}";
target = down;
type = TopGhost;
},
{
origin = "{0, 3}";
target = "{0, 0}";
}
);
layerId = "6DB5A621-F658-4304-B48E-115D54993538";
paths = (
{
closed = 1;
nodes = (
"230 0 LINE",
"230 470 LINE",
"70 470 LINE",
"70 0 LINE"
);
}
);
width = 300;
}
);
},
{
color = 4;
glyphname = "alef-ar.fina.short";
layers = (
{
anchors = (
{
name = bottom;
position = "{150, -80}";
},
{
name = entry;
position = "{300, 90}";
},
{
name = top;
position = "{150, 550}";
}
);
hints = (
{
horizontal = 1;
origin = "{0, 5}";
target = "{0, 2}";
},
{
horizontal = 1;
origin = "{0, 4}";
target = down;
type = TopGhost;
},
{
origin = "{0, 5}";
target = "{0, 2}";
},
{
horizontal = 1;
origin = "{0, 5}";
target = up;
type = BottomGhost;
}
);
layerId = "6DB5A621-F658-4304-B48E-115D54993538";
paths = (
{
closed = 1;
nodes = (
"320 0 LINE",
"320 180 LINE",
"230 180 LINE",
"230 470 LINE",
"70 470 LINE",
"70 0 LINE"
);
}
);
width = 300;
}
);
},
{
color = 4;
glyphname = "dotlessbeh-ar";
layers = (
{
anchors = (
{
name = bottom;
position = "{459, -80}";
},
{
name = top;
position = "{459, 450}";
}
);
hints = (
{
horizontal = 1;
origin = "{0, 17}";
target = "{0, 4}";
},
{
horizontal = 1;
origin = "{0, 2}";
target = down;
type = TopGhost;
},
{
origin = "{0, 14}";
target = "{0, 7}";
},
{
origin = "{0, 3}";
target = "{0, 0}";
}
);
layerId = "6DB5A621-F658-4304-B48E-115D54993538";
paths = (
{
closed = 1;
nodes = (
"854 0 LINE",
"854 470 LINE",
"694 470 LINE",
"694 180 LINE",
"223 180 LINE",
"213 205 OFFCURVE",
"210 233 OFFCURVE",
"210 272 CURVE SMOOTH",
"210 314 OFFCURVE",
"219 355 OFFCURVE",
"236 400 CURVE",
"82 424 LINE",
"60 359 OFFCURVE",
"50 292 OFFCURVE",
"50 223 CURVE SMOOTH",
"50 69 OFFCURVE",
"106 0 OFFCURVE",
"229 0 CURVE"
);
}
);
width = 924;
}
);
unicode = 066E;
},
{
color = 4;
glyphname = "dotlessbeh-ar.fina";
layers = (
{
anchors = (
{
name = bottom;
position = "{459, -80}";
},
{
name = entry;
position = "{924, 90}";
},
{
name = top;
position = "{459, 450}";
}
);
components = (
{
name = "dotlessbeh-ar";
}
);
hints = (
{
horizontal = 1;
origin = "{0, 0}";
target = "{0, 3}";
}
);
layerId = "6DB5A621-F658-4304-B48E-115D54993538";
paths = (
{
closed = 1;
nodes = (
"834 0 LINE",
"944 0 LINE",
"944 180 LINE",
"834 180 LINE"
);
}
);
width = 924;
}
);
leftMetricsKey = "=dotlessbeh-ar";
},
{
color = 4;
glyphname = "dotlessbeh-ar.medi";
layers = (
{
anchors = (
{
name = bottom;
position = "{210, -80}";
},
{
name = entry;
position = "{360, 90}";
},
{
name = exit;
position = "{0, 90}";
},
{
name = top;
position = "{210, 550}";
}
);
color = 5;
hints = (
{
horizontal = 1;
origin = "{0, 4}";
target = "{0, 3}";
},
{
horizontal = 1;
origin = "{0, 1}";
target = down;
type = TopGhost;
},
{
origin = "{0, 2}";
target = "{0, 7}";
}
);
layerId = "6DB5A621-F658-4304-B48E-115D54993538";
paths = (
{
closed = 1;
nodes = (
"290 470 LINE",
"130 470 LINE",
"130 180 LINE",
"-20 180 LINE",
"-20 0 LINE",
"380 0 LINE",
"380 180 LINE",
"290 180 LINE"
);
}
);
width = 360;
}
);
},
{
color = 4;
glyphname = "dotlessbeh-ar.init";
layers = (
{
anchors = (
{
name = bottom;
position = "{210, -80}";
},
{
name = exit;
position = "{0, 90}";
},
{
name = top;
position = "{210, 550}";
}
);
color = 5;
hints = (
{
horizontal = 1;
origin = "{0, 5}";
target = "{0, 4}";
},
{
horizontal = 1;
origin = "{0, 2}";
target = down;
type = TopGhost;
},
{
origin = "{0, 3}";
target = "{0, 0}";
}
);
layerId = "6DB5A621-F658-4304-B48E-115D54993538";
paths = (
{
closed = 1;
nodes = (
"290 0 LINE",
"290 470 LINE",
"130 470 LINE",
"130 180 LINE",
"-20 180 LINE",
"-20 0 LINE"
);
}
);
width = 360;
}
);
},
{
color = 0;
glyphname = "tcheh-ar";
layers = (
{
anchors = (
{
name = bottom;
position = "{270, -420}";
},
{
name = top;
position = "{299, 573}";
}
);
color = 1;
components = (
{
alignment = -1;
name = "threedotsdownbelow-ar";
transform = "{0.8, 0, 0, 0.8, 271, 97}";
}
);
hints = (
{
horizontal = 1;
origin = "{0, 16}";
target = "{0, 2}";
},
{
horizontal = 1;
origin = "{0, 9}";
target = "{0, 10}";
},
{
horizontal = 1;
origin = "{1, 7}";
target = "{1, 14}";
},
{
origin = "{0, 13}";
target = "{0, 5}";
}
);
layerId = "6DB5A621-F658-4304-B48E-115D54993538";
paths = (
{
closed = 1;
nodes = (
"292 -112 OFFCURVE",
"266 -115 OFFCURVE",
"243 -115 CURVE SMOOTH",
"227 -115 OFFCURVE",
"212 -114 OFFCURVE",
"202 -111 CURVE",
"202 18 LINE SMOOTH",
"202 80 OFFCURVE",
"329 110 OFFCURVE",
"591 110 CURVE",
"535 270 LINE",
"184 270 OFFCURVE",
"42 182 OFFCURVE",
"42 -37 CURVE SMOOTH",
"42 -222 OFFCURVE",
"85 -295 OFFCURVE",
"239 -295 CURVE SMOOTH",
"266 -295 OFFCURVE",
"295 -290 OFFCURVE",
"328 -279 CURVE",
"310 -107 LINE"
);
},
{
closed = 1;
nodes = (
"388 148 OFFCURVE",
"461 110 OFFCURVE",
"591 110 CURVE",
"591 270 LINE",
"535 270 LINE",
"485 420 OFFCURVE",
"385 485 OFFCURVE",
"205 485 CURVE SMOOTH",
"165 485 OFFCURVE",
"120 482 OFFCURVE",
"54 474 CURVE",
"78 297 LINE",
"121 303 OFFCURVE",
"152 305 OFFCURVE",
"179 305 CURVE SMOOTH",
"267 305 OFFCURVE",
"322 283 OFFCURVE",
"350 236 CURVE SMOOTH"
);
}
);
width = 600;
}
);
unicode = 0686;
},
{
color = 0;
glyphname = "tcheh-ar.fina";
layers = (
{
anchors = (
{
name = bottom;
position = "{420, -297}";
},
{
name = entry;
position = "{772, 90}";
},
{
name = top;
position = "{449, 573}";
}
);
color = 1;
components = (
{
alignment = -1;
name = "threedotsdownbelow-ar";
transform = "{0.8, 0, 0, 0.8, 271, 97}";
}
);
hints = (
{
horizontal = 1;
origin = "{1, 16}";
target = "{1, 2}";
},
{
horizontal = 1;
origin = "{0, 17}";
target = "{0, 20}";
},
{
horizontal = 1;
origin = "{1, 9}";
target = "{1, 10}";
},
{
horizontal = 1;
origin = "{0, 3}";
target = "{0, 10}";
},
{
origin = "{1, 13}";
target = "{1, 5}";
}
);
layerId = "6DB5A621-F658-4304-B48E-115D54993538";
paths = (
{
closed = 1;
nodes = (
"675 270 LINE SMOOTH",
"622 422 OFFCURVE",
"528 485 OFFCURVE",
"355 485 CURVE SMOOTH",
"315 485 OFFCURVE",
"268 482 OFFCURVE",
"204 474 CURVE",
"228 297 LINE",
"274 302 OFFCURVE",
"318 305 OFFCURVE",
"359 305 CURVE SMOOTH",
"454 305 OFFCURVE",
"505 275 OFFCURVE",
"532 205 CURVE SMOOTH",
"589 56 LINE SMOOTH",
"604 17 OFFCURVE",
"629 0 OFFCURVE",
"673 0 CURVE SMOOTH",
"792 0 LINE",
"792 180 LINE",
"707 180 LINE"
);
},
{
closed = 1;
nodes = (
"292 -112 OFFCURVE",
"266 -115 OFFCURVE",
"243 -115 CURVE SMOOTH",
"227 -115 OFFCURVE",
"212 -114 OFFCURVE",
"202 -111 CURVE",
"202 18 LINE SMOOTH",
"202 73 OFFCURVE",
"329 100 OFFCURVE",
"591 100 CURVE",
"535 240 LINE",
"184 240 OFFCURVE",
"42 161 OFFCURVE",
"42 -37 CURVE SMOOTH",
"42 -222 OFFCURVE",
"85 -295 OFFCURVE",
"239 -295 CURVE SMOOTH",
"266 -295 OFFCURVE",
"295 -290 OFFCURVE",
"328 -279 CURVE",
"310 -107 LINE"
);
}
);
width = 772;
}
);
unicode = FB7B;
},
{
color = 4;
glyphname = "hah-ar";
layers = (
{
anchors = (
{
name = bottom;
position = "{270, -340}";
},
{
name = center;
position = "{362, -25}";
},
{
name = top;
position = "{299, 573}";
}
);
hints = (
{
horizontal = 1;
origin = "{0, 20}";
target = "{0, 6}";
},
{
horizontal = 1;
origin = "{0, 13}";
target = "{0, 14}";
},
{
horizontal = 1;
origin = "{1, 7}";
target = "{1, 14}";
},
{
origin = "{0, 17}";
target = "{0, 9}";
}
);
layerId = "6DB5A621-F658-4304-B48E-115D54993538";
paths = (
{
closed = 1;
nodes = (
"362 -297 OFFCURVE",
"448 -286 OFFCURVE",
"520 -265 CURVE",
"502 -93 LINE",
"436 -110 OFFCURVE",
"378 -117 OFFCURVE",
"310 -117 CURVE SMOOTH",
"279 -117 OFFCURVE",
"227 -114 OFFCURVE",
"202 -111 CURVE",
"202 18 LINE SMOOTH",
"202 80 OFFCURVE",
"329 110 OFFCURVE",
"591 110 CURVE",
"535 270 LINE",
"184 270 OFFCURVE",
"42 182 OFFCURVE",
"42 -37 CURVE SMOOTH",
"42 -227 OFFCURVE",
"103 -297 OFFCURVE",
"270 -297 CURVE SMOOTH"
);
},
{
closed = 1;
nodes = (
"388 148 OFFCURVE",
"461 110 OFFCURVE",
"591 110 CURVE",
"591 270 LINE",
"535 270 LINE",
"485 420 OFFCURVE",
"385 485 OFFCURVE",
"205 485 CURVE SMOOTH",
"165 485 OFFCURVE",
"120 482 OFFCURVE",
"54 474 CURVE",
"78 297 LINE",
"121 303 OFFCURVE",
"152 305 OFFCURVE",
"179 305 CURVE SMOOTH",
"267 305 OFFCURVE",
"322 283 OFFCURVE",
"350 236 CURVE SMOOTH"
);
}
);
width = 591;
}
);
unicode = 062D;
},
{
color = 4;
glyphname = "hah-ar.fina";
layers = (
{
anchors = (
{
name = bottom;
position = "{270, -350}";
},
{
name = center;
position = "{326, -31}";
},
{
name = entry;
position = "{622, 90}";
},
{
name = top;
position = "{299, 573}";
}
);
color = 1;
hints = (
{
horizontal = 1;
origin = "{0, 20}";
target = "{0, 6}";
},
{
horizontal = 1;
origin = "{1, 17}";
target = "{1, 20}";
},
{
horizontal = 1;
place = "{174, 70}";
},
{
horizontal = 1;
origin = "{1, 3}";
target = "{1, 10}";
},
{
origin = "{0, 17}";
target = "{0, 9}";
}
);
layerId = "6DB5A621-F658-4304-B48E-115D54993538";
paths = (
{
closed = 1;
nodes = (
"362 -297 OFFCURVE",
"448 -286 OFFCURVE",
"520 -265 CURVE",
"502 -93 LINE",
"436 -110 OFFCURVE",
"378 -117 OFFCURVE",
"310 -117 CURVE SMOOTH",
"268 -117 OFFCURVE",
"236 -114 OFFCURVE",
"208 -111 CURVE",
"208 18 LINE SMOOTH",
"208 80 OFFCURVE",
"303 112 OFFCURVE",
"503 118 CURVE",
"456 258 LINE",
"167 245 OFFCURVE",
"38 154 OFFCURVE",
"38 -37 CURVE SMOOTH",
"38 -217 OFFCURVE",
"109 -297 OFFCURVE",
"270 -297 CURVE SMOOTH"
);
},
{
closed = 1;
nodes = (
"525 270 LINE SMOOTH",
"472 422 OFFCURVE",
"378 485 OFFCURVE",
"205 485 CURVE SMOOTH",
"165 485 OFFCURVE",
"118 482 OFFCURVE",
"54 474 CURVE",
"78 297 LINE",
"124 302 OFFCURVE",
"168 305 OFFCURVE",
"209 305 CURVE SMOOTH",
"304 305 OFFCURVE",
"355 275 OFFCURVE",
"382 205 CURVE SMOOTH",
"439 56 LINE SMOOTH",
"454 17 OFFCURVE",
"479 0 OFFCURVE",
"523 0 CURVE SMOOTH",
"642 0 LINE",
"642 180 LINE",
"557 180 LINE"
);
}
);
width = 622;
}
);
unicode = FEA2;
},
{
color = 4;
glyphname = "hah-ar.medi";
layers = (
{
anchors = (
{
name = bottom;
position = "{319, -80}";
},
{
name = entry;
position = "{620, 90}";
},
{
name = exit;
position = "{0, 90}";
},
{
name = top;
position = "{289, 550}";
}
);
hints = (
{
horizontal = 1;
origin = "{1, 4}";
target = "{1, 3}";
},
{
horizontal = 1;
origin = "{0, 3}";
target = "{0, 10}";
}
);
layerId = "6DB5A621-F658-4304-B48E-115D54993538";
paths = (
{
closed = 1;
nodes = (
"525 270 LINE SMOOTH",
"473 419 OFFCURVE",
"382 485 OFFCURVE",
"205 485 CURVE SMOOTH",
"160 485 OFFCURVE",
"110 481 OFFCURVE",
"54 474 CURVE",
"78 297 LINE",
"127 303 OFFCURVE",
"171 305 OFFCURVE",
"209 305 CURVE SMOOTH",
"310 305 OFFCURVE",
"357 271 OFFCURVE",
"382 205 CURVE SMOOTH",
"439 56 LINE SMOOTH",
"454 17 OFFCURVE",
"479 0 OFFCURVE",
"523 0 CURVE SMOOTH",
"642 0 LINE",
"642 180 LINE",
"557 180 LINE"
);
},
{
closed = 1;
nodes = (
"335 239 OFFCURVE",
"294 180 OFFCURVE",
"184 180 CURVE",
"-20 180 LINE",
"-20 0 LINE",
"173 0 LINE SMOOTH",
"315 0 OFFCURVE",
"450 63 OFFCURVE",
"505 270 CURVE",
"356 318 LINE"
);
}
);
width = 620;
}
);
unicode = FEA4;
},
{
color = 4;
glyphname = "hah-ar.init";
layers = (
{
anchors = (
{
name = bottom;
position = "{289, -80}";
},
{
name = exit;
position = "{0, 90}";
},
{
name = top;
position = "{289, 550}";
}
);
hints = (
{
horizontal = 1;
origin = "{1, 4}";
target = "{1, 3}";
},
{
horizontal = 1;
origin = "{0, 15}";
target = "{0, 18}";
},
{
horizontal = 1;
origin = "{0, 2}";
target = "{0, 9}";
}
);
layerId = "6DB5A621-F658-4304-B48E-115D54993538";
paths = (
{
closed = 1;
nodes = (
"452 437 OFFCURVE",
"368 485 OFFCURVE",
"205 485 CURVE SMOOTH",
"160 485 OFFCURVE",
"110 481 OFFCURVE",
"54 474 CURVE",
"78 297 LINE",
"127 303 OFFCURVE",
"171 305 OFFCURVE",
"209 305 CURVE SMOOTH",
"310 305 OFFCURVE",
"357 271 OFFCURVE",
"382 205 CURVE SMOOTH",
"397 166 OFFCURVE",
"422 149 OFFCURVE",
"466 149 CURVE SMOOTH",
"591 149 LINE",
"591 329 LINE",
"500 329 LINE"
);
},
{
closed = 1;
nodes = (
"331 239 OFFCURVE",
"283 180 OFFCURVE",
"154 180 CURVE SMOOTH",
"-20 180 LINE",
"-20 0 LINE",
"143 0 LINE SMOOTH",
"298 0 OFFCURVE",
"445 63 OFFCURVE",
"505 270 CURVE",
"356 318 LINE"
);
}
);
width = 591;
}
);
note = "25-11 cambio de estructura";
unicode = FEA3;
},
{
color = 4;
glyphname = "dal-ar";
layers = (
{
anchors = (
{
name = bottom;
position = "{265, -80}";
},
{
name = top;
position = "{216, 550}";
}
);
color = 1;
hints = (
{
horizontal = 1;
origin = "{0, 16}";
target = "{0, 15}";
},
{
horizontal = 1;
origin = "{0, 11}";
target = "{0, 4}";
}
);
layerId = "6DB5A621-F658-4304-B48E-115D54993538";
paths = (
{
closed = 1;
nodes = (
"491 0 LINE",
"491 140 LINE",
"429 425 OFFCURVE",
"372 491 OFFCURVE",
"186 491 CURVE SMOOTH",
"129 491 OFFCURVE",
"67 484 OFFCURVE",
"24 472 CURVE",
"68 298 LINE",
"103 306 OFFCURVE",
"146 311 OFFCURVE",
"186 311 CURVE SMOOTH",
"255 311 OFFCURVE",
"280 282 OFFCURVE",
"299 180 CURVE",
"20 180 LINE",
"20 0 LINE"
);
}
);
width = 541;
}
);
unicode = 062F;
},
{
color = 4;
glyphname = "dal-ar.fina";
layers = (
{
anchors = (
{
name = bottom;
position = "{285, -80}";
},
{
name = entry;
position = "{541, 90}";
},
{
name = top;
position = "{216, 550}";
}
);
components = (
{
name = "dal-ar";
}
);
hints = (
{
horizontal = 1;
origin = "{0, 0}";
target = "{0, 3}";
},
{
origin = "{0, 0}";
target = "{0, 1}";
}
);
layerId = "6DB5A621-F658-4304-B48E-115D54993538";
paths = (
{
closed = 1;
nodes = (
"451 0 LINE",
"561 0 LINE",
"561 180 LINE",
"451 180 LINE"
);
}
);
width = 541;
}
);
unicode = FEAA;
},
{
color = 4;
glyphname = "reh-ar";
layers = (
{
anchors = (
{
name = bottom;
position = "{126, -330}";
},
{
name = top;
position = "{191, 550}";
}
);
color = 1;
hints = (
{
origin = "{0, 5}";
target = "{0, 2}";
},
{
horizontal = 1;
origin = "{0, 4}";
target = down;
type = TopGhost;
},
{
horizontal = 1;
origin = "{0, 9}";
target = up;
type = BottomGhost;
}
);
layerId = "6DB5A621-F658-4304-B48E-115D54993538";
paths = (
{
closed = 1;
nodes = (
"218 -227 OFFCURVE",
"272 -142 OFFCURVE",
"272 28 CURVE SMOOTH",
"272 470 LINE",
"112 470 LINE",
"112 28 LINE SMOOTH",
"112 -80 OFFCURVE",
"96 -108 OFFCURVE",
"17 -141 CURVE",
"75 -285 LINE"
);
}
);
width = 341;
}
);
unicode = 0631;
},
{
color = 4;
glyphname = "reh-ar.fina";
layers = (
{
anchors = (
{
name = bottom;
position = "{125, -330}";
},
{
name = entry;
position = "{340, 90}";
},
{
name = top;
position = "{190, 550}";
}
);
components = (
{
name = "reh-ar";
}
);
hints = (
{
horizontal = 1;
origin = "{0, 0}";
target = "{0, 3}";
}
);
layerId = "6DB5A621-F658-4304-B48E-115D54993538";
paths = (
{
closed = 1;
nodes = (
"270 0 LINE",
"360 0 LINE",
"360 180 LINE",
"270 180 LINE"
);
}
);
width = 340;
}
);
unicode = FEAE;
},
{
color = 4;
glyphname = "seen-ar";
layers = (
{
anchors = (
{
name = bottom;
position = "{988, -80}";
},
{
name = top;
position = "{888, 550}";
}
);
color = 1;
hints = (
{
horizontal = 1;
origin = "{0, 22}";
target = "{0, 9}";
},
{
horizontal = 1;
origin = "{2, 10}";
target = "{2, 9}";
},
{
origin = "{0, 19}";
target = "{0, 12}";
},
{
origin = "{0, 5}";
target = "{0, 2}";
},
{
origin = "{2, 5}";
target = "{1, 16}";
},
{
origin = "{1, 9}";
target = "{1, 2}";
},
{
horizontal = 1;
origin = "{0, 4}";
target = down;
type = TopGhost;
},
{
horizontal = 1;
origin = "{1, 5}";
target = down;
type = TopGhost;
}
);
layerId = "6DB5A621-F658-4304-B48E-115D54993538";
paths = (
{
closed = 1;
nodes = (
"571 -240 OFFCURVE",
"614 -187 OFFCURVE",
"614 9 CURVE SMOOTH",
"614 380 LINE",
"454 380 LINE",
"454 -7 LINE SMOOTH",
"454 -50 OFFCURVE",
"420 -60 OFFCURVE",
"360 -60 CURVE SMOOTH",
"229 -60 LINE",
"222 -31 OFFCURVE",
"220 -3 OFFCURVE",
"220 39 CURVE SMOOTH",
"220 91 OFFCURVE",
"233 142 OFFCURVE",
"250 197 CURVE",
"91 221 LINE",
"68 153 OFFCURVE",
"60 82 OFFCURVE",
"60 9 CURVE SMOOTH",
"60 -188 OFFCURVE",
"118 -240 OFFCURVE",
"336 -240 CURVE SMOOTH"
);
},
{
closed = 1;
nodes = (
"1230 0 OFFCURVE",
"1322 56 OFFCURVE",
"1322 268 CURVE SMOOTH",
"1322 338 OFFCURVE",
"1315 406 OFFCURVE",
"1292 470 CURVE",
"1133 446 LINE",
"1150 380 OFFCURVE",
"1162 320 OFFCURVE",
"1162 258 CURVE SMOOTH",
"1162 224 OFFCURVE",
"1160 200 OFFCURVE",
"1153 180 CURVE",
"1042 180 LINE SMOOTH",
"995 180 OFFCURVE",
"968 190 OFFCURVE",
"968 233 CURVE SMOOTH",
"968 380 LINE",
"808 380 LINE",
"808 258 LINE SMOOTH",
"808 54 OFFCURVE",
"853 0 OFFCURVE",
"1056 0 CURVE SMOOTH"
);
},
{
closed = 1;
nodes = (
"925 0 OFFCURVE",
"968 54 OFFCURVE",
"968 258 CURVE SMOOTH",
"968 380 LINE",
"808 380 LINE",
"808 233 LINE SMOOTH",
"808 190 OFFCURVE",
"781 180 OFFCURVE",
"734 180 CURVE SMOOTH",
"614 180 LINE",
"614 0 LINE",
"690 0 LINE"
);
}
);
width = 1387;
}
);
unicode = 0633;
},
{
color = 4;
glyphname = "seen-ar.fina";
layers = (
{
anchors = (
{
name = bottom;
position = "{988, -80}";
},
{
name = entry;
position = "{1392, 90}";
},
{
name = top;
position = "{888, 550}";
}
);
color = 1;
components = (
{
name = "seen-ar";
}
);
hints = (
{
horizontal = 1;
origin = "{0, 0}";
target = "{0, 3}";
}
);
layerId = "6DB5A621-F658-4304-B48E-115D54993538";
paths = (
{
closed = 1;
nodes = (
"1056 0 LINE",
"1412 0 LINE",
"1412 180 LINE",
"1231 180 LINE"
);
}
);
width = 1392;
}
);
unicode = FEB2;
},
{
color = 4;
glyphname = "seen-ar.medi";
layers = (
{
anchors = (
{
name = bottom;
position = "{564, -80}";
},
{
name = entry;
position = "{1068, 90}";
},
{
name = exit;
position = "{0, 90}";
},
{
name = top;
position = "{564, 550}";
}
);
color = 1;
hints = (
{
horizontal = 1;
origin = "{2, 4}";
target = "{2, 3}";
},
{
origin = "{2, 2}";
target = "{1, 10}";
},
{
origin = "{1, 5}";
target = "{0, 16}";
},
{
origin = "{0, 9}";
target = "{0, 2}";
},
{
horizontal = 1;
origin = "{2, 1}";
target = down;
type = TopGhost;
},
{
horizontal = 1;
origin = "{0, 5}";
target = down;
type = TopGhost;
}
);
layerId = "6DB5A621-F658-4304-B48E-115D54993538";
paths = (
{
closed = 1;
nodes = (
"903 0 OFFCURVE",
"998 56 OFFCURVE",
"998 268 CURVE SMOOTH",
"998 338 OFFCURVE",
"991 406 OFFCURVE",
"968 470 CURVE",
"809 446 LINE",
"826 380 OFFCURVE",
"838 320 OFFCURVE",
"838 258 CURVE SMOOTH",
"838 224 OFFCURVE",
"836 200 OFFCURVE",
"829 180 CURVE",
"718 180 LINE SMOOTH",
"671 180 OFFCURVE",
"644 190 OFFCURVE",
"644 233 CURVE SMOOTH",
"644 380 LINE",
"484 380 LINE",
"484 258 LINE SMOOTH",
"484 54 OFFCURVE",
"527 0 OFFCURVE",
"722 0 CURVE SMOOTH"
);
},
{
closed = 1;
nodes = (
"601 0 OFFCURVE",
"644 54 OFFCURVE",
"644 258 CURVE SMOOTH",
"644 380 LINE",
"484 380 LINE",
"484 233 LINE SMOOTH",
"484 190 OFFCURVE",
"457 180 OFFCURVE",
"410 180 CURVE SMOOTH",
"290 180 LINE",
"290 0 LINE",
"366 0 LINE"
);
},
{
closed = 1;
nodes = (
"290 380 LINE",
"130 380 LINE",
"130 180 LINE",
"-20 180 LINE",
"-20 0 LINE",
"290 0 LINE"
);
},
{
closed = 1;
nodes = (
"722 0 LINE",
"1088 0 LINE",
"1088 180 LINE",
"907 180 LINE"
);
}
);
width = 1068;
}
);
unicode = FEB4;
},
{
color = 4;
glyphname = "seen-ar.init";
layers = (
{
anchors = (
{
name = bottom;
position = "{564, -80}";
},
{
name = exit;
position = "{0, 90}";
},
{
name = top;
position = "{564, 550}";
}
);
hints = (
{
horizontal = 1;
origin = "{2, 4}";
target = "{2, 3}";
},
{
origin = "{2, 2}";
target = "{1, 10}";
},
{
origin = "{1, 5}";
target = "{0, 16}";
},
{
origin = "{0, 9}";
target = "{0, 2}";
}
);
layerId = "6DB5A621-F658-4304-B48E-115D54993538";
paths = (
{
closed = 1;
nodes = (
"906 0 OFFCURVE",
"998 56 OFFCURVE",
"998 268 CURVE SMOOTH",
"998 338 OFFCURVE",
"991 406 OFFCURVE",
"968 470 CURVE",
"809 446 LINE",
"826 380 OFFCURVE",
"838 320 OFFCURVE",
"838 258 CURVE SMOOTH",
"838 224 OFFCURVE",
"836 200 OFFCURVE",
"829 180 CURVE",
"718 180 LINE SMOOTH",
"671 180 OFFCURVE",
"644 190 OFFCURVE",
"644 233 CURVE SMOOTH",
"644 380 LINE",
"484 380 LINE",
"484 258 LINE SMOOTH",
"484 54 OFFCURVE",
"529 0 OFFCURVE",
"732 0 CURVE SMOOTH"
);
},
{
closed = 1;
nodes = (
"601 0 OFFCURVE",
"644 54 OFFCURVE",
"644 258 CURVE SMOOTH",
"644 380 LINE",
"484 380 LINE",
"484 233 LINE SMOOTH",
"484 190 OFFCURVE",
"457 180 OFFCURVE",
"410 180 CURVE SMOOTH",
"290 180 LINE",
"290 0 LINE",
"366 0 LINE"
);
},
{
closed = 1;
nodes = (
"290 380 LINE",
"130 380 LINE",
"130 180 LINE",
"-20 180 LINE",
"-20 0 LINE",
"290 0 LINE"
);
}
);
width = 1063;
}
);
unicode = FEB3;
},
{
color = 4;
glyphname = "sad-ar";
layers = (
{
anchors = (
{
name = bottom;
position = "{884, -80}";
},
{
name = top;
position = "{884, 550}";
}
);
color = 1;
hints = (
{
horizontal = 1;
origin = "{0, 22}";
target = "{0, 9}";
},
{
horizontal = 1;
origin = "{1, 1}";
target = "{1, 0}";
},
{
horizontal = 1;
origin = "{2, 4}";
target = "{2, 14}";
},
{
horizontal = 1;
origin = "{2, 9}";
target = down;
type = TopGhost;
},
{
origin = "{0, 19}";
target = "{0, 12}";
},
{
origin = "{0, 5}";
target = "{0, 2}";
},
{
origin = "{2, 18}";
target = "{1, 2}";
},
{
horizontal = 1;
origin = "{2, 9}";
target = down;
type = TopGhost;
},
{
horizontal = 1;
origin = "{0, 16}";
target = down;
type = TopGhost;
}
);
layerId = "6DB5A621-F658-4304-B48E-115D54993538";
paths = (
{
closed = 1;
nodes = (
"571 -240 OFFCURVE",
"614 -187 OFFCURVE",
"614 9 CURVE SMOOTH",
"614 124 LINE",
"454 124 LINE",
"454 -7 LINE SMOOTH",
"454 -50 OFFCURVE",
"420 -60 OFFCURVE",
"360 -60 CURVE SMOOTH",
"229 -60 LINE",
"222 -31 OFFCURVE",
"220 -3 OFFCURVE",
"220 39 CURVE SMOOTH",
"220 91 OFFCURVE",
"233 142 OFFCURVE",
"250 197 CURVE",
"91 221 LINE",
"68 153 OFFCURVE",
"60 82 OFFCURVE",
"60 9 CURVE SMOOTH",
"60 -188 OFFCURVE",
"118 -240 OFFCURVE",
"336 -240 CURVE SMOOTH"
);
},
{
closed = 1;
nodes = (
"544 180 LINE",
"544 0 LINE",
"1106 0 LINE",
"1029 180 LINE"
);
},
{
closed = 1;
nodes = (
"1106 0 LINE",
"1106 290 LINE SMOOTH",
"1106 436 OFFCURVE",
"1057 480 OFFCURVE",
"892 480 CURVE SMOOTH",
"768 480 OFFCURVE",
"653 424 OFFCURVE",
"614 344 CURVE",
"614 470 LINE",
"454 470 LINE",
"454 124 LINE",
"614 124 LINE",
"614 240 OFFCURVE",
"686 300 OFFCURVE",
"825 300 CURVE SMOOTH",
"880 300 OFFCURVE",
"924 296 OFFCURVE",
"946 289 CURVE",
"946 0 LINE"
);
}
);
width = 1176;
}
);
unicode = 0635;
},
{
color = 4;
glyphname = "sad-ar.fina";
layers = (
{
anchors = (
{
name = bottom;
position = "{884, -80}";
},
{
name = entry;
position = "{1176, 90}";
},
{
name = top;
position = "{884, 550}";
}
);
color = 1;
components = (
{
name = "sad-ar";
}
);
hints = (
{
horizontal = 1;
origin = "{0, 0}";
target = "{0, 3}";
}
);
layerId = "6DB5A621-F658-4304-B48E-115D54993538";
paths = (
{
closed = 1;
nodes = (
"1106 0 LINE",
"1196 0 LINE",
"1196 180 LINE",
"1106 180 LINE"
);
}
);
width = 1176;
}
);
unicode = FEBA;
},
{
color = 4;
glyphname = "sad-ar.medi";
layers = (
{
anchors = (
{
name = bottom;
position = "{500, -80}";
},
{
name = entry;
position = "{852, 90}";
},
{
name = exit;
position = "{0, 90}";
},
{
name = top;
position = "{500, 550}";
}
);
color = 1;
hints = (
{
horizontal = 1;
origin = "{0, 1}";
target = "{0, 0}";
},
{
horizontal = 1;
origin = "{1, 4}";
target = "{1, 14}";
},
{
horizontal = 1;
origin = "{1, 9}";
target = down;
type = TopGhost;
},
{
origin = "{1, 10}";
target = "{1, 11}";
},
{
origin = "{1, 18}";
target = "{1, 0}";
}
);
layerId = "6DB5A621-F658-4304-B48E-115D54993538";
paths = (
{
closed = 1;
nodes = (
"-20 180 LINE",
"-20 0 LINE",
"872 0 LINE",
"872 180 LINE"
);
},
{
closed = 1;
nodes = (
"782 124 LINE",
"782 290 LINE SMOOTH",
"782 436 OFFCURVE",
"733 480 OFFCURVE",
"568 480 CURVE SMOOTH",
"444 480 OFFCURVE",
"329 424 OFFCURVE",
"290 344 CURVE",
"290 470 LINE",
"130 470 LINE",
"130 124 LINE",
"290 124 LINE",
"290 240 OFFCURVE",
"362 300 OFFCURVE",
"501 300 CURVE SMOOTH",
"556 300 OFFCURVE",
"600 296 OFFCURVE",
"622 289 CURVE",
"622 124 LINE"
);
}
);
width = 852;
}
);
unicode = FEBC;
},
{
color = 4;
glyphname = "sad-ar.init";
layers = (
{
anchors = (
{
name = bottom;
position = "{500, -80}";
},
{
name = exit;
position = "{0, 90}";
},
{
name = top;
position = "{500, 550}";
}
);
color = 1;
hints = (
{
horizontal = 1;
origin = "{0, 1}";
target = "{0, 0}";
},
{
horizontal = 1;
origin = "{1, 4}";
target = "{1, 14}";
},
{
horizontal = 1;
origin = "{1, 9}";
target = down;
type = TopGhost;
},
{
origin = "{1, 10}";
target = "{1, 11}";
},
{
origin = "{1, 18}";
target = "{0, 2}";
}
);
layerId = "6DB5A621-F658-4304-B48E-115D54993538";
paths = (
{
closed = 1;
nodes = (
"-20 180 LINE",
"-20 0 LINE",
"782 0 LINE",
"782 180 LINE"
);
},
{
closed = 1;
nodes = (
"782 0 LINE",
"782 290 LINE SMOOTH",
"782 436 OFFCURVE",
"733 480 OFFCURVE",
"568 480 CURVE SMOOTH",
"444 480 OFFCURVE",
"329 424 OFFCURVE",
"290 344 CURVE",
"290 470 LINE",
"130 470 LINE",
"130 124 LINE",
"290 124 LINE",
"290 240 OFFCURVE",
"362 300 OFFCURVE",
"501 300 CURVE SMOOTH",
"556 300 OFFCURVE",
"600 296 OFFCURVE",
"622 289 CURVE",
"622 0 LINE"
);
}
);
width = 852;
}
);
unicode = FEBB;
},
{
color = 4;
glyphname = "tah-ar";
layers = (
{
anchors = (
{
name = bottom;
position = "{500, -80}";
},
{
name = top;
position = "{500, 550}";
}
);
color = 1;
hints = (
{
horizontal = 1;
origin = "{0, 1}";
target = "{0, 0}";
},
{
horizontal = 1;
origin = "{1, 4}";
target = "{1, 14}";
},
{
horizontal = 1;
origin = "{1, 9}";
target = down;
type = TopGhost;
},
{
origin = "{1, 10}";
target = "{1, 11}";
},
{
origin = "{1, 18}";
target = "{0, 2}";
}
);
layerId = "6DB5A621-F658-4304-B48E-115D54993538";
paths = (
{
closed = 1;
nodes = (
"20 180 LINE",
"20 0 LINE",
"782 0 LINE",
"782 180 LINE"
);
},
{
closed = 1;
nodes = (
"782 0 LINE",
"782 290 LINE SMOOTH",
"782 436 OFFCURVE",
"733 480 OFFCURVE",
"568 480 CURVE SMOOTH",
"444 480 OFFCURVE",
"329 424 OFFCURVE",
"290 344 CURVE",
"290 630 LINE",
"130 630 LINE",
"130 124 LINE",
"290 124 LINE",
"290 240 OFFCURVE",
"362 300 OFFCURVE",
"501 300 CURVE SMOOTH",
"556 300 OFFCURVE",
"600 296 OFFCURVE",
"622 289 CURVE",
"622 0 LINE"
);
}
);
width = 847;
}
);
unicode = 0637;
},
{
color = 4;
glyphname = "tah-ar.fina";
layers = (
{
anchors = (
{
name = bottom;
position = "{452, -80}";
},
{
name = entry;
position = "{852, 90}";
},
{
name = top;
position = "{570, 550}";
}
);
color = 1;
components = (
{
name = "tah-ar";
}
);
hints = (
{
horizontal = 1;
origin = "{0, 0}";
target = "{0, 3}";
}
);
layerId = "6DB5A621-F658-4304-B48E-115D54993538";
paths = (
{
closed = 1;
nodes = (
"782 0 LINE",
"872 0 LINE",
"872 180 LINE",
"782 180 LINE"
);
}
);
width = 852;
}
);
leftMetricsKey = "tah-ar";
unicode = FEC2;
},
{
color = 4;
glyphname = "tah-ar.medi";
layers = (
{
anchors = (
{
name = bottom;
position = "{452, -80}";
},
{
name = entry;
position = "{852, 90}";
},
{
name = exit;
position = "{0, 90}";
},
{
name = top;
position = "{570, 550}";
}
);
color = 1;
hints = (
{
horizontal = 1;
origin = "{0, 1}";
target = "{0, 0}";
},
{
horizontal = 1;
origin = "{1, 4}";
target = "{1, 14}";
},
{
horizontal = 1;
origin = "{1, 9}";
target = down;
type = TopGhost;
},
{
origin = "{1, 10}";
target = "{1, 11}";
},
{
origin = "{1, 18}";
target = "{1, 0}";
}
);
layerId = "6DB5A621-F658-4304-B48E-115D54993538";
paths = (
{
closed = 1;
nodes = (
"-20 180 LINE",
"-20 0 LINE",
"872 0 LINE",
"872 180 LINE"
);
},
{
closed = 1;
nodes = (
"782 0 LINE",
"782 290 LINE SMOOTH",
"782 436 OFFCURVE",
"733 480 OFFCURVE",
"568 480 CURVE SMOOTH",
"444 480 OFFCURVE",
"329 424 OFFCURVE",
"290 344 CURVE",
"290 630 LINE",
"130 630 LINE",
"130 124 LINE",
"290 124 LINE",
"290 240 OFFCURVE",
"362 300 OFFCURVE",
"501 300 CURVE SMOOTH",
"556 300 OFFCURVE",
"600 296 OFFCURVE",
"622 289 CURVE",
"622 0 LINE"
);
}
);
width = 852;
}
);
unicode = FEC4;
},
{
color = 4;
glyphname = "tah-ar.init";
layers = (
{
anchors = (
{
name = bottom;
position = "{452, -80}";
},
{
name = exit;
position = "{0, 90}";
},
{
name = top;
position = "{570, 550}";
}
);
color = 1;
hints = (
{
horizontal = 1;
origin = "{0, 1}";
target = "{0, 0}";
},
{
horizontal = 1;
origin = "{1, 4}";
target = "{1, 14}";
},
{
horizontal = 1;
origin = "{1, 9}";
target = down;
type = TopGhost;
},
{
origin = "{1, 10}";
target = "{1, 11}";
},
{
origin = "{0, 2}";
target = "{1, 0}";
}
);
layerId = "6DB5A621-F658-4304-B48E-115D54993538";
paths = (
{
closed = 1;
nodes = (
"-20 180 LINE",
"-20 0 LINE",
"622 0 LINE",
"622 180 LINE"
);
},
{
closed = 1;
nodes = (
"782 0 LINE",
"782 290 LINE SMOOTH",
"782 436 OFFCURVE",
"733 480 OFFCURVE",
"568 480 CURVE SMOOTH",
"444 480 OFFCURVE",
"329 424 OFFCURVE",
"290 344 CURVE",
"290 630 LINE",
"130 630 LINE",
"130 124 LINE",
"290 124 LINE",
"290 240 OFFCURVE",
"362 300 OFFCURVE",
"501 300 CURVE SMOOTH",
"556 300 OFFCURVE",
"600 296 OFFCURVE",
"622 289 CURVE",
"622 0 LINE"
);
}
);
width = 852;
}
);
unicode = FEC3;
},
{
color = 4;
glyphname = "ain-ar";
layers = (
{
anchors = (
{
name = bottom;
position = "{270, -420}";
},
{
name = top;
position = "{325, 550}";
}
);
hints = (
{
horizontal = 1;
origin = "{1, 20}";
target = "{1, 6}";
},
{
horizontal = 1;
origin = "{1, 13}";
target = "{1, 14}";
},
{
horizontal = 1;
origin = "{0, 9}";
target = "{0, 2}";
},
{
origin = "{0, 12}";
target = "{0, 16}";
},
{
origin = "{1, 17}";
target = "{1, 9}";
}
);
layerId = "6DB5A621-F658-4304-B48E-115D54993538";
paths = (
{
closed = 1;
nodes = (
"296 299 OFFCURVE",
"320 300 OFFCURVE",
"358 300 CURVE SMOOTH",
"402 300 OFFCURVE",
"436 296 OFFCURVE",
"496 285 CURVE",
"520 457 LINE",
"451 474 OFFCURVE",
"397 480 OFFCURVE",
"328 480 CURVE SMOOTH",
"170 480 OFFCURVE",
"112 415 OFFCURVE",
"112 240 CURVE SMOOTH",
"112 139 OFFCURVE",
"132 75 OFFCURVE",
"181 39 CURVE",
"272 123 LINE",
"272 296 LINE"
);
},
{
closed = 1;
nodes = (
"362 -337 OFFCURVE",
"448 -326 OFFCURVE",
"520 -305 CURVE",
"502 -133 LINE",
"436 -150 OFFCURVE",
"378 -157 OFFCURVE",
"310 -157 CURVE SMOOTH",
"279 -157 OFFCURVE",
"227 -154 OFFCURVE",
"202 -151 CURVE",
"202 -60 LINE SMOOTH",
"202 3 OFFCURVE",
"295 33 OFFCURVE",
"486 33 CURVE",
"486 183 LINE",
"170 183 OFFCURVE",
"42 108 OFFCURVE",
"42 -77 CURVE SMOOTH",
"42 -267 OFFCURVE",
"103 -337 OFFCURVE",
"270 -337 CURVE SMOOTH"
);
}
);
width = 589;
}
);
unicode = 0639;
},
{
color = 4;
glyphname = "ain-ar.fina";
layers = (
{
anchors = (
{
name = bottom;
position = "{270, -420}";
},
{
name = entry;
position = "{726, 90}";
},
{
name = top;
position = "{363, 550}";
}
);
hints = (
{
horizontal = 1;
origin = "{0, 2}";
target = "{0, 9}";
},
{
horizontal = 1;
origin = "{0, 19}";
target = "{0, 22}";
},
{
horizontal = 1;
origin = "{0, 31}";
target = "{1, 6}";
},
{
origin = "{0, 40}";
target = "{0, 12}";
},
{
origin = "{1, 0}";
target = "{0, 28}";
},
{
origin = "{0, 34}";
target = "{1, 6}";
}
);
layerId = "6DB5A621-F658-4304-B48E-115D54993538";
paths = (
{
closed = 1;
nodes = (
"42 -241 OFFCURVE",
"110 -317 OFFCURVE",
"270 -317 CURVE SMOOTH",
"362 -317 OFFCURVE",
"449 -311 OFFCURVE",
"521 -290 CURVE",
"502 -113 LINE",
"436 -130 OFFCURVE",
"378 -137 OFFCURVE",
"310 -137 CURVE SMOOTH",
"277 -137 OFFCURVE",
"227 -135 OFFCURVE",
"202 -131 CURVE",
"202 -52 LINE SMOOTH",
"202 -26 OFFCURVE",
"276 1 OFFCURVE",
"363 29 CURVE",
"423 10 OFFCURVE",
"488 0 OFFCURVE",
"556 0 CURVE SMOOTH",
"746 0 LINE",
"746 180 LINE",
"684 180 LINE SMOOTH",
"654 180 OFFCURVE",
"622 181 OFFCURVE",
"592 184 CURVE",
"632 231 OFFCURVE",
"658 290 OFFCURVE",
"658 365 CURVE SMOOTH",
"658 449 OFFCURVE",
"570 485 OFFCURVE",
"363 485 CURVE SMOOTH",
"159 485 OFFCURVE",
"68 448 OFFCURVE",
"68 365 CURVE SMOOTH",
"68 273 OFFCURVE",
"113 189 OFFCURVE",
"188 125 CURVE",
"107 93 OFFCURVE",
"42 32 OFFCURVE",
"42 -107 CURVE SMOOTH"
);
},
{
closed = 1;
nodes = (
"498 305 LINE",
"498 243 OFFCURVE",
"457 208 OFFCURVE",
"361 192 CURVE",
"265 208 OFFCURVE",
"228 243 OFFCURVE",
"228 305 CURVE"
);
}
);
width = 726;
}
);
unicode = FECA;
},
{
color = 4;
glyphname = "ain-ar.medi";
layers = (
{
anchors = (
{
name = bottom;
position = "{363, -80}";
},
{
name = entry;
position = "{726, 90}";
},
{
name = exit;
position = "{0, 90}";
},
{
name = top;
position = "{363, 550}";
}
);
hints = (
{
horizontal = 1;
origin = "{2, 0}";
target = "{2, 3}";
},
{
horizontal = 1;
origin = "{1, 10}";
target = "{1, 20}";
},
{
origin = "{1, 13}";
target = "{1, 20}";
},
{
origin = "{1, 0}";
target = "{1, 7}";
}
);
layerId = "6DB5A621-F658-4304-B48E-115D54993538";
paths = (
{
closed = 1;
nodes = (
"556 0 LINE",
"746 0 LINE",
"746 180 LINE",
"556 180 LINE"
);
},
{
closed = 1;
nodes = (
"498 305 LINE",
"498 211 OFFCURVE",
"416 180 OFFCURVE",
"170 180 CURVE",
"170 0 LINE",
"443 0 OFFCURVE",
"658 161 OFFCURVE",
"658 365 CURVE SMOOTH",
"658 449 OFFCURVE",
"570 485 OFFCURVE",
"363 485 CURVE SMOOTH",
"159 485 OFFCURVE",
"68 448 OFFCURVE",
"68 365 CURVE SMOOTH",
"68 163 OFFCURVE",
"286 0 OFFCURVE",
"556 0 CURVE",
"556 180 LINE",
"310 180 OFFCURVE",
"228 211 OFFCURVE",
"228 305 CURVE"
);
},
{
closed = 1;
nodes = (
"-20 0 LINE",
"170 0 LINE",
"170 180 LINE",
"-20 180 LINE"
);
}
);
width = 726;
}
);
unicode = FECC;
},
{
color = 4;
glyphname = "ain-ar.init";
layers = (
{
anchors = (
{
name = bottom;
position = "{325, -80}";
},
{
name = exit;
position = "{0, 90}";
},
{
name = top;
position = "{325, 550}";
}
);
color = 1;
hints = (
{
horizontal = 1;
origin = "{0, 3}";
target = "{0, 2}";
},
{
horizontal = 1;
origin = "{1, 9}";
target = "{1, 2}";
},
{
origin = "{1, 12}";
target = "{1, 21}";
}
);
layerId = "6DB5A621-F658-4304-B48E-115D54993538";
paths = (
{
closed = 1;
nodes = (
"340 0 LINE",
"237 180 LINE",
"-20 180 LINE",
"-20 0 LINE"
);
},
{
closed = 1;
nodes = (
"286 299 OFFCURVE",
"310 300 OFFCURVE",
"348 300 CURVE SMOOTH",
"392 300 OFFCURVE",
"426 296 OFFCURVE",
"486 285 CURVE",
"510 457 LINE",
"441 474 OFFCURVE",
"387 480 OFFCURVE",
"318 480 CURVE SMOOTH",
"160 480 OFFCURVE",
"102 415 OFFCURVE",
"102 240 CURVE SMOOTH",
"102 64 OFFCURVE",
"163 0 OFFCURVE",
"330 0 CURVE",
"562 0 LINE",
"562 180 LINE",
"316 180 LINE SMOOTH",
"278 180 OFFCURVE",
"262 192 OFFCURVE",
"262 223 CURVE SMOOTH",
"262 296 LINE"
);
}
);
width = 599;
}
);
unicode = FECB;
},
{
color = 4;
glyphname = "dotlessfeh-ar";
layers = (
{
anchors = (
{
name = bottom;
position = "{544, -80}";
},
{
name = top;
position = "{735, 550}";
}
);
color = 1;
hints = (
{
horizontal = 1;
origin = "{0, 24}";
target = "{0, 11}";
},
{
horizontal = 1;
origin = "{0, 4}";
target = "{1, 4}";
},
{
origin = "{0, 21}";
target = "{0, 14}";
},
{
origin = "{0, 7}";
target = "{1, 0}";
},
{
origin = "{1, 6}";
target = "{0, 0}";
},
{
horizontal = 1;
origin = "{0, 18}";
target = down;
type = TopGhost;
}
);
layerId = "6DB5A621-F658-4304-B48E-115D54993538";
paths = (
{
closed = 1;
nodes = (
"954 0 LINE",
"954 445 LINE",
"880 474 OFFCURVE",
"812 485 OFFCURVE",
"714 485 CURVE SMOOTH",
"533 485 OFFCURVE",
"454 421 OFFCURVE",
"454 300 CURVE SMOOTH",
"454 254 OFFCURVE",
"459 226 OFFCURVE",
"474 180 CURVE",
"223 180 LINE",
"213 205 OFFCURVE",
"210 233 OFFCURVE",
"210 272 CURVE SMOOTH",
"210 314 OFFCURVE",
"219 355 OFFCURVE",
"236 400 CURVE",
"82 424 LINE",
"60 359 OFFCURVE",
"50 292 OFFCURVE",
"50 223 CURVE SMOOTH",
"50 69 OFFCURVE",
"106 0 OFFCURVE",
"229 0 CURVE SMOOTH"
);
},
{
closed = 1;
nodes = (
"624 180 LINE",
"624 263 LINE SMOOTH",
"624 292 OFFCURVE",
"633 301 OFFCURVE",
"663 301 CURVE SMOOTH",
"794 301 LINE",
"794 218 LINE SMOOTH",
"794 189 OFFCURVE",
"784 180 OFFCURVE",
"755 180 CURVE SMOOTH"
);
}
);
width = 1024;
}
);
unicode = 06A1;
},
{
color = 4;
glyphname = "dotlessfeh-ar.fina";
layers = (
{
anchors = (
{
name = bottom;
position = "{544, -120}";
},
{
name = entry;
position = "{1024, 91}";
},
{
name = top;
position = "{735, 550}";
}
);
color = 1;
components = (
{
name = "dotlessfeh-ar";
}
);
hints = (
{
horizontal = 1;
origin = "{0, 0}";
target = "{0, 3}";
}
);
layerId = "6DB5A621-F658-4304-B48E-115D54993538";
paths = (
{
closed = 1;
nodes = (
"954 1 LINE",
"1044 1 LINE",
"1044 181 LINE",
"954 181 LINE"
);
}
);
width = 1024;
}
);
},
{
color = 4;
glyphname = "dotlessfeh-ar.medi";
layers = (
{
anchors = (
{
name = bottom;
position = "{363, -80}";
},
{
name = entry;
position = "{673, 90}";
},
{
name = exit;
position = "{0, 90}";
},
{
name = top;
position = "{363, 550}";
}
);
components = (
{
name = "dotlessfeh-ar.init";
}
);
hints = (
{
horizontal = 1;
origin = "{0, 0}";
target = "{0, 3}";
}
);
layerId = "6DB5A621-F658-4304-B48E-115D54993538";
paths = (
{
closed = 1;
nodes = (
"603 1 LINE",
"693 1 LINE",
"693 181 LINE",
"603 181 LINE"
);
}
);
width = 673;
}
);
},
{
color = 4;
glyphname = "dotlessfeh-ar.init";
layers = (
{
anchors = (
{
name = bottom;
position = "{363, -80}";
},
{
name = exit;
position = "{0, 90}";
},
{
name = top;
position = "{363, 550}";
}
);
color = 1;
hints = (
{
horizontal = 1;
origin = "{0, 0}";
target = "{0, 12}";
},
{
horizontal = 1;
origin = "{0, 5}";
target = "{1, 4}";
},
{
origin = "{0, 8}";
target = "{1, 0}";
},
{
origin = "{1, 6}";
target = "{0, 1}";
}
);
layerId = "6DB5A621-F658-4304-B48E-115D54993538";
paths = (
{
closed = 1;
nodes = (
"-20 0 LINE",
"603 0 LINE",
"603 445 LINE",
"529 474 OFFCURVE",
"461 485 OFFCURVE",
"363 485 CURVE SMOOTH",
"182 485 OFFCURVE",
"103 421 OFFCURVE",
"103 300 CURVE SMOOTH",
"103 254 OFFCURVE",
"108 226 OFFCURVE",
"123 180 CURVE",
"-20 180 LINE"
);
},
{
closed = 1;
nodes = (
"273 180 LINE",
"273 267 LINE SMOOTH",
"273 296 OFFCURVE",
"282 305 OFFCURVE",
"312 305 CURVE SMOOTH",
"443 305 LINE",
"443 218 LINE SMOOTH",
"443 189 OFFCURVE",
"433 180 OFFCURVE",
"404 180 CURVE SMOOTH"
);
}
);
width = 673;
}
);
},
{
color = 4;
glyphname = "dotlessqaf-ar";
layers = (
{
anchors = (
{
name = bottom;
position = "{457, -330}";
},
{
name = top;
position = "{624, 550}";
}
);
color = 1;
hints = (
{
horizontal = 1;
origin = "{0, 20}";
target = "{0, 7}";
},
{
horizontal = 1;
origin = "{1, 10}";
target = "{2, 0}";
},
{
horizontal = 1;
origin = "{1, 4}";
target = "{2, 4}";
},
{
origin = "{0, 17}";
target = "{0, 10}";
},
{
origin = "{1, 7}";
target = "{2, 0}";
},
{
origin = "{0, 6}";
target = "{0, 3}";
}
);
layerId = "6DB5A621-F658-4304-B48E-115D54993538";
paths = (
{
closed = 1;
nodes = (
"634 -281 LINE SMOOTH",
"800 -281 OFFCURVE",
"874 -214 OFFCURVE",
"874 -65 CURVE SMOOTH",
"874 0 LINE",
"714 0 LINE",
"714 -101 LINE",
"221 -101 LINE",
"211 -65 OFFCURVE",
"210 -25 OFFCURVE",
"210 31 CURVE SMOOTH",
"210 86 OFFCURVE",
"219 140 OFFCURVE",
"236 199 CURVE",
"82 223 LINE",
"60 145 OFFCURVE",
"50 65 OFFCURVE",
"50 -18 CURVE SMOOTH",
"50 -200 OFFCURVE",
"106 -281 OFFCURVE",
"229 -281 CURVE SMOOTH"
);
},
{
closed = 1;
nodes = (
"874 0 LINE",
"874 445 LINE",
"804 474 OFFCURVE",
"736 485 OFFCURVE",
"634 485 CURVE SMOOTH",
"454 485 OFFCURVE",
"374 413 OFFCURVE",
"374 250 CURVE SMOOTH",
"374 76 OFFCURVE",
"441 0 OFFCURVE",
"594 0 CURVE SMOOTH"
);
},
{
closed = 1;
nodes = (
"544 180 LINE",
"544 267 LINE SMOOTH",
"544 296 OFFCURVE",
"558 305 OFFCURVE",
"603 305 CURVE SMOOTH",
"714 305 LINE",
"714 218 LINE SMOOTH",
"714 189 OFFCURVE",
"704 180 OFFCURVE",
"675 180 CURVE SMOOTH"
);
}
);
width = 945;
}
);
unicode = 066F;
},
{
color = 4;
glyphname = "dotlessqaf-ar.fina";
layers = (
{
anchors = (
{
name = bottom;
position = "{457, -330}";
},
{
name = entry;
position = "{945, 90}";
},
{
name = top;
position = "{624, 550}";
}
);
color = 1;
components = (
{
name = "dotlessqaf-ar";
}
);
hints = (
{
horizontal = 1;
origin = "{0, 0}";
target = "{0, 3}";
}
);
layerId = "6DB5A621-F658-4304-B48E-115D54993538";
paths = (
{
closed = 1;
nodes = (
"874 0 LINE",
"964 0 LINE",
"964 180 LINE",
"874 180 LINE"
);
}
);
width = 944;
}
);
},
{
color = 4;
glyphname = "kaf-ar";
layers = (
{
anchors = (
{
name = bottom;
position = "{489, -80}";
},
{
name = top;
position = "{477, 690}";
}
);
color = 1;
components = (
{
name = "hamzaabove-ar";
transform = "{1, 0, 0, 1, 317, -200}";
}
);
hints = (
{
horizontal = 1;
origin = "{0, 12}";
target = "{0, 17}";
},
{
horizontal = 1;
origin = "{0, 15}";
target = down;
type = TopGhost;
},
{
origin = "{0, 9}";
target = "{0, 2}";
},
{
origin = "{0, 16}";
target = "{0, 13}";
},
{
horizontal = 1;
origin = "{0, 6}";
target = down;
type = TopGhost;
}
);
layerId = "6DB5A621-F658-4304-B48E-115D54993538";
paths = (
{
closed = 1;
nodes = (
"213 205 OFFCURVE",
"210 233 OFFCURVE",
"210 272 CURVE SMOOTH",
"210 314 OFFCURVE",
"219 355 OFFCURVE",
"236 400 CURVE",
"82 424 LINE",
"60 359 OFFCURVE",
"50 292 OFFCURVE",
"50 223 CURVE SMOOTH",
"50 69 OFFCURVE",
"106 0 OFFCURVE",
"229 0 CURVE",
"854 0 LINE",
"854 630 LINE",
"694 630 LINE",
"694 180 LINE",
"223 180 LINE"
);
}
);
width = 924;
}
);
unicode = 0643;
},
{
color = 4;
glyphname = "kaf-ar.fina";
layers = (
{
anchors = (
{
name = bottom;
position = "{489, -80}";
},
{
name = entry;
position = "{924, 90}";
},
{
name = top;
position = "{477, 690}";
}
);
components = (
{
name = "kaf-ar";
}
);
hints = (
{
horizontal = 1;
origin = "{0, 0}";
target = "{0, 3}";
}
);
layerId = "6DB5A621-F658-4304-B48E-115D54993538";
paths = (
{
closed = 1;
nodes = (
"854 0 LINE",
"944 0 LINE",
"944 180 LINE",
"854 180 LINE"
);
}
);
width = 924;
}
);
unicode = FEDA;
},
{
color = 4;
glyphname = "kaf-ar.medi";
layers = (
{
anchors = (
{
name = bottom;
position = "{358, -80}";
},
{
name = entry;
position = "{727, 90}";
},
{
name = exit;
position = "{0, 90}";
},
{
name = top;
position = "{358, 820}";
}
);
color = 1;
components = (
{
name = "kaf-ar.init";
}
);
hints = (
{
horizontal = 1;
origin = "{0, 0}";
target = "{0, 3}";
},
{
horizontal = 1;
place = "{313, 90}";
},
{
place = "{91.46, 87.54}";
},
{
place = "{512, 90}";
}
);
layerId = "6DB5A621-F658-4304-B48E-115D54993538";
paths = (
{
closed = 1;
nodes = (
"657 0 LINE",
"747 0 LINE",
"747 180 LINE",
"657 180 LINE"
);
}
);
width = 727;
}
);
unicode = FEDC;
},
{
color = 4;
glyphname = "kaf-ar.init";
layers = (
{
anchors = (
{
name = bottom;
position = "{358, -80}";
},
{
name = exit;
position = "{0, 90}";
},
{
name = top;
position = "{358, 820}";
}
);
hints = (
{
horizontal = 1;
origin = "{0, 19}";
target = "{0, 18}";
},
{
horizontal = 1;
origin = "{0, 15}";
target = "{0, 5}";
},
{
origin = "{0, 12}";
target = "{0, 5}";
},
{
origin = "{0, 17}";
target = "{0, 0}";
},
{
horizontal = 1;
origin = "{0, 9}";
target = down;
type = TopGhost;
}
);
layerId = "6DB5A621-F658-4304-B48E-115D54993538";
paths = (
{
closed = 1;
nodes = (
"657 0 LINE",
"657 260 LINE SMOOTH",
"657 414 OFFCURVE",
"611 460 OFFCURVE",
"457 460 CURVE SMOOTH",
"232 460 LINE",
"246 518 OFFCURVE",
"317 631 OFFCURVE",
"366 674 CURVE",
"239 743 LINE",
"149 657 OFFCURVE",
"80 512 OFFCURVE",
"80 409 CURVE SMOOTH",
"80 326 OFFCURVE",
"123 280 OFFCURVE",
"201 280 CURVE SMOOTH",
"497 280 LINE",
"497 180 LINE",
"-20 180 LINE",
"-20 0 LINE"
);
}
);
width = 727;
}
);
unicode = FEDB;
},
{
color = 4;
glyphname = "keheh-ar";
layers = (
{
anchors = (
{
name = bottom;
position = "{469, -80}";
},
{
name = top;
position = "{219, 665}";
}
);
color = 1;
hints = (
{
horizontal = 1;
origin = "{0, 31}";
target = "{0, 18}";
},
{
horizontal = 1;
origin = "{0, 15}";
target = "{0, 5}";
},
{
origin = "{0, 28}";
target = "{0, 21}";
},
{
origin = "{0, 17}";
target = "{0, 0}";
},
{
horizontal = 1;
origin = "{0, 9}";
target = down;
type = TopGhost;
},
{
horizontal = 1;
origin = "{0, 25}";
target = down;
type = TopGhost;
}
);
layerId = "6DB5A621-F658-4304-B48E-115D54993538";
paths = (
{
closed = 1;
nodes = (
"824 0 LINE",
"824 260 LINE SMOOTH",
"824 414 OFFCURVE",
"778 460 OFFCURVE",
"624 460 CURVE SMOOTH",
"499 460 LINE",
"513 518 OFFCURVE",
"584 631 OFFCURVE",
"633 674 CURVE",
"506 743 LINE",
"416 657 OFFCURVE",
"347 512 OFFCURVE",
"347 409 CURVE SMOOTH",
"347 326 OFFCURVE",
"390 280 OFFCURVE",
"468 280 CURVE SMOOTH",
"664 280 LINE",
"664 180 LINE",
"223 180 LINE",
"213 205 OFFCURVE",
"210 233 OFFCURVE",
"210 272 CURVE SMOOTH",
"210 314 OFFCURVE",
"219 355 OFFCURVE",
"236 400 CURVE",
"82 424 LINE",
"60 359 OFFCURVE",
"50 292 OFFCURVE",
"50 223 CURVE SMOOTH",
"50 69 OFFCURVE",
"106 0 OFFCURVE",
"229 0 CURVE SMOOTH"
);
}
);
width = 894;
}
);
unicode = 06A9;
},
{
color = 4;
glyphname = "keheh-ar.fina";
layers = (
{
anchors = (
{
name = bottom;
position = "{469, -80}";
},
{
name = entry;
position = "{894, 92}";
},
{
name = top;
position = "{219, 665}";
}
);
color = 1;
components = (
{
name = "keheh-ar";
}
);
hints = (
{
horizontal = 1;
origin = "{0, 0}";
target = "{0, 3}";
}
);
layerId = "6DB5A621-F658-4304-B48E-115D54993538";
paths = (
{
closed = 1;
nodes = (
"824 0 LINE",
"914 0 LINE",
"914 180 LINE",
"824 180 LINE"
);
}
);
width = 894;
}
);
unicode = FB8F;
},
{
color = 4;
glyphname = "lam-ar";
layers = (
{
anchors = (
{
name = bottom;
position = "{336, -330}";
},
{
name = top;
position = "{336, 700}";
}
);
hints = (
{
horizontal = 1;
origin = "{0, 12}";
target = "{0, 22}";
},
{
horizontal = 1;
origin = "{0, 17}";
target = down;
type = TopGhost;
},
{
origin = "{0, 9}";
target = "{0, 2}";
},
{
origin = "{0, 18}";
target = "{0, 15}";
},
{
horizontal = 1;
origin = "{0, 6}";
target = down;
type = TopGhost;
}
);
layerId = "6DB5A621-F658-4304-B48E-115D54993538";
paths = (
{
closed = 1;
nodes = (
"222 -33 OFFCURVE",
"220 -3 OFFCURVE",
"220 39 CURVE SMOOTH",
"220 101 OFFCURVE",
"229 161 OFFCURVE",
"246 227 CURVE",
"94 251 LINE",
"71 173 OFFCURVE",
"60 92 OFFCURVE",
"60 9 CURVE SMOOTH",
"60 -188 OFFCURVE",
"118 -240 OFFCURVE",
"336 -240 CURVE SMOOTH",
"571 -240 OFFCURVE",
"614 -187 OFFCURVE",
"614 9 CURVE SMOOTH",
"614 638 LINE",
"454 638 LINE",
"454 -6 LINE SMOOTH",
"454 -49 OFFCURVE",
"420 -59 OFFCURVE",
"360 -59 CURVE SMOOTH",
"229 -59 LINE"
);
}
);
width = 684;
}
);
unicode = 0644;
},
{
color = 4;
glyphname = "lam-ar.fina";
layers = (
{
anchors = (
{
name = bottom;
position = "{336, -330}";
},
{
name = entry;
position = "{684, 90}";
},
{
name = top;
position = "{336, 700}";
}
);
components = (
{
name = "lam-ar";
}
);
hints = (
{
horizontal = 1;
origin = "{0, 0}";
target = "{0, 3}";
}
);
layerId = "6DB5A621-F658-4304-B48E-115D54993538";
paths = (
{
closed = 1;
nodes = (
"614 0 LINE",
"704 0 LINE",
"704 180 LINE",
"614 180 LINE"
);
}
);
width = 684;
}
);
unicode = FEDE;
},
{
color = 4;
glyphname = "lam-ar.medi";
layers = (
{
anchors = (
{
name = bottom;
position = "{210, -80}";
},
{
name = entry;
position = "{360, 90}";
},
{
name = exit;
position = "{0, 90}";
},
{
name = top;
position = "{210, 730}";
}
);
color = 1;
hints = (
{
horizontal = 1;
origin = "{0, 4}";
target = "{0, 3}";
},
{
horizontal = 1;
origin = "{0, 1}";
target = down;
type = TopGhost;
},
{
origin = "{0, 2}";
target = "{0, 7}";
}
);
layerId = "6DB5A621-F658-4304-B48E-115D54993538";
paths = (
{
closed = 1;
nodes = (
"290 630 LINE",
"130 630 LINE",
"130 180 LINE",
"-20 180 LINE",
"-20 0 LINE",
"380 0 LINE",
"380 180 LINE",
"290 180 LINE"
);
}
);
width = 360;
}
);
unicode = FEE0;
},
{
color = 4;
glyphname = "lam-ar.init";
layers = (
{
anchors = (
{
name = bottom;
position = "{210, -37}";
},
{
name = entry;
position = "{0, 90}";
},
{
name = top;
position = "{210, 730}";
}
);
color = 1;
hints = (
{
horizontal = 1;
origin = "{0, 4}";
target = "{0, 3}";
},
{
horizontal = 1;
origin = "{0, 1}";
target = down;
type = TopGhost;
},
{
origin = "{0, 2}";
target = "{0, 5}";
}
);
layerId = "6DB5A621-F658-4304-B48E-115D54993538";
paths = (
{
closed = 1;
nodes = (
"290 630 LINE",
"130 630 LINE",
"130 180 LINE",
"-20 180 LINE",
"-20 0 LINE",
"290 0 LINE"
);
}
);
width = 360;
}
);
unicode = FEDF;
},
{
color = 4;
glyphname = "meem-ar";
layers = (
{
anchors = (
{
name = bottom;
position = "{401, -80}";
},
{
name = top;
position = "{401, 550}";
}
);
color = 1;
hints = (
{
horizontal = 1;
origin = "{0, 6}";
target = "{0, 23}";
},
{
horizontal = 1;
origin = "{0, 11}";
target = "{0, 18}";
},
{
origin = "{0, 26}";
target = "{0, 3}";
},
{
origin = "{0, 22}";
target = "{0, 7}";
},
{
origin = "{1, 10}";
target = "{1, 3}";
},
{
horizontal = 1;
origin = "{0, 29}";
target = up;
type = BottomGhost;
}
);
layerId = "6DB5A621-F658-4304-B48E-115D54993538";
paths = (
{
closed = 1;
nodes = (
"192 -309 LINE",
"168 -223 OFFCURVE",
"160 -177 OFFCURVE",
"160 -132 CURVE SMOOTH",
"160 -72 OFFCURVE",
"164 -32 OFFCURVE",
"173 0 CURVE",
"629 0 LINE",
"629 310 LINE SMOOTH",
"629 431 OFFCURVE",
"564 485 OFFCURVE",
"419 485 CURVE SMOOTH",
"321 485 OFFCURVE",
"227 469 OFFCURVE",
"138 438 CURVE",
"201 279 LINE",
"274 297 OFFCURVE",
"339 305 OFFCURVE",
"399 305 CURVE SMOOTH",
"433 305 OFFCURVE",
"453 304 OFFCURVE",
"469 301 CURVE",
"469 180 LINE",
"175 180 LINE SMOOTH",
"54 180 OFFCURVE",
"0 96 OFFCURVE",
"0 -92 CURVE SMOOTH",
"0 -177 OFFCURVE",
"11 -258 OFFCURVE",
"34 -334 CURVE"
);
},
{
closed = 1;
nodes = (
"298 110 LINE",
"276 148 OFFCURVE",
"269 173 OFFCURVE",
"269 253 CURVE SMOOTH",
"269 302 OFFCURVE",
"282 341 OFFCURVE",
"305 404 CURVE",
"138 438 LINE",
"119 370 OFFCURVE",
"109 318 OFFCURVE",
"109 253 CURVE SMOOTH",
"109 164 OFFCURVE",
"120 98 OFFCURVE",
"162 52 CURVE"
);
}
);
width = 694;
}
);
unicode = 0645;
},
{
color = 4;
glyphname = "meem-ar.fina";
layers = (
{
anchors = (
{
name = bottom;
position = "{401, -80}";
},
{
name = entry;
position = "{699, 90}";
},
{
name = top;
position = "{401, 550}";
}
);
color = 1;
components = (
{
name = "meem-ar";
}
);
hints = (
{
horizontal = 1;
origin = "{0, 0}";
target = "{0, 3}";
}
);
layerId = "6DB5A621-F658-4304-B48E-115D54993538";
paths = (
{
closed = 1;
nodes = (
"629 0 LINE",
"719 0 LINE",
"719 180 LINE",
"629 180 LINE"
);
}
);
width = 699;
}
);
unicode = FEE2;
},
{
color = 4;
glyphname = "meem-ar.medi";
layers = (
{
anchors = (
{
name = bottom;
position = "{400, -80}";
},
{
name = entry;
position = "{699, 90}";
},
{
name = exit;
position = "{0, 90}";
},
{
name = top;
position = "{400, 550}";
}
);
color = 1;
components = (
{
name = "meem-ar.init";
}
);
hints = (
{
horizontal = 1;
origin = "{0, 0}";
target = "{0, 3}";
}
);
layerId = "6DB5A621-F658-4304-B48E-115D54993538";
paths = (
{
closed = 1;
nodes = (
"629 0 LINE",
"719 0 LINE",
"719 180 LINE",
"629 180 LINE"
);
}
);
width = 699;
}
);
unicode = FEE4;
},
{
color = 4;
glyphname = "meem-ar.init";
layers = (
{
anchors = (
{
name = bottom;
position = "{400, -80}";
},
{
name = exit;
position = "{0, 90}";
},
{
name = top;
position = "{400, 550}";
}
);
color = 1;
hints = (
{
horizontal = 1;
origin = "{0, 12}";
target = "{0, 11}";
},
{
horizontal = 1;
origin = "{0, 17}";
target = "{0, 6}";
},
{
origin = "{1, 10}";
target = "{1, 3}";
},
{
origin = "{0, 10}";
target = "{0, 14}";
}
);
layerId = "6DB5A621-F658-4304-B48E-115D54993538";
paths = (
{
closed = 1;
nodes = (
"323 485 OFFCURVE",
"228 470 OFFCURVE",
"138 438 CURVE",
"201 279 LINE",
"270 296 OFFCURVE",
"335 305 OFFCURVE",
"399 305 CURVE SMOOTH",
"428 305 OFFCURVE",
"451 304 OFFCURVE",
"469 301 CURVE",
"469 180 LINE",
"-20 180 LINE",
"-20 0 LINE",
"629 0 LINE",
"629 310 LINE SMOOTH",
"629 431 OFFCURVE",
"564 485 OFFCURVE",
"419 485 CURVE SMOOTH"
);
},
{
closed = 1;
nodes = (
"298 110 LINE",
"276 148 OFFCURVE",
"269 173 OFFCURVE",
"269 253 CURVE SMOOTH",
"269 302 OFFCURVE",
"282 341 OFFCURVE",
"305 404 CURVE",
"138 438 LINE",
"119 370 OFFCURVE",
"109 318 OFFCURVE",
"109 253 CURVE SMOOTH",
"109 164 OFFCURVE",
"120 98 OFFCURVE",
"162 52 CURVE"
);
}
);
width = 694;
}
);
unicode = FEE3;
},
{
color = 4;
glyphname = "noonghunna-ar";
layers = (
{
anchors = (
{
name = bottom;
position = "{336, -330}";
},
{
name = top;
position = "{336, 550}";
}
);
color = 1;
hints = (
{
horizontal = 1;
origin = "{0, 12}";
target = "{0, 22}";
},
{
horizontal = 1;
origin = "{0, 17}";
target = down;
type = TopGhost;
},
{
origin = "{0, 9}";
target = "{0, 2}";
},
{
origin = "{0, 18}";
target = "{0, 15}";
},
{
horizontal = 1;
origin = "{0, 6}";
target = down;
type = TopGhost;
}
);
layerId = "6DB5A621-F658-4304-B48E-115D54993538";
paths = (
{
closed = 1;
nodes = (
"222 -33 OFFCURVE",
"220 -3 OFFCURVE",
"220 39 CURVE SMOOTH",
"220 101 OFFCURVE",
"229 161 OFFCURVE",
"246 227 CURVE",
"94 251 LINE",
"71 173 OFFCURVE",
"60 92 OFFCURVE",
"60 9 CURVE SMOOTH",
"60 -188 OFFCURVE",
"118 -240 OFFCURVE",
"336 -240 CURVE SMOOTH",
"571 -240 OFFCURVE",
"614 -187 OFFCURVE",
"614 9 CURVE SMOOTH",
"614 470 LINE",
"454 470 LINE",
"454 -6 LINE SMOOTH",
"454 -49 OFFCURVE",
"420 -59 OFFCURVE",
"360 -59 CURVE SMOOTH",
"229 -59 LINE"
);
}
);
width = 684;
}
);
unicode = 06BA;
},
{
color = 4;
glyphname = "noonghunna-ar.fina";
layers = (
{
anchors = (
{
name = bottom;
position = "{336, -330}";
},
{
name = entry;
position = "{684, 90}";
},
{
name = top;
position = "{336, 550}";
}
);
color = 1;
components = (
{
name = "noonghunna-ar";
}
);
hints = (
{
horizontal = 1;
origin = "{0, 0}";
target = "{0, 3}";
}
);
layerId = "6DB5A621-F658-4304-B48E-115D54993538";
paths = (
{
closed = 1;
nodes = (
"614 0 LINE",
"704 0 LINE",
"704 180 LINE",
"614 180 LINE"
);
}
);
width = 684;
}
);
unicode = FB9F;
},
{
color = 4;
glyphname = "heh-ar";
layers = (
{
anchors = (
{
name = bottom;
position = "{340, -80}";
},
{
name = top;
position = "{340, 550}";
}
);
color = 1;
hints = (
{
horizontal = 1;
origin = "{0, 6}";
target = "{1, 1}";
},
{
horizontal = 1;
origin = "{0, 0}";
target = "{1, 8}";
},
{
origin = "{0, 3}";
target = "{1, 4}";
},
{
origin = "{1, 0}";
target = "{0, 7}";
}
);
layerId = "6DB5A621-F658-4304-B48E-115D54993538";
paths = (
{
closed = 1;
nodes = (
"303 470 LINE SMOOTH",
"107 470 OFFCURVE",
"60 424 OFFCURVE",
"60 235 CURVE SMOOTH",
"60 45 OFFCURVE",
"107 0 OFFCURVE",
"303 0 CURVE SMOOTH",
"572 0 LINE",
"572 470 LINE"
);
},
{
closed = 1;
nodes = (
"412 180 LINE",
"265 180 LINE SMOOTH",
"242 180 OFFCURVE",
"230 191 OFFCURVE",
"230 211 CURVE SMOOTH",
"230 259 LINE SMOOTH",
"230 279 OFFCURVE",
"242 290 OFFCURVE",
"265 290 CURVE SMOOTH",
"412 290 LINE"
);
}
);
width = 642;
}
);
unicode = 0647;
},
{
color = 4;
glyphname = "heh-ar.fina";
layers = (
{
anchors = (
{
name = bottom;
position = "{343, -80}";
},
{
name = entry;
position = "{645, 90}";
},
{
name = top;
position = "{343, 550}";
}
);
color = 1;
components = (
{
name = "heh-ar";
}
);
hints = (
{
horizontal = 1;
origin = "{0, 0}";
target = "{0, 3}";
}
);
layerId = "6DB5A621-F658-4304-B48E-115D54993538";
paths = (
{
closed = 1;
nodes = (
"571 0 LINE",
"665 0 LINE",
"665 180 LINE",
"571 180 LINE"
);
}
);
width = 645;
}
);
unicode = FEEA;
},
{
color = 4;
glyphname = "heh-ar.medi";
layers = (
{
anchors = (
{
name = bottom;
position = "{350, -90}";
},
{
name = entry;
position = "{779, 90}";
},
{
name = exit;
position = "{0, 90}";
},
{
name = top;
position = "{350, 645}";
}
);
components = (
{
name = "heh-ar.init";
}
);
hints = (
{
horizontal = 1;
origin = "{0, 0}";
target = "{0, 3}";
},
{
origin = "{0, 0}";
target = "{0, 1}";
},
{
horizontal = 1;
origin = "{0, 1}";
target = "{0, 2}";
}
);
layerId = "6DB5A621-F658-4304-B48E-115D54993538";
paths = (
{
closed = 1;
nodes = (
"639 0 LINE",
"799 0 LINE",
"799 180 LINE",
"639 180 LINE"
);
}
);
width = 779;
}
);
unicode = FEEC;
},
{
color = 4;
glyphname = "heh-ar.init";
layers = (
{
anchors = (
{
name = bottom;
position = "{350, -90}";
},
{
name = exit;
position = "{0, 90}";
},
{
name = top;
position = "{350, 645}";
}
);
color = 5;
hints = (
{
horizontal = 1;
origin = "{0, 12}";
target = "{0, 11}";
},
{
horizontal = 1;
origin = "{2, 5}";
target = "{1, 3}";
},
{
horizontal = 1;
origin = "{0, 6}";
target = "{0, 5}";
},
{
origin = "{1, 6}";
target = "{2, 1}";
},
{
origin = "{2, 0}";
target = "{1, 0}";
}
);
layerId = "6DB5A621-F658-4304-B48E-115D54993538";
paths = (
{
closed = 1;
nodes = (
"729 0 LINE",
"729 140 LINE",
"674 366 LINE SMOOTH",
"631 543 OFFCURVE",
"531 610 OFFCURVE",
"258 610 CURVE",
"249 435 LINE",
"447 435 OFFCURVE",
"503 388 OFFCURVE",
"524 302 CURVE SMOOTH",
"554 180 LINE",
"-20 180 LINE",
"-20 0 LINE"
);
},
{
closed = 1;
nodes = (
"472 150 LINE",
"472 344 OFFCURVE",
"428 373 OFFCURVE",
"273 373 CURVE SMOOTH",
"119 373 OFFCURVE",
"74 343 OFFCURVE",
"74 150 CURVE"
);
},
{
closed = 1;
nodes = (
"332 150 LINE",
"214 150 LINE",
"214 215 LINE SMOOTH",
"214 233 OFFCURVE",
"226 243 OFFCURVE",
"246 243 CURVE SMOOTH",
"332 243 LINE"
);
}
);
width = 779;
}
);
unicode = FEEB;
},
{
color = 4;
glyphname = "hehgoal-ar.fina";
layers = (
{
anchors = (
{
name = bottom;
position = "{336, -80}";
},
{
name = entry;
position = "{675, 90}";
},
{
name = top;
position = "{336, 550}";
}
);
hints = (
{
horizontal = 1;
origin = "{0, 3}";
target = "{1, 4}";
},
{
horizontal = 1;
origin = "{0, 15}";
target = "{0, 8}";
},
{
origin = "{0, 3}";
target = "{0, 4}";
},
{
origin = "{1, 1}";
target = "{1, 4}";
}
);
layerId = "6DB5A621-F658-4304-B48E-115D54993538";
paths = (
{
closed = 1;
nodes = (
"128 485 OFFCURVE",
"65 431 OFFCURVE",
"65 310 CURVE SMOOTH",
"65 0 LINE",
"225 0 LINE",
"225 301 LINE",
"248 304 OFFCURVE",
"297 305 OFFCURVE",
"335 305 CURVE SMOOTH",
"443 305 OFFCURVE",
"511 296 OFFCURVE",
"584 279 CURVE",
"603 451 LINE",
"503 474 OFFCURVE",
"421 485 OFFCURVE",
"315 485 CURVE SMOOTH"
);
},
{
closed = 1;
nodes = (
"445 451 LINE",
"445 0 LINE",
"694 0 LINE",
"694 180 LINE",
"603 180 LINE",
"603 451 LINE"
);
}
);
width = 674;
}
);
unicode = FBA7;
},
{
color = 4;
glyphname = "hehgoal-ar.medi";
layers = (
{
anchors = (
{
name = bottom;
position = "{370, -415}";
},
{
name = entry;
position = "{699, 90}";
},
{
name = exit;
position = "{0, 90}";
},
{
name = top;
position = "{370, 550}";
}
);
hints = (
{
horizontal = 1;
origin = "{0, 19}";
target = "{0, 4}";
},
{
horizontal = 1;
origin = "{2, 3}";
target = "{2, 2}";
},
{
origin = "{0, 13}";
target = "{0, 10}";
},
{
origin = "{0, 1}";
target = "{0, 22}";
}
);
layerId = "6DB5A621-F658-4304-B48E-115D54993538";
paths = (
{
closed = 1;
nodes = (
"469 16 LINE",
"469 -225 LINE",
"456 -228 OFFCURVE",
"420 -229 OFFCURVE",
"399 -229 CURVE SMOOTH",
"364 -229 OFFCURVE",
"328 -227 OFFCURVE",
"292 -223 CURVE",
"282 -184 OFFCURVE",
"277 -146 OFFCURVE",
"277 -108 CURVE SMOOTH",
"277 0 LINE",
"127 0 LINE",
"127 -118 LINE SMOOTH",
"127 -190 OFFCURVE",
"140 -260 OFFCURVE",
"166 -328 CURVE",
"247 -360 OFFCURVE",
"332 -375 OFFCURVE",
"419 -375 CURVE SMOOTH",
"578 -375 OFFCURVE",
"629 -321 OFFCURVE",
"629 -200 CURVE SMOOTH",
"629 16 LINE"
);
},
{
closed = 1;
nodes = (
"719 0 LINE",
"719 180 LINE",
"469 180 LINE",
"469 0 LINE"
);
},
{
closed = 1;
nodes = (
"277 0 LINE",
"277 180 LINE",
"-20 180 LINE",
"-20 0 LINE"
);
}
);
width = 699;
}
);
unicode = FBA9;
},
{
color = 4;
glyphname = "hehDoachashmee-ar";
layers = (
{
anchors = (
{
name = bottom;
position = "{350, -90}";
},
{
name = top;
position = "{350, 645}";
}
);
color = 2;
hints = (
{
horizontal = 1;
origin = "{0, 12}";
target = "{0, 11}";
},
{
horizontal = 1;
origin = "{2, 5}";
target = "{1, 3}";
},
{
horizontal = 1;
origin = "{0, 6}";
target = "{0, 5}";
},
{
origin = "{1, 6}";
target = "{2, 1}";
},
{
origin = "{2, 0}";
target = "{1, 0}";
}
);
layerId = "6DB5A621-F658-4304-B48E-115D54993538";
paths = (
{
closed = 1;
nodes = (
"729 0 LINE",
"729 140 LINE",
"674 366 LINE SMOOTH",
"631 543 OFFCURVE",
"531 610 OFFCURVE",
"258 610 CURVE",
"249 435 LINE",
"447 435 OFFCURVE",
"503 388 OFFCURVE",
"524 302 CURVE SMOOTH",
"554 180 LINE",
"20 180 LINE",
"20 0 LINE"
);
},
{
closed = 1;
nodes = (
"472 150 LINE",
"472 344 OFFCURVE",
"428 373 OFFCURVE",
"273 373 CURVE SMOOTH",
"119 373 OFFCURVE",
"74 343 OFFCURVE",
"74 150 CURVE"
);
},
{
closed = 1;
nodes = (
"332 150 LINE",
"214 150 LINE",
"214 215 LINE SMOOTH",
"214 233 OFFCURVE",
"226 243 OFFCURVE",
"246 243 CURVE SMOOTH",
"332 243 LINE"
);
}
);
width = 779;
}
);
unicode = 06BE;
},
{
color = 4;
glyphname = "hehDoachashmee-ar.fina";
layers = (
{
anchors = (
{
name = bottom;
position = "{350, -90}";
},
{
name = entry;
position = "{779, 90}";
},
{
name = top;
position = "{350, 645}";
}
);
components = (
{
name = "hehDoachashmee-ar";
}
);
hints = (
{
horizontal = 1;
origin = "{0, 0}";
target = "{0, 3}";
},
{
origin = "{0, 0}";
target = "{0, 1}";
}
);
layerId = "6DB5A621-F658-4304-B48E-115D54993538";
paths = (
{
closed = 1;
nodes = (
"649 0 LINE",
"799 0 LINE",
"799 180 LINE",
"649 180 LINE"
);
}
);
width = 779;
}
);
unicode = FBAB;
},
{
color = 1;
glyphname = "waw-ar";
layers = (
{
anchors = (
{
name = bottom;
position = "{310, -330}";
},
{
name = top;
position = "{310, 550}";
}
);
color = 2;
hints = (
{
horizontal = 1;
origin = "{0, 11}";
target = "{1, 0}";
},
{
horizontal = 1;
origin = "{0, 5}";
target = "{1, 4}";
},
{
origin = "{0, 8}";
target = "{1, 0}";
},
{
origin = "{2, 3}";
target = "{0, 1}";
},
{
horizontal = 1;
origin = "{2, 7}";
target = up;
type = BottomGhost;
}
);
layerId = "6DB5A621-F658-4304-B48E-115D54993538";
paths = (
{
closed = 1;
nodes = (
"460 0 LINE",
"550 180 LINE",
"550 445 LINE",
"480 474 OFFCURVE",
"412 485 OFFCURVE",
"310 485 CURVE SMOOTH",
"130 485 OFFCURVE",
"50 413 OFFCURVE",
"50 250 CURVE SMOOTH",
"50 76 OFFCURVE",
"117 0 OFFCURVE",
"270 0 CURVE SMOOTH"
);
},
{
closed = 1;
nodes = (
"220 180 LINE",
"220 267 LINE SMOOTH",
"220 296 OFFCURVE",
"234 305 OFFCURVE",
"279 305 CURVE SMOOTH",
"390 305 LINE",
"390 218 LINE SMOOTH",
"390 189 OFFCURVE",
"380 180 OFFCURVE",
"351 180 CURVE SMOOTH"
);
},
{
closed = 1;
nodes = (
"462 -157 OFFCURVE",
"550 16 OFFCURVE",
"550 180 CURVE",
"390 180 LINE",
"390 61 OFFCURVE",
"322 -76 OFFCURVE",
"219 -165 CURVE",
"327 -283 LINE"
);
}
);
width = 620;
}
);
unicode = 0648;
},
{
color = 4;
glyphname = "waw-ar.fina";
layers = (
{
anchors = (
{
name = bottom;
position = "{310, -330}";
},
{
name = entry;
position = "{630, 90}";
},
{
name = top;
position = "{310, 550}";
}
);
components = (
{
name = "waw-ar";
}
);
hints = (
{
horizontal = 1;
origin = "{0, 0}";
target = "{0, 3}";
}
);
layerId = "6DB5A621-F658-4304-B48E-115D54993538";
paths = (
{
closed = 1;
nodes = (
"480 0 LINE",
"650 0 LINE",
"650 180 LINE",
"480 180 LINE"
);
}
);
width = 630;
}
);
unicode = FEEE;
},
{
color = 4;
glyphname = "alefMaksura-ar";
layers = (
{
anchors = (
{
name = bottom;
position = "{437, -330}";
},
{
name = top;
position = "{186, 240}";
}
);
hints = (
{
horizontal = 1;
origin = "{0, 2}";
target = "{0, 33}";
},
{
horizontal = 1;
origin = "{0, 21}";
target = "{0, 14}";
},
{
horizontal = 1;
origin = "{0, 21}";
target = down;
type = TopGhost;
},
{
origin = "{0, 43}";
target = "{0, 36}";
},
{
origin = "{0, 24}";
target = "{0, 10}";
},
{
origin = "{0, 29}";
target = "{0, 5}";
},
{
horizontal = 1;
origin = "{0, 40}";
target = down;
type = TopGhost;
}
);
layerId = "6DB5A621-F658-4304-B48E-115D54993538";
paths = (
{
closed = 1;
nodes = (
"60 -228 OFFCURVE",
"143 -290 OFFCURVE",
"436 -290 CURVE SMOOTH",
"730 -290 OFFCURVE",
"814 -227 OFFCURVE",
"814 -41 CURVE SMOOTH",
"814 39 LINE SMOOTH",
"814 148 OFFCURVE",
"778 200 OFFCURVE",
"648 214 CURVE SMOOTH",
"524 226 LINE",
"524 295 LINE",
"549 299 OFFCURVE",
"589 300 OFFCURVE",
"628 300 CURVE SMOOTH",
"674 300 OFFCURVE",
"716 296 OFFCURVE",
"790 285 CURVE",
"815 455 LINE",
"752 472 OFFCURVE",
"678 480 OFFCURVE",
"590 480 CURVE SMOOTH",
"393 480 OFFCURVE",
"354 427 OFFCURVE",
"354 256 CURVE SMOOTH",
"354 122 OFFCURVE",
"384 66 OFFCURVE",
"524 52 CURVE SMOOTH",
"654 39 LINE",
"654 -57 LINE SMOOTH",
"654 -100 OFFCURVE",
"615 -110 OFFCURVE",
"510 -110 CURVE SMOOTH",
"229 -110 LINE",
"222 -84 OFFCURVE",
"220 -53 OFFCURVE",
"220 -11 CURVE SMOOTH",
"220 38 OFFCURVE",
"233 85 OFFCURVE",
"250 136 CURVE",
"94 161 LINE",
"71 96 OFFCURVE",
"60 27 OFFCURVE",
"60 -41 CURVE SMOOTH"
);
}
);
width = 884;
}
);
unicode = 0649;
},
{
color = 4;
glyphname = "alefMaksura-ar.fina";
layers = (
{
anchors = (
{
name = bottom;
position = "{437, -330}";
},
{
name = entry;
position = "{884, 90}";
},
{
name = top;
position = "{186, 240}";
}
);
color = 1;
hints = (
{
horizontal = 1;
origin = "{0, 22}";
target = "{0, 9}";
},
{
horizontal = 1;
origin = "{1, 9}";
target = "{1, 2}";
},
{
origin = "{0, 19}";
target = "{0, 12}";
},
{
origin = "{0, 5}";
target = "{0, 2}";
}
);
layerId = "6DB5A621-F658-4304-B48E-115D54993538";
paths = (
{
closed = 1;
nodes = (
"730 -290 OFFCURVE",
"814 -227 OFFCURVE",
"814 -41 CURVE SMOOTH",
"814 0 LINE",
"654 0 LINE",
"654 -57 LINE SMOOTH",
"654 -100 OFFCURVE",
"615 -110 OFFCURVE",
"510 -110 CURVE SMOOTH",
"229 -110 LINE",
"222 -84 OFFCURVE",
"220 -53 OFFCURVE",
"220 -11 CURVE SMOOTH",
"220 38 OFFCURVE",
"233 85 OFFCURVE",
"250 136 CURVE",
"94 161 LINE",
"71 96 OFFCURVE",
"60 27 OFFCURVE",
"60 -41 CURVE SMOOTH",
"60 -228 OFFCURVE",
"143 -290 OFFCURVE",
"436 -290 CURVE SMOOTH"
);
},
{
closed = 1;
nodes = (
"904 0 LINE",
"904 180 LINE",
"614 180 LINE SMOOTH",
"556 180 OFFCURVE",
"505 189 OFFCURVE",
"436 206 CURVE",
"412 34 LINE",
"490 11 OFFCURVE",
"578 0 OFFCURVE",
"654 0 CURVE"
);
}
);
width = 884;
}
);
unicode = FEF0;
},
{
color = 4;
glyphname = "yehbarree-ar";
layers = (
{
anchors = (
{
name = bottom;
position = "{340, -370}";
},
{
name = top;
position = "{305, 175}";
}
);
color = 1;
hints = (
{
horizontal = 1;
origin = "{1, 15}";
target = "{1, 6}";
},
{
horizontal = 1;
origin = "{0, 15}";
target = "{0, 14}";
},
{
origin = "{1, 12}";
target = "{1, 9}";
},
{
origin = "{0, 10}";
target = "{0, 3}";
},
{
horizontal = 1;
origin = "{0, 7}";
target = down;
type = TopGhost;
}
);
layerId = "6DB5A621-F658-4304-B48E-115D54993538";
paths = (
{
closed = 1;
nodes = (
"527 0 LINE",
"684 0 OFFCURVE",
"743 63 OFFCURVE",
"743 228 CURVE SMOOTH",
"743 265 OFFCURVE",
"742 301 OFFCURVE",
"741 329 CURVE",
"580 329 LINE",
"582 305 OFFCURVE",
"583 282 OFFCURVE",
"583 258 CURVE SMOOTH",
"583 205 OFFCURVE",
"580 171 OFFCURVE",
"574 140 CURVE",
"40 140 LINE",
"40 0 LINE"
);
},
{
closed = 1;
nodes = (
"473 -290 OFFCURVE",
"590 -279 OFFCURVE",
"710 -256 CURVE",
"686 -84 LINE",
"565 -102 OFFCURVE",
"485 -110 OFFCURVE",
"384 -110 CURVE SMOOTH",
"248 -110 OFFCURVE",
"200 -100 OFFCURVE",
"200 -57 CURVE SMOOTH",
"200 0 LINE",
"40 0 LINE",
"40 -31 LINE SMOOTH",
"40 -235 OFFCURVE",
"88 -290 OFFCURVE",
"340 -290 CURVE SMOOTH"
);
}
);
width = 793;
}
);
unicode = 06D2;
},
{
color = 4;
glyphname = "yehbarree-ar.fina";
layers = (
{
anchors = (
{
name = bottom;
position = "{340, -370}";
},
{
name = entry;
position = "{755, 90}";
},
{
name = top;
position = "{305, 215}";
}
);
color = 1;
hints = (
{
horizontal = 1;
origin = "{1, 15}";
target = "{1, 6}";
},
{
horizontal = 1;
origin = "{0, 3}";
target = "{0, 2}";
},
{
origin = "{1, 12}";
target = "{1, 9}";
}
);
layerId = "6DB5A621-F658-4304-B48E-115D54993538";
paths = (
{
closed = 1;
nodes = (
"775 0 LINE",
"775 180 LINE",
"40 180 LINE",
"40 0 LINE"
);
},
{
closed = 1;
nodes = (
"473 -290 OFFCURVE",
"590 -279 OFFCURVE",
"710 -256 CURVE",
"686 -84 LINE",
"565 -102 OFFCURVE",
"485 -110 OFFCURVE",
"384 -110 CURVE SMOOTH",
"248 -110 OFFCURVE",
"200 -100 OFFCURVE",
"200 -57 CURVE SMOOTH",
"200 0 LINE",
"40 0 LINE",
"40 -31 LINE SMOOTH",
"40 -235 OFFCURVE",
"88 -290 OFFCURVE",
"340 -290 CURVE SMOOTH"
);
}
);
width = 755;
}
);
unicode = FBAF;
},
{
color = 4;
glyphname = "kashida-ar";
layers = (
{
anchors = (
{
name = bottom;
position = "{122, -224}";
},
{
name = entry;
position = "{244, 90}";
},
{
name = exit;
position = "{0, 90}";
},
{
name = top;
position = "{122, 573}";
}
);
color = 1;
hints = (
{
horizontal = 1;
origin = "{0, 3}";
target = "{0, 2}";
}
);
layerId = "6DB5A621-F658-4304-B48E-115D54993538";
paths = (
{
closed = 1;
nodes = (
"264 0 LINE",
"264 180 LINE",
"-20 180 LINE",
"-20 0 LINE"
);
}
);
width = 244;
}
);
unicode = 0640;
},
{
color = 4;
glyphname = "lam_alef-ar";
layers = (
{
anchors = (
{
name = bottom_1;
position = "{510, -80}";
},
{
name = bottom_2;
position = "{162, -80}";
},
{
name = caret_1;
position = "{333, 0}";
},
{
name = top_1;
position = "{510, 730}";
},
{
name = top_2;
position = "{187, 625}";
}
);
hints = (
{
horizontal = 1;
origin = "{0, 6}";
target = "{1, 9}";
},
{
horizontal = 1;
origin = "{0, 18}";
target = down;
type = TopGhost;
},
{
origin = "{0, 3}";
target = "{1, 9}";
},
{
origin = "{0, 19}";
target = "{0, 16}";
},
{
origin = "{1, 5}";
target = "{0, 9}";
}
);
layerId = "6DB5A621-F658-4304-B48E-115D54993538";
paths = (
{
closed = 1;
nodes = (
"197 394 LINE SMOOTH",
"88 358 OFFCURVE",
"63 285 OFFCURVE",
"63 181 CURVE SMOOTH",
"63 42 OFFCURVE",
"125 -15 OFFCURVE",
"333 -15 CURVE SMOOTH",
"527 -15 OFFCURVE",
"605 39 OFFCURVE",
"605 171 CURVE SMOOTH",
"605 234 OFFCURVE",
"589 281 OFFCURVE",
"551 331 CURVE",
"551 338 LINE",
"588 350 OFFCURVE",
"590 367 OFFCURVE",
"590 470 CURVE SMOOTH",
"590 630 LINE",
"430 630 LINE",
"430 471 LINE"
);
},
{
closed = 1;
nodes = (
"233 227 LINE",
"354 265 LINE",
"410 219 LINE",
"427 208 OFFCURVE",
"435 196 OFFCURVE",
"435 187 CURVE SMOOTH",
"435 174 OFFCURVE",
"427 165 OFFCURVE",
"398 165 CURVE SMOOTH",
"233 165 LINE"
);
},
{
closed = 1;
nodes = (
"427 434 LINE",
"187 633 LINE",
"74 498 LINE",
"230 369 LINE"
);
}
);
width = 675;
}
);
unicode = FEFB;
},
{
color = 4;
glyphname = "lam_alef-ar.fina";
layers = (
{
anchors = (
{
name = bottom_1;
position = "{570, -80}";
},
{
name = bottom_2;
position = "{260, -80}";
},
{
name = caret_1;
position = "{390, 0}";
},
{
name = entry;
position = "{720, 90}";
},
{
name = top_1;
position = "{570, 730}";
},
{
name = top_2;
position = "{210, 625}";
}
);
color = 1;
hints = (
{
horizontal = 1;
origin = "{2, 1}";
target = "{2, 0}";
},
{
horizontal = 1;
origin = "{0, 2}";
target = down;
type = TopGhost;
},
{
horizontal = 1;
origin = "{1, 2}";
target = down;
type = TopGhost;
},
{
origin = "{1, 3}";
target = "{1, 0}";
}
);
layerId = "6DB5A621-F658-4304-B48E-115D54993538";
paths = (
{
closed = 1;
nodes = (
"327 124 LINE",
"290 545 LINE",
"130 545 LINE",
"166 124 LINE"
);
},
{
closed = 1;
nodes = (
"650 124 LINE",
"650 630 LINE",
"490 630 LINE",
"490 124 LINE"
);
},
{
closed = 1;
nodes = (
"20 180 LINE",
"20 0 LINE",
"740 0 LINE",
"740 180 LINE"
);
}
);
width = 720;
}
);
note = "Inclinacion barra inicial 5 - bottom_2 - 50 derecha en regular";
unicode = FEFC;
},
{
color = 4;
glyphname = "seen_reh-ar";
layers = (
{
anchors = (
{
name = bottom;
position = "{126, -330}";
},
{
name = bottom_1;
position = "{871, -80}";
},
{
name = caret_1;
position = "{617, 0}";
},
{
name = top;
position = "{191, 550}";
},
{
name = top_1;
position = "{871, 550}";
}
);
color = 1;
hints = (
{
horizontal = 1;
origin = "{2, 5}";
target = "{4, 9}";
},
{
horizontal = 1;
origin = "{2, 4}";
target = "{1, 0}";
},
{
origin = "{2, 5}";
target = "{2, 2}";
},
{
origin = "{0, 3}";
target = "{0, 0}";
},
{
origin = "{4, 5}";
target = "{3, 16}";
},
{
origin = "{3, 9}";
target = "{3, 2}";
},
{
horizontal = 1;
origin = "{3, 18}";
target = down;
type = TopGhost;
}
);
layerId = "6DB5A621-F658-4304-B48E-115D54993538";
paths = (
{
closed = 1;
nodes = (
"597 0 LINE",
"597 470 LINE",
"437 470 LINE",
"437 0 LINE"
);
},
{
closed = 1;
nodes = (
"271 290 LINE",
"437 290 LINE",
"437 470 LINE",
"271 470 LINE"
);
},
{
closed = 1;
nodes = (
"218 -227 OFFCURVE",
"272 -142 OFFCURVE",
"272 28 CURVE SMOOTH",
"272 470 LINE",
"112 470 LINE",
"112 28 LINE SMOOTH",
"112 -80 OFFCURVE",
"96 -108 OFFCURVE",
"17 -141 CURVE",
"75 -285 LINE"
);
},
{
closed = 1;
nodes = (
"1213 0 OFFCURVE",
"1305 56 OFFCURVE",
"1305 268 CURVE SMOOTH",
"1305 338 OFFCURVE",
"1298 406 OFFCURVE",
"1275 470 CURVE",
"1116 446 LINE",
"1133 380 OFFCURVE",
"1145 320 OFFCURVE",
"1145 258 CURVE SMOOTH",
"1145 224 OFFCURVE",
"1143 200 OFFCURVE",
"1136 180 CURVE",
"1025 180 LINE SMOOTH",
"978 180 OFFCURVE",
"951 190 OFFCURVE",
"951 233 CURVE SMOOTH",
"951 380 LINE",
"791 380 LINE",
"791 258 LINE SMOOTH",
"791 54 OFFCURVE",
"836 0 OFFCURVE",
"1039 0 CURVE SMOOTH"
);
},
{
closed = 1;
nodes = (
"908 0 OFFCURVE",
"951 54 OFFCURVE",
"951 258 CURVE SMOOTH",
"951 380 LINE",
"791 380 LINE",
"791 233 LINE SMOOTH",
"791 190 OFFCURVE",
"764 180 OFFCURVE",
"717 180 CURVE SMOOTH",
"597 180 LINE",
"597 0 LINE",
"673 0 LINE"
);
}
);
width = 1370;
}
);
leftMetricsKey = "=reh-ar";
rightMetricsKey = "=seen-ar.init";
unicode = FD0E;
},
{
color = 4;
glyphname = "seen_reh-ar.fina";
layers = (
{
anchors = (
{
name = bottom;
position = "{126, -330}";
},
{
name = bottom_1;
position = "{871, -80}";
},
{
name = caret_1;
position = "{617, 0}";
},
{
name = entry;
position = "{1375, 90}";
},
{
name = top;
position = "{191, 550}";
},
{
name = top_1;
position = "{871, 550}";
}
);
components = (
{
name = "seen_reh-ar";
}
);
hints = (
{
horizontal = 1;
origin = "{0, 3}";
target = "{0, 2}";
}
);
layerId = "6DB5A621-F658-4304-B48E-115D54993538";
paths = (
{
closed = 1;
nodes = (
"1395 0 LINE",
"1395 180 LINE",
"1214 180 LINE",
"1039 0 LINE"
);
}
);
width = 1375;
}
);
leftMetricsKey = "=reh-ar";
unicode = FD2A;
},
{
color = 4;
glyphname = "seen_alefMaksura-ar";
layers = (
{
anchors = (
{
name = bottom;
position = "{1388, -80}";
},
{
name = bottom_2;
position = "{436, -330}";
},
{
name = caret_1;
position = "{771, 0}";
},
{
name = top;
position = "{1388, 550}";
},
{
name = top_2;
position = "{186, 240}";
}
);
hints = (
{
horizontal = 1;
origin = "{1, 2}";
target = "{1, 26}";
},
{
horizontal = 1;
origin = "{0, 3}";
target = "{3, 9}";
},
{
horizontal = 1;
origin = "{1, 14}";
target = "{1, 11}";
},
{
origin = "{1, 36}";
target = "{1, 29}";
},
{
origin = "{1, 17}";
target = "{1, 10}";
},
{
origin = "{1, 22}";
target = "{1, 5}";
},
{
origin = "{0, 3}";
target = "{0, 0}";
},
{
origin = "{3, 5}";
target = "{2, 16}";
},
{
origin = "{2, 9}";
target = "{2, 2}";
},
{
horizontal = 1;
origin = "{2, 18}";
target = down;
type = TopGhost;
}
);
layerId = "6DB5A621-F658-4304-B48E-115D54993538";
paths = (
{
closed = 1;
nodes = (
"1114 0 LINE",
"1114 470 LINE",
"954 470 LINE",
"954 0 LINE"
);
},
{
closed = 1;
nodes = (
"60 -228 OFFCURVE",
"143 -290 OFFCURVE",
"436 -290 CURVE SMOOTH",
"730 -290 OFFCURVE",
"814 -227 OFFCURVE",
"814 -41 CURVE SMOOTH",
"814 39 LINE SMOOTH",
"814 148 OFFCURVE",
"778 200 OFFCURVE",
"648 214 CURVE SMOOTH",
"524 226 LINE",
"524 290 LINE",
"954 290 LINE",
"954 470 LINE",
"590 470 LINE SMOOTH",
"393 470 OFFCURVE",
"354 419 OFFCURVE",
"354 256 CURVE SMOOTH",
"354 122 OFFCURVE",
"384 66 OFFCURVE",
"524 52 CURVE SMOOTH",
"654 39 LINE",
"654 -57 LINE SMOOTH",
"654 -100 OFFCURVE",
"615 -110 OFFCURVE",
"510 -110 CURVE SMOOTH",
"229 -110 LINE",
"222 -84 OFFCURVE",
"220 -53 OFFCURVE",
"220 -11 CURVE SMOOTH",
"220 38 OFFCURVE",
"233 85 OFFCURVE",
"250 136 CURVE",
"94 161 LINE",
"71 96 OFFCURVE",
"60 27 OFFCURVE",
"60 -41 CURVE SMOOTH"
);
},
{
closed = 1;
nodes = (
"1730 0 OFFCURVE",
"1822 56 OFFCURVE",
"1822 268 CURVE SMOOTH",
"1822 338 OFFCURVE",
"1815 406 OFFCURVE",
"1792 470 CURVE",
"1633 446 LINE",
"1650 380 OFFCURVE",
"1662 320 OFFCURVE",
"1662 258 CURVE SMOOTH",
"1662 224 OFFCURVE",
"1660 200 OFFCURVE",
"1653 180 CURVE",
"1542 180 LINE SMOOTH",
"1495 180 OFFCURVE",
"1468 190 OFFCURVE",
"1468 233 CURVE SMOOTH",
"1468 380 LINE",
"1308 380 LINE",
"1308 258 LINE SMOOTH",
"1308 54 OFFCURVE",
"1353 0 OFFCURVE",
"1556 0 CURVE SMOOTH"
);
},
{
closed = 1;
nodes = (
"1425 0 OFFCURVE",
"1468 54 OFFCURVE",
"1468 258 CURVE SMOOTH",
"1468 380 LINE",
"1308 380 LINE",
"1308 233 LINE SMOOTH",
"1308 190 OFFCURVE",
"1281 180 OFFCURVE",
"1234 180 CURVE SMOOTH",
"1114 180 LINE",
"1114 0 LINE",
"1190 0 LINE"
);
}
);
width = 1887;
}
);
leftMetricsKey = "alefMaksura-ar";
rightMetricsKey = "seen-ar.init";
unicode = FCFB;
},
{
color = 4;
glyphname = "seen_alefMaksura-ar.fina";
layers = (
{
anchors = (
{
name = bottom;
position = "{1388, -80}";
},
{
name = bottom_2;
position = "{436, -330}";
},
{
name = caret_1;
position = "{771, 0}";
},
{
name = entry;
position = "{1892, 90}";
},
{
name = top;
position = "{1388, 550}";
},
{
name = top_2;
position = "{186, 240}";
}
);
color = 1;
components = (
{
name = "seen_alefMaksura-ar";
}
);
hints = (
{
horizontal = 1;
origin = "{0, 0}";
target = "{0, 3}";
}
);
layerId = "6DB5A621-F658-4304-B48E-115D54993538";
paths = (
{
closed = 1;
nodes = (
"1556 0 LINE",
"1912 0 LINE",
"1912 180 LINE",
"1731 180 LINE"
);
}
);
width = 1892;
}
);
leftMetricsKey = "alefMaksura-ar";
unicode = FD17;
},
{
color = 4;
glyphname = "sad_reh-ar";
layers = (
{
anchors = (
{
name = bottom;
position = "{126, -330}";
},
{
name = bottom_1;
position = "{807, -80}";
},
{
name = caret_1;
position = "{617, 0}";
},
{
name = top;
position = "{191, 550}";
},
{
name = top_1;
position = "{807, 550}";
}
);
color = 1;
hints = (
{
horizontal = 1;
origin = "{1, 5}";
target = "{2, 0}";
},
{
horizontal = 1;
origin = "{3, 4}";
target = "{3, 14}";
},
{
horizontal = 1;
origin = "{1, 4}";
target = "{0, 0}";
},
{
origin = "{1, 5}";
target = "{1, 2}";
},
{
origin = "{2, 1}";
target = "{3, 11}";
},
{
origin = "{3, 18}";
target = "{2, 2}";
}
);
layerId = "6DB5A621-F658-4304-B48E-115D54993538";
paths = (
{
closed = 1;
nodes = (
"271 289 LINE",
"437 289 LINE",
"437 469 LINE",
"271 469 LINE"
);
},
{
closed = 1;
nodes = (
"218 -228 OFFCURVE",
"272 -143 OFFCURVE",
"272 27 CURVE SMOOTH",
"272 469 LINE",
"112 469 LINE",
"112 27 LINE SMOOTH",
"112 -81 OFFCURVE",
"96 -109 OFFCURVE",
"17 -142 CURVE",
"75 -286 LINE"
);
},
{
closed = 1;
nodes = (
"437 179 LINE",
"437 -1 LINE",
"1089 -1 LINE",
"1089 179 LINE"
);
},
{
closed = 1;
nodes = (
"1089 -1 LINE",
"1089 289 LINE SMOOTH",
"1089 435 OFFCURVE",
"1040 479 OFFCURVE",
"875 479 CURVE SMOOTH",
"751 479 OFFCURVE",
"636 423 OFFCURVE",
"597 343 CURVE",
"597 469 LINE",
"437 469 LINE",
"437 123 LINE",
"597 123 LINE",
"597 239 OFFCURVE",
"669 299 OFFCURVE",
"808 299 CURVE SMOOTH",
"863 299 OFFCURVE",
"907 295 OFFCURVE",
"929 288 CURVE",
"929 -1 LINE"
);
}
);
width = 1159;
}
);
leftMetricsKey = "=reh-ar";
rightMetricsKey = "=sad-ar.init";
unicode = FD0F;
},
{
color = 4;
glyphname = "sad_reh-ar.fina";
layers = (
{
anchors = (
{
name = bottom;
position = "{146, -330}";
},
{
name = bottom_1;
position = "{827, -80}";
},
{
name = caret_1;
position = "{637, 0}";
},
{
name = entry;
position = "{1159, 90}";
},
{
name = top;
position = "{191, 550}";
},
{
name = top_1;
position = "{827, 550}";
}
);
color = 1;
components = (
{
name = "sad_reh-ar";
}
);
hints = (
{
horizontal = 1;
origin = "{0, 0}";
target = "{0, 3}";
}
);
layerId = "6DB5A621-F658-4304-B48E-115D54993538";
paths = (
{
closed = 1;
nodes = (
"1089 0 LINE",
"1179 0 LINE",
"1179 180 LINE",
"1089 180 LINE"
);
}
);
width = 1159;
}
);
leftMetricsKey = "=reh-ar";
rightMetricsKey = "reh-ar.fina";
unicode = FD2B;
},
{
color = 4;
glyphname = "meem_reh-ar.fina";
layers = (
{
anchors = (
{
name = bottom;
position = "{125, -330}";
},
{
name = bottom_1;
position = "{730, -80}";
},
{
name = caret_1;
position = "{449, 0}";
},
{
name = top;
position = "{190, 550}";
},
{
name = top_1;
position = "{730, 550}";
}
);
color = 1;
components = (
{
name = "reh-ar";
}
);
hints = (
{
horizontal = 1;
place = "{-10, 79}";
},
{
horizontal = 1;
place = "{470, -70}";
},
{
place = "{429, 96}";
},
{
place = "{774, 101}";
}
);
layerId = "6DB5A621-F658-4304-B48E-115D54993538";
paths = (
{
closed = 1;
nodes = (
"489 290 LINE",
"474 244 OFFCURVE",
"469 216 OFFCURVE",
"469 170 CURVE SMOOTH",
"469 49 OFFCURVE",
"548 -15 OFFCURVE",
"729 -15 CURVE SMOOTH",
"827 -15 OFFCURVE",
"895 -4 OFFCURVE",
"969 25 CURVE",
"969 470 LINE",
"272 470 LINE",
"272 290 LINE"
);
},
{
closed = 1;
nodes = (
"809 290 LINE",
"809 203 LINE SMOOTH",
"809 174 OFFCURVE",
"800 165 OFFCURVE",
"770 165 CURVE SMOOTH",
"639 165 LINE",
"639 252 LINE SMOOTH",
"639 281 OFFCURVE",
"649 290 OFFCURVE",
"678 290 CURVE SMOOTH"
);
}
);
width = 1034;
}
);
leftMetricsKey = "=reh-ar";
rightMetricsKey = "meem-ar.init";
},
{
color = 4;
glyphname = "alefMaksura_reh-ar.fina";
layers = (
{
anchors = (
{
name = bottom;
position = "{126, -330}";
},
{
name = bottom_1;
position = "{516, -80}";
},
{
name = caret_1;
position = "{354, 0}";
},
{
name = entry;
position = "{665, 90}";
},
{
name = top;
position = "{191, 550}";
},
{
name = top_1;
position = "{516, 550}";
}
);
color = 1;
hints = (
{
horizontal = 1;
place = "{-230, 82}";
},
{
horizontal = 1;
origin = "{0, 5}";
target = "{0, 2}";
},
{
horizontal = 1;
origin = "{1, 3}";
target = "{1, 0}";
},
{
place = "{121, 100}";
},
{
origin = "{0, 5}";
target = "{0, 2}";
}
);
layerId = "6DB5A621-F658-4304-B48E-115D54993538";
paths = (
{
closed = 1;
nodes = (
"687 0 LINE",
"687 180 LINE",
"597 180 LINE",
"597 470 LINE",
"437 470 LINE",
"437 0 LINE"
);
},
{
closed = 1;
nodes = (
"271 290 LINE",
"437 290 LINE",
"437 470 LINE",
"271 470 LINE"
);
},
{
closed = 1;
nodes = (
"218 -227 OFFCURVE",
"272 -142 OFFCURVE",
"272 28 CURVE SMOOTH",
"272 470 LINE",
"112 470 LINE",
"112 28 LINE SMOOTH",
"112 -80 OFFCURVE",
"96 -108 OFFCURVE",
"17 -141 CURVE",
"75 -285 LINE"
);
}
);
width = 667;
}
);
leftMetricsKey = "=reh-ar";
rightMetricsKey = "reh-ar.fina";
},
{
color = 4;
glyphname = "alefMaksura_meem-ar.init";
layers = (
{
anchors = (
{
name = bottom;
position = "{320, -330}";
},
{
name = bottom_1;
position = "{859, -80}";
},
{
name = caret_1;
position = "{634, 0}";
},
{
name = entry;
position = "{1008, 90}";
},
{
name = top;
position = "{336, 782}";
},
{
name = top_1;
position = "{859, 550}";
}
);
color = 1;
components = (
{
name = "noonghunna-ar";
},
{
name = "dotabove-ar";
transform = "{1, 0, 0, 1, 207, 0}";
}
);
hints = (
{
horizontal = 1;
origin = "{0, 5}";
target = "{0, 2}";
},
{
horizontal = 1;
origin = "{1, 3}";
target = "{1, 0}";
},
{
origin = "{0, 5}";
target = "{0, 2}";
}
);
layerId = "6DB5A621-F658-4304-B48E-115D54993538";
paths = (
{
closed = 1;
nodes = (
"1030 0 LINE",
"1030 180 LINE",
"940 180 LINE",
"940 470 LINE",
"780 470 LINE",
"780 0 LINE"
);
},
{
closed = 1;
nodes = (
"614 290 LINE",
"780 290 LINE",
"780 470 LINE",
"614 470 LINE"
);
}
);
width = 1010;
}
);
leftMetricsKey = "noonghunna-ar";
rightMetricsKey = "meem-ar.fina";
},
{
color = 10;
glyphname = zero;
layers = (
{
hints = (
{
horizontal = 1;
origin = "{0, 2}";
target = "{1, 5}";
},
{
horizontal = 1;
origin = "{0, 8}";
target = "{1, 9}";
},
{
origin = "{0, 11}";
target = "{1, 8}";
},
{
origin = "{1, 4}";
target = "{0, 5}";
},
{
horizontal = 1;
origin = "{0, 2}";
target = up;
type = BottomGhost;
},
{
horizontal = 1;
origin = "{0, 8}";
target = down;
type = TopGhost;
}
);
layerId = "6DB5A621-F658-4304-B48E-115D54993538";
paths = (
{
closed = 1;
nodes = (
"40 64 OFFCURVE",
"112 -15 OFFCURVE",
"338 -15 CURVE SMOOTH",
"564 -15 OFFCURVE",
"635 63 OFFCURVE",
"635 312 CURVE SMOOTH",
"635 562 OFFCURVE",
"564 640 OFFCURVE",
"338 640 CURVE SMOOTH",
"112 640 OFFCURVE",
"40 561 OFFCURVE",
"40 312 CURVE SMOOTH"
);
},
{
closed = 1;
nodes = (
"351 469 LINE SMOOTH",
"406 469 OFFCURVE",
"420 458 OFFCURVE",
"420 416 CURVE SMOOTH",
"420 156 LINE",
"318 156 LINE SMOOTH",
"266 156 OFFCURVE",
"255 166 OFFCURVE",
"255 209 CURVE SMOOTH",
"255 469 LINE"
);
}
);
width = 675;
}
);
leftKerningGroup = zero;
rightKerningGroup = zero;
unicode = 0030;
},
{
color = 10;
glyphname = one;
layers = (
{
hints = (
{
horizontal = 1;
origin = "{0, 9}";
target = "{0, 8}";
},
{
origin = "{0, 7}";
target = "{0, 2}";
},
{
horizontal = 1;
origin = "{0, 9}";
target = up;
type = BottomGhost;
},
{
horizontal = 1;
origin = "{0, 3}";
target = down;
type = TopGhost;
}
);
layerId = "6DB5A621-F658-4304-B48E-115D54993538";
paths = (
{
closed = 1;
nodes = (
"515 0 LINE",
"515 165 LINE",
"393 165 LINE",
"393 640 LINE",
"15 610 LINE",
"15 430 LINE",
"193 444 LINE",
"193 165 LINE",
"25 165 LINE",
"25 0 LINE"
);
}
);
width = 535;
}
);
leftKerningGroup = one;
rightKerningGroup = one;
unicode = 0031;
},
{
color = 10;
glyphname = two;
layers = (
{
hints = (
{
horizontal = 1;
origin = "{0, 24}";
target = "{0, 2}";
},
{
horizontal = 1;
origin = "{0, 9}";
target = "{0, 16}";
},
{
origin = "{0, 24}";
target = "{0, 2}";
},
{
origin = "{0, 20}";
target = "{0, 6}";
},
{
horizontal = 1;
origin = "{0, 24}";
target = up;
type = BottomGhost;
},
{
horizontal = 1;
origin = "{0, 9}";
target = down;
type = TopGhost;
}
);
layerId = "6DB5A621-F658-4304-B48E-115D54993538";
paths = (
{
closed = 1;
nodes = (
"545 0 LINE",
"545 165 LINE",
"225 165 LINE",
"225 184 LINE",
"510 297 OFFCURVE",
"555 335 OFFCURVE",
"555 460 CURVE SMOOTH",
"555 583 OFFCURVE",
"473 640 OFFCURVE",
"297 640 CURVE SMOOTH",
"222 640 OFFCURVE",
"130 628 OFFCURVE",
"46 608 CURVE",
"73 450 LINE",
"130 462 OFFCURVE",
"196 469 OFFCURVE",
"247 469 CURVE SMOOTH",
"291 469 OFFCURVE",
"319 467 OFFCURVE",
"340 462 CURVE",
"340 406 LINE",
"99 310 OFFCURVE",
"35 258 OFFCURVE",
"35 150 CURVE SMOOTH",
"35 0 LINE"
);
}
);
width = 595;
}
);
leftKerningGroup = two;
rightKerningGroup = two;
unicode = 0032;
},
{
color = 10;
glyphname = three;
layers = (
{
hints = (
{
horizontal = 1;
origin = "{0, 37}";
target = "{0, 30}";
},
{
horizontal = 1;
origin = "{0, 12}";
target = "{0, 19}";
},
{
origin = "{0, 27}";
target = "{0, 2}";
},
{
horizontal = 1;
origin = "{0, 37}";
target = up;
type = BottomGhost;
},
{
horizontal = 1;
origin = "{0, 12}";
target = down;
type = TopGhost;
}
);
layerId = "6DB5A621-F658-4304-B48E-115D54993538";
paths = (
{
closed = 1;
nodes = (
"443 -14 OFFCURVE",
"526 42 OFFCURVE",
"526 163 CURVE SMOOTH",
"526 235 OFFCURVE",
"493 284 OFFCURVE",
"427 310 CURVE",
"427 315 LINE",
"494 348 OFFCURVE",
"526 402 OFFCURVE",
"526 480 CURVE SMOOTH",
"526 589 OFFCURVE",
"444 640 OFFCURVE",
"269 640 CURVE SMOOTH",
"198 640 OFFCURVE",
"106 628 OFFCURVE",
"18 608 CURVE",
"45 450 LINE",
"98 462 OFFCURVE",
"164 469 OFFCURVE",
"219 469 CURVE SMOOTH",
"263 469 OFFCURVE",
"290 467 OFFCURVE",
"311 462 CURVE",
"311 395 LINE",
"139 365 LINE",
"139 260 LINE",
"311 233 LINE",
"311 164 LINE",
"288 159 OFFCURVE",
"260 157 OFFCURVE",
"214 157 CURVE SMOOTH",
"158 157 OFFCURVE",
"91 164 OFFCURVE",
"37 176 CURVE",
"10 18 LINE",
"99 -2 OFFCURVE",
"193 -14 OFFCURVE",
"265 -14 CURVE SMOOTH"
);
}
);
width = 556;
}
);
leftKerningGroup = three;
rightKerningGroup = three;
unicode = 0033;
},
{
color = 10;
glyphname = four;
layers = (
{
hints = (
{
horizontal = 1;
origin = "{0, 9}";
target = "{1, 3}";
},
{
horizontal = 1;
origin = "{0, 7}";
target = "{1, 0}";
},
{
origin = "{0, 0}";
target = "{0, 1}";
},
{
horizontal = 1;
origin = "{0, 0}";
target = up;
type = BottomGhost;
},
{
horizontal = 1;
origin = "{0, 7}";
target = down;
type = TopGhost;
}
);
layerId = "6DB5A621-F658-4304-B48E-115D54993538";
paths = (
{
closed = 1;
nodes = (
"329 0 LINE",
"529 0 LINE",
"529 107 LINE",
"597 107 LINE",
"597 272 LINE",
"529 272 LINE",
"529 625 LINE",
"174 625 LINE",
"10 226 LINE",
"10 107 LINE",
"329 107 LINE"
);
},
{
closed = 1;
nodes = (
"301 475 LINE",
"329 475 LINE",
"329 272 LINE",
"218 272 LINE"
);
}
);
width = 627;
}
);
leftKerningGroup = four;
rightKerningGroup = four;
unicode = 0034;
},
{
color = 10;
glyphname = five;
layers = (
{
hints = (
{
horizontal = 1;
origin = "{0, 26}";
target = "{0, 19}";
},
{
horizontal = 1;
origin = "{0, 7}";
target = "{0, 10}";
},
{
origin = "{0, 11}";
target = "{0, 6}";
},
{
origin = "{0, 16}";
target = "{0, 2}";
},
{
horizontal = 1;
origin = "{0, 26}";
target = up;
type = BottomGhost;
},
{
horizontal = 1;
origin = "{0, 10}";
target = down;
type = TopGhost;
}
);
layerId = "6DB5A621-F658-4304-B48E-115D54993538";
paths = (
{
closed = 1;
nodes = (
"477 -15 OFFCURVE",
"559 48 OFFCURVE",
"559 185 CURVE SMOOTH",
"559 309 OFFCURVE",
"492 368 OFFCURVE",
"328 387 CURVE SMOOTH",
"269 394 LINE",
"269 460 LINE",
"506 460 LINE",
"521 625 LINE",
"69 625 LINE",
"59 363 LINE",
"59 271 OFFCURVE",
"103 242 OFFCURVE",
"269 225 CURVE SMOOTH",
"344 217 LINE",
"344 163 LINE",
"318 158 OFFCURVE",
"286 156 OFFCURVE",
"231 156 CURVE SMOOTH",
"190 156 OFFCURVE",
"134 162 OFFCURVE",
"67 175 CURVE",
"40 17 LINE",
"119 -4 OFFCURVE",
"209 -15 OFFCURVE",
"301 -15 CURVE SMOOTH"
);
}
);
width = 589;
}
);
leftKerningGroup = five;
rightKerningGroup = five;
unicode = 0035;
},
{
color = 10;
glyphname = six;
layers = (
{
hints = (
{
horizontal = 1;
origin = "{1, 20}";
target = "{0, 4}";
},
{
horizontal = 1;
origin = "{0, 8}";
target = "{1, 3}";
},
{
horizontal = 1;
origin = "{1, 14}";
target = "{1, 7}";
},
{
origin = "{1, 17}";
target = "{0, 4}";
},
{
origin = "{0, 0}";
target = "{1, 23}";
},
{
horizontal = 1;
origin = "{1, 20}";
target = up;
type = BottomGhost;
},
{
horizontal = 1;
origin = "{1, 14}";
target = down;
type = TopGhost;
}
);
layerId = "6DB5A621-F658-4304-B48E-115D54993538";
paths = (
{
closed = 1;
nodes = (
"365 184 LINE SMOOTH",
"365 150 OFFCURVE",
"357 142 OFFCURVE",
"324 142 CURVE SMOOTH",
"250 142 LINE",
"250 215 LINE SMOOTH",
"250 249 OFFCURVE",
"258 257 OFFCURVE",
"291 257 CURVE SMOOTH",
"365 257 LINE"
);
},
{
closed = 1;
nodes = (
"580 340 OFFCURVE",
"498 399 OFFCURVE",
"304 399 CURVE SMOOTH",
"250 399 LINE",
"250 460 LINE",
"271 466 OFFCURVE",
"311 469 OFFCURVE",
"368 469 CURVE SMOOTH",
"410 469 OFFCURVE",
"478 461 OFFCURVE",
"529 450 CURVE",
"556 608 LINE",
"515 623 OFFCURVE",
"410 640 OFFCURVE",
"358 640 CURVE SMOOTH",
"118 640 OFFCURVE",
"35 556 OFFCURVE",
"35 312 CURVE SMOOTH",
"35 74 OFFCURVE",
"109 -15 OFFCURVE",
"307 -15 CURVE SMOOTH",
"499 -15 OFFCURVE",
"580 49 OFFCURVE",
"580 200 CURVE SMOOTH"
);
}
);
width = 615;
}
);
leftKerningGroup = six;
rightKerningGroup = six;
unicode = 0036;
},
{
color = 10;
glyphname = seven;
layers = (
{
hints = (
{
horizontal = 1;
origin = "{0, 3}";
target = "{0, 2}";
},
{
horizontal = 1;
origin = "{0, 5}";
target = up;
type = BottomGhost;
},
{
horizontal = 1;
origin = "{0, 2}";
target = down;
type = TopGhost;
}
);
layerId = "6DB5A621-F658-4304-B48E-115D54993538";
paths = (
{
closed = 1;
nodes = (
"480 500 LINE",
"480 625 LINE",
"5 625 LINE",
"20 460 LINE",
"261 460 LINE",
"82 0 LINE",
"287 0 LINE"
);
}
);
width = 500;
}
);
leftKerningGroup = seven;
rightKerningGroup = seven;
unicode = 0037;
},
{
color = 10;
glyphname = eight;
layers = (
{
hints = (
{
horizontal = 1;
origin = "{0, 12}";
target = "{1, 5}";
},
{
horizontal = 1;
origin = "{0, 25}";
target = "{2, 4}";
},
{
origin = "{0, 9}";
target = "{1, 5}";
},
{
origin = "{1, 0}";
target = "{0, 22}";
},
{
origin = "{1, 1}";
target = "{0, 15}";
},
{
horizontal = 1;
origin = "{0, 12}";
target = up;
type = BottomGhost;
},
{
horizontal = 1;
origin = "{0, 25}";
target = down;
type = TopGhost;
}
);
layerId = "6DB5A621-F658-4304-B48E-115D54993538";
paths = (
{
closed = 1;
nodes = (
"139 640 OFFCURVE",
"57 581 OFFCURVE",
"57 459 CURVE SMOOTH",
"57 399 OFFCURVE",
"75 345 OFFCURVE",
"105 315 CURVE",
"105 308 LINE",
"64 283 OFFCURVE",
"35 227 OFFCURVE",
"35 171 CURVE SMOOTH",
"35 40 OFFCURVE",
"116 -15 OFFCURVE",
"308 -15 CURVE SMOOTH",
"500 -15 OFFCURVE",
"581 40 OFFCURVE",
"581 171 CURVE SMOOTH",
"581 227 OFFCURVE",
"552 283 OFFCURVE",
"510 308 CURVE",
"510 315 LINE",
"541 345 OFFCURVE",
"559 398 OFFCURVE",
"559 459 CURVE SMOOTH",
"559 581 OFFCURVE",
"477 640 OFFCURVE",
"308 640 CURVE SMOOTH"
);
},
{
closed = 1;
nodes = (
"366 201 LINE",
"366 174 LINE SMOOTH",
"366 148 OFFCURVE",
"357 142 OFFCURVE",
"323 142 CURVE SMOOTH",
"250 142 LINE",
"250 223 LINE SMOOTH",
"250 234 OFFCURVE",
"254 240 OFFCURVE",
"261 240 CURVE SMOOTH",
"267 240 OFFCURVE",
"272 238 OFFCURVE",
"282 234 CURVE SMOOTH"
);
},
{
closed = 1;
nodes = (
"250 423 LINE",
"251 451 LINE SMOOTH",
"252 477 OFFCURVE",
"260 483 OFFCURVE",
"294 483 CURVE SMOOTH",
"365 483 LINE",
"365 403 LINE SMOOTH",
"365 393 OFFCURVE",
"357 385 OFFCURVE",
"345 385 CURVE SMOOTH",
"340 385 OFFCURVE",
"337 386 OFFCURVE",
"329 389 CURVE SMOOTH"
);
}
);
width = 616;
}
);
leftKerningGroup = eight;
rightKerningGroup = eight;
unicode = 0038;
},
{
color = 10;
glyphname = nine;
layers = (
{
hints = (
{
horizontal = 1;
origin = "{1, 14}";
target = "{1, 7}";
},
{
horizontal = 1;
origin = "{1, 2}";
target = "{0, 5}";
},
{
horizontal = 1;
origin = "{0, 9}";
target = "{1, 20}";
},
{
origin = "{1, 23}";
target = "{0, 8}";
},
{
origin = "{1, 4}";
target = "{1, 17}";
},
{
horizontal = 1;
origin = "{1, 14}";
target = up;
type = BottomGhost;
},
{
horizontal = 1;
origin = "{1, 20}";
target = down;
type = TopGhost;
}
);
layerId = "6DB5A621-F658-4304-B48E-115D54993538";
paths = (
{
closed = 1;
nodes = (
"324 483 LINE SMOOTH",
"357 483 OFFCURVE",
"365 475 OFFCURVE",
"365 441 CURVE SMOOTH",
"365 368 LINE",
"291 368 LINE SMOOTH",
"258 368 OFFCURVE",
"250 376 OFFCURVE",
"250 410 CURVE SMOOTH",
"250 483 LINE"
);
},
{
closed = 1;
nodes = (
"35 285 OFFCURVE",
"117 226 OFFCURVE",
"311 226 CURVE SMOOTH",
"365 226 LINE",
"365 165 LINE",
"344 159 OFFCURVE",
"304 156 OFFCURVE",
"247 156 CURVE SMOOTH",
"202 156 OFFCURVE",
"130 164 OFFCURVE",
"76 175 CURVE",
"49 17 LINE",
"92 2 OFFCURVE",
"202 -15 OFFCURVE",
"257 -15 CURVE SMOOTH",
"497 -15 OFFCURVE",
"580 69 OFFCURVE",
"580 313 CURVE SMOOTH",
"580 551 OFFCURVE",
"506 640 OFFCURVE",
"308 640 CURVE SMOOTH",
"116 640 OFFCURVE",
"35 576 OFFCURVE",
"35 425 CURVE SMOOTH"
);
}
);
width = 615;
}
);
leftKerningGroup = nine;
rightKerningGroup = nine;
unicode = 0039;
},
{
color = 10;
glyphname = fraction;
layers = (
{
layerId = "6DB5A621-F658-4304-B48E-115D54993538";
paths = (
{
closed = 1;
nodes = (
"303 665 LINE",
"252 665 LINE",
"224 665 OFFCURVE",
"218 656 OFFCURVE",
"209 640 CURVE SMOOTH",
"-60 -40 LINE",
"-9 -40 LINE SMOOTH",
"19 -40 OFFCURVE",
"25 -31 OFFCURVE",
"34 -15 CURVE"
);
}
);
width = 243;
}
);
leftKerningGroup = fraction;
rightKerningGroup = fraction;
unicode = 2044;
},
{
color = 10;
glyphname = zero.dnom;
layers = (
{
layerId = "6DB5A621-F658-4304-B48E-115D54993538";
paths = (
{
closed = 1;
nodes = (
"58 39 OFFCURVE",
"100 -10 OFFCURVE",
"257 -10 CURVE SMOOTH",
"414 -10 OFFCURVE",
"456 38 OFFCURVE",
"456 203 CURVE SMOOTH",
"456 368 OFFCURVE",
"413 416 OFFCURVE",
"257 416 CURVE SMOOTH",
"101 416 OFFCURVE",
"58 367 OFFCURVE",
"58 203 CURVE SMOOTH"
);
},
{
closed = 1;
nodes = (
"273 312 LINE SMOOTH",
"316 312 OFFCURVE",
"327 305 OFFCURVE",
"327 278 CURVE SMOOTH",
"327 94 LINE",
"237 94 LINE SMOOTH",
"195 94 OFFCURVE",
"186 100 OFFCURVE",
"186 128 CURVE SMOOTH",
"186 312 LINE"
);
}
);
width = 514;
}
);
leftKerningGroup = zero.dnom;
rightKerningGroup = zero.dnom;
userData = {
RMXScaler = {
source = zero;
};
};
},
{
color = 10;
glyphname = one.dnom;
layers = (
{
hints = (
{
horizontal = 1;
origin = "{0, 9}";
target = "{0, 8}";
},
{
origin = "{0, 7}";
target = "{0, 2}";
}
);
layerId = "6DB5A621-F658-4304-B48E-115D54993538";
paths = (
{
closed = 1;
nodes = (
"368 0 LINE",
"368 100 LINE",
"283 100 LINE",
"283 416 LINE",
"42 397 LINE",
"42 288 LINE",
"163 297 LINE",
"163 100 LINE",
"49 100 LINE",
"49 0 LINE"
);
}
);
width = 413;
}
);
leftKerningGroup = one.dnom;
rightKerningGroup = one.dnom;
userData = {
RMXScaler = {
source = one;
};
};
},
{
color = 10;
glyphname = two.dnom;
layers = (
{
hints = (
{
horizontal = 1;
origin = "{0, 24}";
target = "{0, 2}";
},
{
horizontal = 1;
origin = "{0, 16}";
target = "{0, 9}";
},
{
origin = "{0, 24}";
target = "{0, 2}";
},
{
origin = "{0, 20}";
target = "{0, 6}";
}
);
layerId = "6DB5A621-F658-4304-B48E-115D54993538";
paths = (
{
closed = 1;
nodes = (
"395 0 LINE",
"395 100 LINE",
"169 100 LINE",
"169 121 LINE",
"375 196 OFFCURVE",
"402 220 OFFCURVE",
"402 301 CURVE SMOOTH",
"402 380 OFFCURVE",
"348 416 OFFCURVE",
"230 416 CURVE SMOOTH",
"178 416 OFFCURVE",
"118 408 OFFCURVE",
"64 396 CURVE",
"80 300 LINE",
"122 308 OFFCURVE",
"170 312 OFFCURVE",
"208 312 CURVE SMOOTH",
"239 312 OFFCURVE",
"259 311 OFFCURVE",
"273 308 CURVE",
"273 263 LINE",
"93 198 OFFCURVE",
"55 166 OFFCURVE",
"55 92 CURVE SMOOTH",
"55 0 LINE"
);
}
);
width = 460;
}
);
leftKerningGroup = two.dnom;
rightKerningGroup = two.dnom;
userData = {
RMXScaler = {
source = two;
};
};
},
{
color = 10;
glyphname = three.dnom;
layers = (
{
hints = (
{
horizontal = 1;
origin = "{0, 37}";
target = "{0, 30}";
},
{
horizontal = 1;
origin = "{0, 19}";
target = "{0, 12}";
},
{
origin = "{0, 27}";
target = "{0, 2}";
}
);
layerId = "6DB5A621-F658-4304-B48E-115D54993538";
paths = (
{
closed = 1;
nodes = (
"333 -9 OFFCURVE",
"383 27 OFFCURVE",
"383 106 CURVE SMOOTH",
"383 152 OFFCURVE",
"362 185 OFFCURVE",
"318 202 CURVE",
"318 205 LINE",
"361 226 OFFCURVE",
"383 261 OFFCURVE",
"383 311 CURVE SMOOTH",
"383 382 OFFCURVE",
"329 416 OFFCURVE",
"215 416 CURVE SMOOTH",
"163 416 OFFCURVE",
"103 408 OFFCURVE",
"49 396 CURVE",
"65 300 LINE",
"104 308 OFFCURVE",
"152 312 OFFCURVE",
"191 312 CURVE SMOOTH",
"221 312 OFFCURVE",
"240 311 OFFCURVE",
"254 308 CURVE",
"254 255 LINE",
"133 235 LINE",
"133 172 LINE",
"254 155 LINE",
"254 99 LINE",
"238 96 OFFCURVE",
"218 94 OFFCURVE",
"184 94 CURVE SMOOTH",
"145 94 OFFCURVE",
"97 99 OFFCURVE",
"57 107 CURVE",
"41 11 LINE",
"95 -2 OFFCURVE",
"156 -9 OFFCURVE",
"207 -9 CURVE SMOOTH"
);
}
);
width = 435;
}
);
leftKerningGroup = three.dnom;
rightKerningGroup = three.dnom;
userData = {
RMXScaler = {
source = three;
};
};
},
{
color = 10;
glyphname = four.dnom;
layers = (
{
hints = (
{
horizontal = 1;
origin = "{0, 9}";
target = "{1, 3}";
},
{
horizontal = 1;
origin = "{1, 0}";
target = "{0, 7}";
},
{
origin = "{0, 0}";
target = "{0, 1}";
},
{
horizontal = 1;
origin = "{0, 0}";
target = up;
type = BottomGhost;
}
);
layerId = "6DB5A621-F658-4304-B48E-115D54993538";
paths = (
{
closed = 1;
nodes = (
"266 0 LINE",
"386 0 LINE",
"386 72 LINE",
"433 72 LINE",
"433 172 LINE",
"386 172 LINE",
"386 406 LINE",
"168 406 LINE",
"41 144 LINE",
"41 72 LINE",
"266 72 LINE"
);
},
{
closed = 1;
nodes = (
"244 315 LINE",
"266 315 LINE",
"266 172 LINE",
"168 172 LINE"
);
}
);
width = 485;
}
);
leftKerningGroup = four.dnom;
rightKerningGroup = four.dnom;
userData = {
RMXScaler = {
source = four;
};
};
},
{
color = 10;
glyphname = five.dnom;
layers = (
{
hints = (
{
horizontal = 1;
origin = "{0, 26}";
target = "{0, 19}";
},
{
horizontal = 1;
place = "{161, 65}";
},
{
horizontal = 1;
origin = "{0, 7}";
target = "{0, 10}";
},
{
origin = "{0, 11}";
target = "{0, 6}";
},
{
origin = "{0, 16}";
target = "{0, 2}";
}
);
layerId = "6DB5A621-F658-4304-B48E-115D54993538";
paths = (
{
closed = 1;
nodes = (
"347 -10 OFFCURVE",
"401 30 OFFCURVE",
"401 118 CURVE SMOOTH",
"401 199 OFFCURVE",
"357 236 OFFCURVE",
"240 248 CURVE SMOOTH",
"199 252 LINE",
"198 306 LINE",
"367 306 LINE",
"377 406 LINE",
"78 406 LINE",
"71 237 LINE",
"71 178 OFFCURVE",
"100 160 OFFCURVE",
"218 149 CURVE SMOOTH",
"273 144 LINE",
"272 98 LINE",
"255 95 OFFCURVE",
"233 94 OFFCURVE",
"195 94 CURVE SMOOTH",
"161 94 OFFCURVE",
"117 98 OFFCURVE",
"74 106 CURVE",
"58 11 LINE",
"109 -3 OFFCURVE",
"168 -10 OFFCURVE",
"229 -10 CURVE SMOOTH"
);
}
);
width = 454;
}
);
leftKerningGroup = five.dnom;
rightKerningGroup = five.dnom;
userData = {
RMXScaler = {
source = five;
};
};
},
{
color = 10;
glyphname = six.dnom;
layers = (
{
hints = (
{
horizontal = 1;
origin = "{1, 20}";
target = "{0, 4}";
},
{
horizontal = 1;
origin = "{0, 8}";
target = "{1, 3}";
},
{
horizontal = 1;
origin = "{1, 7}";
target = "{1, 14}";
},
{
origin = "{1, 17}";
target = "{0, 4}";
},
{
origin = "{0, 0}";
target = "{1, 23}";
}
);
layerId = "6DB5A621-F658-4304-B48E-115D54993538";
paths = (
{
closed = 1;
nodes = (
"290 113 LINE SMOOTH",
"290 91 OFFCURVE",
"283 85 OFFCURVE",
"257 85 CURVE SMOOTH",
"184 85 LINE",
"184 142 LINE SMOOTH",
"184 164 OFFCURVE",
"191 170 OFFCURVE",
"217 170 CURVE SMOOTH",
"290 170 LINE"
);
},
{
closed = 1;
nodes = (
"419 218 OFFCURVE",
"365 256 OFFCURVE",
"240 256 CURVE SMOOTH",
"184 256 LINE",
"184 307 LINE",
"198 310 OFFCURVE",
"231 312 OFFCURVE",
"269 312 CURVE SMOOTH",
"301 312 OFFCURVE",
"350 307 OFFCURVE",
"385 300 CURVE",
"401 396 LINE",
"373 405 OFFCURVE",
"302 416 OFFCURVE",
"267 416 CURVE SMOOTH",
"107 416 OFFCURVE",
"55 363 OFFCURVE",
"55 203 CURVE SMOOTH",
"55 45 OFFCURVE",
"100 -10 OFFCURVE",
"237 -10 CURVE SMOOTH",
"366 -10 OFFCURVE",
"419 31 OFFCURVE",
"419 129 CURVE SMOOTH"
);
}
);
width = 473;
}
);
leftKerningGroup = six.dnom;
rightKerningGroup = six.dnom;
userData = {
RMXScaler = {
source = six;
};
};
},
{
color = 10;
glyphname = seven.dnom;
layers = (
{
hints = (
{
horizontal = 1;
origin = "{0, 3}";
target = "{0, 2}";
},
{
horizontal = 1;
origin = "{0, 5}";
target = up;
type = BottomGhost;
}
);
layerId = "6DB5A621-F658-4304-B48E-115D54993538";
paths = (
{
closed = 1;
nodes = (
"356 331 LINE",
"356 406 LINE",
"38 406 LINE",
"48 306 LINE",
"225 306 LINE",
"95 0 LINE",
"218 0 LINE"
);
}
);
width = 402;
}
);
leftKerningGroup = seven.dnom;
rightKerningGroup = seven.dnom;
userData = {
RMXScaler = {
source = seven;
};
};
},
{
color = 10;
glyphname = eight.dnom;
layers = (
{
hints = (
{
horizontal = 1;
origin = "{0, 12}";
target = "{1, 5}";
},
{
horizontal = 1;
origin = "{2, 4}";
target = "{0, 25}";
},
{
origin = "{0, 9}";
target = "{1, 5}";
},
{
origin = "{1, 0}";
target = "{0, 22}";
},
{
origin = "{0, 2}";
target = "{1, 5}";
},
{
origin = "{1, 1}";
target = "{0, 15}";
}
);
layerId = "6DB5A621-F658-4304-B48E-115D54993538";
paths = (
{
closed = 1;
nodes = (
"126 416 OFFCURVE",
"68 381 OFFCURVE",
"68 299 CURVE SMOOTH",
"68 260 OFFCURVE",
"81 226 OFFCURVE",
"102 207 CURVE",
"102 202 LINE",
"75 186 OFFCURVE",
"55 149 OFFCURVE",
"55 111 CURVE SMOOTH",
"55 24 OFFCURVE",
"106 -10 OFFCURVE",
"239 -10 CURVE SMOOTH",
"371 -10 OFFCURVE",
"422 24 OFFCURVE",
"422 111 CURVE SMOOTH",
"422 147 OFFCURVE",
"404 183 OFFCURVE",
"376 199 CURVE",
"376 204 LINE",
"397 223 OFFCURVE",
"409 259 OFFCURVE",
"409 299 CURVE SMOOTH",
"409 381 OFFCURVE",
"352 416 OFFCURVE",
"239 416 CURVE SMOOTH"
);
},
{
closed = 1;
nodes = (
"293 133 LINE",
"293 107 LINE SMOOTH",
"293 89 OFFCURVE",
"284 85 OFFCURVE",
"258 85 CURVE SMOOTH",
"184 85 LINE",
"184 151 LINE SMOOTH",
"184 158 OFFCURVE",
"187 162 OFFCURVE",
"192 162 CURVE SMOOTH",
"196 162 OFFCURVE",
"200 160 OFFCURVE",
"207 158 CURVE SMOOTH"
);
},
{
closed = 1;
nodes = (
"184 274 LINE",
"185 299 LINE SMOOTH",
"185 317 OFFCURVE",
"194 321 OFFCURVE",
"220 321 CURVE SMOOTH",
"293 321 LINE",
"293 257 LINE SMOOTH",
"293 251 OFFCURVE",
"287 245 OFFCURVE",
"278 245 CURVE SMOOTH",
"274 245 OFFCURVE",
"271 246 OFFCURVE",
"267 248 CURVE SMOOTH"
);
}
);
width = 477;
}
);
leftKerningGroup = eight.dnom;
rightKerningGroup = eight.dnom;
userData = {
RMXScaler = {
source = eight;
};
};
},
{
color = 10;
glyphname = nine.dnom;
layers = (
{
hints = (
{
horizontal = 1;
origin = "{1, 14}";
target = "{1, 7}";
},
{
horizontal = 1;
origin = "{1, 2}";
target = "{0, 5}";
},
{
horizontal = 1;
origin = "{0, 9}";
target = "{1, 20}";
},
{
origin = "{1, 23}";
target = "{0, 8}";
},
{
origin = "{1, 4}";
target = "{1, 17}";
}
);
layerId = "6DB5A621-F658-4304-B48E-115D54993538";
paths = (
{
closed = 1;
nodes = (
"259 321 LINE SMOOTH",
"283 321 OFFCURVE",
"290 316 OFFCURVE",
"290 294 CURVE SMOOTH",
"290 237 LINE",
"215 237 LINE SMOOTH",
"190 237 OFFCURVE",
"184 242 OFFCURVE",
"184 264 CURVE SMOOTH",
"184 321 LINE"
);
},
{
closed = 1;
nodes = (
"55 188 OFFCURVE",
"108 150 OFFCURVE",
"233 150 CURVE SMOOTH",
"290 150 LINE",
"290 100 LINE",
"276 96 OFFCURVE",
"243 94 OFFCURVE",
"204 94 CURVE SMOOTH",
"170 94 OFFCURVE",
"118 99 OFFCURVE",
"81 106 CURVE",
"65 11 LINE",
"95 1 OFFCURVE",
"169 -10 OFFCURVE",
"207 -10 CURVE SMOOTH",
"367 -10 OFFCURVE",
"419 43 OFFCURVE",
"419 204 CURVE SMOOTH",
"419 361 OFFCURVE",
"374 416 OFFCURVE",
"237 416 CURVE SMOOTH",
"108 416 OFFCURVE",
"55 376 OFFCURVE",
"55 278 CURVE SMOOTH"
);
}
);
width = 473;
}
);
leftKerningGroup = nine.dnom;
rightKerningGroup = nine.dnom;
userData = {
RMXScaler = {
source = nine;
};
};
},
{
color = 4;
glyphname = "zero-ar";
layers = (
{
layerId = "6DB5A621-F658-4304-B48E-115D54993538";
paths = (
{
closed = 1;
nodes = (
"64 249 OFFCURVE",
"80 233 OFFCURVE",
"155 233 CURVE SMOOTH",
"229 233 OFFCURVE",
"245 249 OFFCURVE",
"245 325 CURVE SMOOTH",
"245 403 OFFCURVE",
"228 421 OFFCURVE",
"155 421 CURVE SMOOTH",
"81 421 OFFCURVE",
"64 404 OFFCURVE",
"64 325 CURVE SMOOTH"
);
}
);
width = 308;
}
);
leftMetricsKey = "=dotcenter-ar+30";
rightMetricsKey = "=dotcenter-ar+30";
unicode = 0660;
},
{
color = 4;
glyphname = "one-ar";
layers = (
{
color = 1;
hints = (
{
horizontal = 1;
origin = "{0, 3}";
target = down;
type = TopGhost;
},
{
origin = "{0, 0}";
target = "{0, 1}";
}
);
layerId = "6DB5A621-F658-4304-B48E-115D54993538";
paths = (
{
closed = 1;
nodes = (
"50 0 LINE",
"210 0 LINE",
"210 625 LINE",
"50 625 LINE"
);
}
);
width = 260;
}
);
leftMetricsKey = H;
rightMetricsKey = H;
unicode = 0661;
},
{
color = 4;
glyphname = "two-ar";
layers = (
{
color = 1;
hints = (
{
horizontal = 1;
origin = "{0, 7}";
target = up;
type = BottomGhost;
},
{
horizontal = 1;
origin = "{0, 12}";
target = "{0, 1}";
},
{
horizontal = 1;
origin = "{0, 6}";
target = down;
type = TopGhost;
},
{
origin = "{0, 7}";
target = "{0, 8}";
},
{
origin = "{0, 0}";
target = "{0, 15}";
}
);
layerId = "6DB5A621-F658-4304-B48E-115D54993538";
paths = (
{
closed = 1;
nodes = (
"350 360 LINE",
"259 360 LINE SMOOTH",
"226 360 OFFCURVE",
"210 374 OFFCURVE",
"210 408 CURVE SMOOTH",
"210 625 LINE",
"50 625 LINE",
"50 0 LINE",
"210 0 LINE",
"210 215 LINE",
"260 192 OFFCURVE",
"330 180 OFFCURVE",
"380 180 CURVE SMOOTH",
"474 180 OFFCURVE",
"510 223 OFFCURVE",
"510 295 CURVE SMOOTH",
"510 625 LINE",
"350 625 LINE"
);
}
);
width = 560;
}
);
leftMetricsKey = H;
unicode = 0662;
},
{
color = 4;
glyphname = "three-ar";
layers = (
{
color = 1;
hints = (
{
horizontal = 1;
origin = "{0, 30}";
target = up;
type = BottomGhost;
},
{
horizontal = 1;
origin = "{0, 4}";
target = "{0, 24}";
},
{
horizontal = 1;
origin = "{0, 29}";
target = down;
type = TopGhost;
},
{
origin = "{0, 30}";
target = "{0, 0}";
},
{
origin = "{0, 23}";
target = "{0, 21}";
},
{
origin = "{0, 16}";
target = "{0, 13}";
}
);
layerId = "6DB5A621-F658-4304-B48E-115D54993538";
paths = (
{
closed = 1;
nodes = (
"210 0 LINE",
"210 214 LINE",
"249 194 OFFCURVE",
"316 180 OFFCURVE",
"370 180 CURVE SMOOTH",
"429 180 OFFCURVE",
"472 197 OFFCURVE",
"497 227 CURVE",
"541 200 OFFCURVE",
"595 180 OFFCURVE",
"660 180 CURVE SMOOTH",
"754 180 OFFCURVE",
"790 223 OFFCURVE",
"790 295 CURVE SMOOTH",
"790 625 LINE",
"630 625 LINE",
"630 360 LINE",
"549 360 LINE SMOOTH",
"518 360 OFFCURVE",
"500 375 OFFCURVE",
"500 408 CURVE SMOOTH",
"500 625 LINE",
"340 625 LINE",
"340 360 LINE",
"259 360 LINE SMOOTH",
"228 360 OFFCURVE",
"210 375 OFFCURVE",
"210 408 CURVE SMOOTH",
"210 625 LINE",
"50 625 LINE",
"50 0 LINE"
);
}
);
width = 840;
}
);
leftMetricsKey = H;
unicode = 0663;
},
{
color = 4;
glyphname = "four-ar";
layers = (
{
hints = (
{
horizontal = 1;
origin = "{1, 3}";
target = "{1, 6}";
},
{
horizontal = 1;
origin = "{0, 14}";
target = "{0, 7}";
},
{
origin = "{0, 17}";
target = "{0, 0}";
},
{
horizontal = 1;
origin = "{0, 1}";
target = "{0, 2}";
}
);
layerId = "6DB5A621-F658-4304-B48E-115D54993538";
paths = (
{
closed = 1;
nodes = (
"202 260 LINE",
"417 260 LINE",
"417 365 LINE",
"223 395 LINE",
"223 453 LINE",
"244 458 OFFCURVE",
"293 460 OFFCURVE",
"337 460 CURVE SMOOTH",
"390 460 OFFCURVE",
"456 453 OFFCURVE",
"511 441 CURVE",
"538 608 LINE",
"452 628 OFFCURVE",
"360 640 OFFCURVE",
"287 640 CURVE SMOOTH",
"138 640 OFFCURVE",
"53 596 OFFCURVE",
"53 473 CURVE SMOOTH",
"53 390 OFFCURVE",
"87 343 OFFCURVE",
"129 315 CURVE",
"129 310 LINE"
);
},
{
closed = 1;
nodes = (
"76 253 OFFCURVE",
"43 197 OFFCURVE",
"30 140 CURVE",
"30 0 LINE",
"536 0 LINE",
"536 180 LINE",
"209 180 LINE",
"222 224 OFFCURVE",
"256 266 OFFCURVE",
"309 310 CURVE",
"129 310 LINE"
);
}
);
width = 553;
}
);
unicode = 0664;
},
{
color = 4;
glyphname = "five-ar";
layers = (
{
color = 1;
layerId = "6DB5A621-F658-4304-B48E-115D54993538";
paths = (
{
closed = 1;
nodes = (
"40 64 OFFCURVE",
"89 -15 OFFCURVE",
"315 -15 CURVE SMOOTH",
"541 -15 OFFCURVE",
"590 63 OFFCURVE",
"590 312 CURVE SMOOTH",
"590 562 OFFCURVE",
"541 640 OFFCURVE",
"315 640 CURVE SMOOTH",
"89 640 OFFCURVE",
"40 561 OFFCURVE",
"40 312 CURVE SMOOTH"
);
},
{
closed = 1;
nodes = (
"420 228 LINE SMOOTH",
"420 185 OFFCURVE",
"395 175 OFFCURVE",
"355 175 CURVE SMOOTH",
"210 175 LINE",
"210 397 LINE SMOOTH",
"210 439 OFFCURVE",
"239 450 OFFCURVE",
"282 450 CURVE SMOOTH",
"420 450 LINE"
);
}
);
width = 630;
}
);
leftMetricsKey = zero;
rightMetricsKey = zero;
unicode = 0665;
},
{
color = 4;
glyphname = "six-ar";
layers = (
{
hints = (
{
horizontal = 1;
origin = "{0, 3}";
target = up;
type = BottomGhost;
},
{
horizontal = 1;
origin = "{0, 1}";
target = "{0, 0}";
},
{
origin = "{0, 3}";
target = "{0, 4}";
}
);
layerId = "6DB5A621-F658-4304-B48E-115D54993538";
paths = (
{
closed = 1;
nodes = (
"5 625 LINE",
"5 445 LINE",
"215 445 LINE",
"215 0 LINE",
"375 0 LINE",
"375 625 LINE"
);
}
);
width = 425;
}
);
leftMetricsKey = T;
rightMetricsKey = H;
unicode = 0666;
},
{
color = 4;
glyphname = "seven-ar";
layers = (
{
layerId = "6DB5A621-F658-4304-B48E-115D54993538";
paths = (
{
closed = 1;
nodes = (
"60 417 OFFCURVE",
"110 208 OFFCURVE",
"170 0 CURVE",
"451 0 LINE",
"511 208 OFFCURVE",
"561 417 OFFCURVE",
"601 625 CURVE",
"416 625 LINE",
"392 474 OFFCURVE",
"359 323 OFFCURVE",
"315 172 CURVE",
"306 172 LINE",
"262 323 OFFCURVE",
"229 474 OFFCURVE",
"205 625 CURVE",
"20 625 LINE"
);
}
);
width = 621;
}
);
unicode = 0667;
},
{
color = 4;
glyphname = "nine-ar";
layers = (
{
color = 1;
hints = (
{
horizontal = 1;
origin = "{0, 0}";
target = up;
type = BottomGhost;
},
{
horizontal = 1;
origin = "{0, 9}";
target = "{1, 0}";
},
{
horizontal = 1;
origin = "{1, 7}";
target = "{0, 3}";
},
{
origin = "{0, 6}";
target = "{1, 3}";
},
{
origin = "{0, 0}";
target = "{0, 1}";
}
);
layerId = "6DB5A621-F658-4304-B48E-115D54993538";
paths = (
{
closed = 1;
nodes = (
"340 0 LINE",
"500 0 LINE",
"500 625 LINE",
"235 625 LINE SMOOTH",
"72 625 OFFCURVE",
"15 560 OFFCURVE",
"15 374 CURVE SMOOTH",
"15 210 OFFCURVE",
"82 131 OFFCURVE",
"220 131 CURVE SMOOTH",
"340 131 LINE"
);
},
{
closed = 1;
nodes = (
"234 311 LINE SMOOTH",
"196 311 OFFCURVE",
"185 321 OFFCURVE",
"185 353 CURVE SMOOTH",
"185 383 LINE SMOOTH",
"185 416 OFFCURVE",
"196 425 OFFCURVE",
"234 425 CURVE SMOOTH",
"340 425 LINE",
"340 311 LINE"
);
}
);
width = 550;
}
);
leftMetricsKey = "=|P";
rightMetricsKey = H;
unicode = 0669;
},
{
color = 4;
glyphname = "four-persian";
layers = (
{
color = 1;
hints = (
{
horizontal = 1;
origin = "{0, 26}";
target = up;
type = BottomGhost;
},
{
horizontal = 1;
origin = "{0, 31}";
target = "{0, 20}";
},
{
horizontal = 1;
origin = "{0, 15}";
target = "{0, 8}";
},
{
horizontal = 1;
origin = "{0, 12}";
target = up;
type = BottomGhost;
},
{
horizontal = 1;
origin = "{0, 25}";
target = down;
type = TopGhost;
},
{
origin = "{0, 26}";
target = "{0, 27}";
},
{
origin = "{0, 19}";
target = "{0, 34}";
},
{
origin = "{0, 0}";
target = "{0, 40}";
}
);
layerId = "6DB5A621-F658-4304-B48E-115D54993538";
paths = (
{
closed = 1;
nodes = (
"630 325 LINE",
"559 325 LINE SMOOTH",
"511 325 OFFCURVE",
"500 336 OFFCURVE",
"500 363 CURVE SMOOTH",
"500 456 LINE",
"512 459 OFFCURVE",
"549 460 OFFCURVE",
"568 460 CURVE SMOOTH",
"583 460 OFFCURVE",
"599 459 OFFCURVE",
"610 457 CURVE",
"630 634 LINE",
"602 638 OFFCURVE",
"578 640 OFFCURVE",
"552 640 CURVE SMOOTH",
"392 640 OFFCURVE",
"340 566 OFFCURVE",
"340 400 CURVE SMOOTH",
"340 325 LINE",
"269 325 LINE SMOOTH",
"221 325 OFFCURVE",
"210 336 OFFCURVE",
"210 363 CURVE SMOOTH",
"210 625 LINE",
"50 625 LINE",
"50 0 LINE",
"210 0 LINE",
"210 179 LINE",
"255 156 OFFCURVE",
"322 145 OFFCURVE",
"370 145 CURVE SMOOTH",
"429 145 OFFCURVE",
"473 161 OFFCURVE",
"498 191 CURVE",
"549 161 OFFCURVE",
"604 145 OFFCURVE",
"660 145 CURVE SMOOTH",
"754 145 OFFCURVE",
"790 188 OFFCURVE",
"790 260 CURVE SMOOTH",
"790 405 LINE",
"630 405 LINE"
);
}
);
width = 840;
}
);
leftMetricsKey = H;
unicode = 06F4;
},
{
color = 4;
glyphname = "four-persian.urdu";
layers = (
{
color = 1;
hints = (
{
horizontal = 1;
origin = "{0, 17}";
target = up;
type = BottomGhost;
},
{
horizontal = 1;
origin = "{0, 11}";
target = "{0, 4}";
},
{
horizontal = 1;
origin = "{0, 16}";
target = "{0, 4}";
},
{
origin = "{0, 17}";
target = "{0, 0}";
},
{
origin = "{0, 6}";
target = "{0, 7}";
}
);
layerId = "6DB5A621-F658-4304-B48E-115D54993538";
paths = (
{
closed = 1;
nodes = (
"210 0 LINE",
"210 422 LINE SMOOTH",
"210 449 OFFCURVE",
"221 460 OFFCURVE",
"269 460 CURVE SMOOTH",
"340 460 LINE",
"340 330 LINE",
"500 330 LINE",
"500 525 LINE SMOOTH",
"500 597 OFFCURVE",
"464 640 OFFCURVE",
"370 640 CURVE SMOOTH",
"322 640 OFFCURVE",
"255 628 OFFCURVE",
"210 605 CURVE",
"210 625 LINE",
"50 625 LINE",
"50 0 LINE"
);
},
{
closed = 1;
nodes = (
"500 330 LINE",
"500 422 LINE SMOOTH",
"500 449 OFFCURVE",
"511 460 OFFCURVE",
"559 460 CURVE SMOOTH",
"630 460 LINE",
"660 640 LINE",
"594 640 OFFCURVE",
"528 617 OFFCURVE",
"470 575 CURVE"
);
}
);
width = 665;
}
);
leftMetricsKey = H;
},
{
color = 4;
glyphname = "five-persian";
layers = (
{
layerId = "6DB5A621-F658-4304-B48E-115D54993538";
paths = (
{
closed = 1;
nodes = (
"267 0 LINE SMOOTH",
"317 0 OFFCURVE",
"352 22 OFFCURVE",
"368 65 CURVE",
"371 65 LINE",
"393 21 OFFCURVE",
"425 0 OFFCURVE",
"472 0 CURVE SMOOTH",
"654 0 LINE SMOOTH",
"689 0 OFFCURVE",
"709 20 OFFCURVE",
"709 55 CURVE SMOOTH",
"709 232 OFFCURVE",
"647 415 OFFCURVE",
"516 625 CURVE",
"360 561 LINE",
"434 439 OFFCURVE",
"487 309 OFFCURVE",
"510 180 CURVE",
"455 180 LINE SMOOTH",
"441 180 OFFCURVE",
"431 187 OFFCURVE",
"427 201 CURVE SMOOTH",
"396 301 LINE",
"343 301 LINE",
"312 201 LINE SMOOTH",
"308 187 OFFCURVE",
"298 180 OFFCURVE",
"284 180 CURVE SMOOTH",
"229 180 LINE",
"251 294 OFFCURVE",
"294 380 OFFCURVE",
"373 495 CURVE",
"178 495 LINE",
"87 353 OFFCURVE",
"30 183 OFFCURVE",
"30 55 CURVE SMOOTH",
"30 20 OFFCURVE",
"50 0 OFFCURVE",
"85 0 CURVE SMOOTH"
);
}
);
width = 739;
}
);
unicode = 06F5;
},
{
color = 4;
glyphname = "six-persian";
layers = (
{
hints = (
{
horizontal = 1;
place = "{0, 70}";
},
{
horizontal = 1;
place = "{640, -85}";
},
{
origin = "{0, 2}";
target = "{0, 7}";
},
{
horizontal = 1;
origin = "{0, 6}";
target = "{0, 6}";
}
);
layerId = "6DB5A621-F658-4304-B48E-115D54993538";
paths = (
{
closed = 1;
nodes = (
"76 236 OFFCURVE",
"43 154 OFFCURVE",
"30 70 CURVE",
"209 70 LINE",
"222 154 OFFCURVE",
"256 236 OFFCURVE",
"309 320 CURVE",
"129 320 LINE"
);
},
{
closed = 1;
nodes = (
"202 260 LINE",
"417 260 LINE",
"417 365 LINE",
"223 395 LINE",
"223 453 LINE",
"244 458 OFFCURVE",
"293 460 OFFCURVE",
"337 460 CURVE SMOOTH",
"390 460 OFFCURVE",
"456 453 OFFCURVE",
"511 441 CURVE",
"538 608 LINE",
"452 628 OFFCURVE",
"360 640 OFFCURVE",
"287 640 CURVE SMOOTH",
"138 640 OFFCURVE",
"53 596 OFFCURVE",
"53 473 CURVE SMOOTH",
"53 390 OFFCURVE",
"87 343 OFFCURVE",
"129 315 CURVE",
"129 310 LINE"
);
}
);
width = 553;
}
);
unicode = 06F6;
},
{
color = 4;
glyphname = "seven-persian.urdu";
layers = (
{
color = 1;
layerId = "6DB5A621-F658-4304-B48E-115D54993538";
paths = (
{
closed = 1;
nodes = (
"109 458 OFFCURVE",
"44 292 OFFCURVE",
"20 125 CURVE",
"20 0 LINE",
"495 0 LINE",
"480 180 LINE",
"219 180 LINE",
"247 328 OFFCURVE",
"309 477 OFFCURVE",
"408 625 CURVE",
"213 625 LINE"
);
}
);
width = 500;
}
);
leftMetricsKey = "=|seven";
rightMetricsKey = "=|seven";
},
{
color = 10;
glyphname = asterisk;
layers = (
{
layerId = "6DB5A621-F658-4304-B48E-115D54993538";
paths = (
{
closed = 1;
nodes = (
"465 385 LINE",
"423 441 LINE",
"296 549 LINE",
"240 507 LINE",
"302 353 LINE",
"343 297 LINE"
);
},
{
closed = 1;
nodes = (
"234 353 LINE",
"296 507 LINE",
"240 549 LINE",
"113 441 LINE",
"71 385 LINE",
"193 297 LINE"
);
},
{
closed = 1;
nodes = (
"279 562 LINE",
"137 650 LINE",
"71 671 LINE",
"25 528 LINE",
"91 507 LINE",
"257 494 LINE"
);
},
{
closed = 1;
nodes = (
"303 528 LINE",
"343 689 LINE",
"343 759 LINE",
"193 759 LINE",
"193 689 LINE",
"233 528 LINE"
);
},
{
closed = 1;
nodes = (
"445 507 LINE",
"511 528 LINE",
"465 671 LINE",
"399 650 LINE",
"257 562 LINE",
"279 494 LINE"
);
}
);
width = 536;
}
);
leftKerningGroup = asterisk;
rightKerningGroup = asterisk;
unicode = 002A;
},
{
color = 10;
glyphname = backslash;
layers = (
{
layerId = "6DB5A621-F658-4304-B48E-115D54993538";
paths = (
{
closed = 1;
nodes = (
"409 -15 LINE",
"418 -31 OFFCURVE",
"424 -40 OFFCURVE",
"452 -40 CURVE SMOOTH",
"483 -40 LINE",
"94 640 LINE SMOOTH",
"85 656 OFFCURVE",
"79 665 OFFCURVE",
"51 665 CURVE SMOOTH",
"20 665 LINE"
);
}
);
width = 503;
}
);
leftKerningGroup = backslash;
rightKerningGroup = backslash;
unicode = 005C;
},
{
color = 10;
glyphname = bullet;
layers = (
{
layerId = "6DB5A621-F658-4304-B48E-115D54993538";
paths = (
{
closed = 1;
nodes = (
"45 150 OFFCURVE",
"71 112 OFFCURVE",
"187 112 CURVE SMOOTH",
"301 112 OFFCURVE",
"327 150 OFFCURVE",
"327 249 CURVE SMOOTH",
"327 347 OFFCURVE",
"301 388 OFFCURVE",
"187 388 CURVE SMOOTH",
"71 388 OFFCURVE",
"45 347 OFFCURVE",
"45 249 CURVE SMOOTH"
);
}
);
width = 372;
}
);
leftKerningGroup = bullet;
rightKerningGroup = bullet;
unicode = 2022;
},
{
color = 10;
glyphname = comma;
layers = (
{
layerId = "6DB5A621-F658-4304-B48E-115D54993538";
paths = (
{
closed = 1;
nodes = (
"214 -15 LINE SMOOTH",
"241 38 OFFCURVE",
"244 43 OFFCURVE",
"247 99 CURVE SMOOTH",
"247 181 OFFCURVE",
"221 206 OFFCURVE",
"139 206 CURVE SMOOTH",
"56 206 OFFCURVE",
"30 181 OFFCURVE",
"30 99 CURVE SMOOTH",
"30 37 OFFCURVE",
"46 11 OFFCURVE",
"90 2 CURVE",
"57 -122 LINE",
"146 -151 LINE"
);
}
);
width = 277;
}
);
leftKerningGroup = period;
rightKerningGroup = period;
unicode = 002C;
},
{
color = 10;
glyphname = exclam;
layers = (
{
components = (
{
name = period;
transform = "{0.87, 0, 0, 0.87, 28, -1}";
}
);
layerId = "6DB5A621-F658-4304-B48E-115D54993538";
paths = (
{
closed = 1;
nodes = (
"214 230 LINE",
"254 618 LINE",
"254 633 OFFCURVE",
"247 645 OFFCURVE",
"217 645 CURVE SMOOTH",
"81 645 LINE SMOOTH",
"51 645 OFFCURVE",
"44 633 OFFCURVE",
"44 618 CURVE",
"84 230 LINE"
);
}
);
width = 297;
}
);
leftKerningGroup = exclam;
rightKerningGroup = exclam;
unicode = 0021;
},
{
color = 10;
glyphname = numbersign;
layers = (
{
layerId = "6DB5A621-F658-4304-B48E-115D54993538";
paths = (
{
closed = 1;
nodes = (
"442 -40 LINE SMOOTH",
"470 -40 OFFCURVE",
"478 -32 OFFCURVE",
"485 -15 CURVE SMOOTH",
"754 665 LINE",
"653 665 LINE SMOOTH",
"625 665 OFFCURVE",
"617 657 OFFCURVE",
"610 640 CURVE SMOOTH",
"341 -40 LINE"
);
},
{
closed = 1;
nodes = (
"615 120 LINE SMOOTH",
"633 120 OFFCURVE",
"644 126 OFFCURVE",
"654 151 CURVE SMOOTH",
"689 238 LINE",
"94 238 LINE SMOOTH",
"76 238 OFFCURVE",
"65 232 OFFCURVE",
"55 207 CURVE SMOOTH",
"20 120 LINE"
);
},
{
closed = 1;
nodes = (
"163 -40 LINE SMOOTH",
"191 -40 OFFCURVE",
"199 -32 OFFCURVE",
"206 -15 CURVE SMOOTH",
"475 665 LINE",
"374 665 LINE SMOOTH",
"346 665 OFFCURVE",
"338 657 OFFCURVE",
"331 640 CURVE SMOOTH",
"62 -40 LINE"
);
},
{
closed = 1;
nodes = (
"721 384 LINE SMOOTH",
"739 384 OFFCURVE",
"750 390 OFFCURVE",
"760 415 CURVE SMOOTH",
"795 502 LINE",
"200 502 LINE SMOOTH",
"182 502 OFFCURVE",
"171 496 OFFCURVE",
"161 471 CURVE SMOOTH",
"126 384 LINE"
);
}
);
width = 815;
}
);
leftKerningGroup = numbersign;
rightKerningGroup = numbersign;
unicode = 0023;
},
{
color = 10;
glyphname = period;
layers = (
{
layerId = "6DB5A621-F658-4304-B48E-115D54993538";
paths = (
{
closed = 1;
nodes = (
"30 23 OFFCURVE",
"50 -6 OFFCURVE",
"139 -6 CURVE SMOOTH",
"227 -6 OFFCURVE",
"247 23 OFFCURVE",
"247 99 CURVE SMOOTH",
"247 175 OFFCURVE",
"227 206 OFFCURVE",
"139 206 CURVE SMOOTH",
"50 206 OFFCURVE",
"30 175 OFFCURVE",
"30 99 CURVE SMOOTH"
);
}
);
width = 277;
}
);
leftKerningGroup = period;
rightKerningGroup = period;
unicode = 002E;
},
{
color = 10;
glyphname = question;
layers = (
{
components = (
{
name = period;
transform = "{0.87, 0, 0, 0.87, 74, -1}";
}
);
layerId = "6DB5A621-F658-4304-B48E-115D54993538";
paths = (
{
closed = 1;
nodes = (
"261 230 LINE",
"267 302 LINE",
"439 348 OFFCURVE",
"488 389 OFFCURVE",
"488 483 CURVE SMOOTH",
"488 598 OFFCURVE",
"423 640 OFFCURVE",
"248 640 CURVE SMOOTH",
"183 640 OFFCURVE",
"111 629 OFFCURVE",
"37 607 CURVE",
"64 469 LINE",
"95 478 OFFCURVE",
"155 489 OFFCURVE",
"210 489 CURVE SMOOTH",
"234 489 OFFCURVE",
"254 487 OFFCURVE",
"273 484 CURVE",
"273 443 LINE",
"181 416 LINE SMOOTH",
"130 401 OFFCURVE",
"116 390 OFFCURVE",
"116 363 CURVE",
"131 230 LINE"
);
}
);
width = 528;
}
);
leftKerningGroup = question;
rightKerningGroup = question;
unicode = 003F;
},
{
color = 10;
glyphname = quotedbl;
layers = (
{
layerId = "6DB5A621-F658-4304-B48E-115D54993538";
paths = (
{
closed = 1;
nodes = (
"435 330 LINE",
"485 535 LINE",
"485 623 LINE SMOOTH",
"485 638 OFFCURVE",
"477 650 OFFCURVE",
"448 650 CURVE SMOOTH",
"332 650 LINE SMOOTH",
"303 650 OFFCURVE",
"295 638 OFFCURVE",
"295 623 CURVE SMOOTH",
"295 535 LINE",
"345 330 LINE"
);
},
{
closed = 1;
nodes = (
"185 330 LINE",
"235 535 LINE",
"235 623 LINE SMOOTH",
"235 638 OFFCURVE",
"227 650 OFFCURVE",
"198 650 CURVE SMOOTH",
"82 650 LINE SMOOTH",
"53 650 OFFCURVE",
"45 638 OFFCURVE",
"45 623 CURVE SMOOTH",
"45 535 LINE",
"95 330 LINE"
);
}
);
width = 530;
}
);
leftKerningGroup = quotedbl;
rightKerningGroup = quotedbl;
unicode = 0022;
},
{
color = 10;
glyphname = quotesingle;
layers = (
{
layerId = "6DB5A621-F658-4304-B48E-115D54993538";
paths = (
{
closed = 1;
nodes = (
"185 330 LINE",
"235 535 LINE",
"235 623 LINE SMOOTH",
"235 638 OFFCURVE",
"227 650 OFFCURVE",
"198 650 CURVE SMOOTH",
"82 650 LINE SMOOTH",
"53 650 OFFCURVE",
"45 638 OFFCURVE",
"45 623 CURVE SMOOTH",
"45 535 LINE",
"95 330 LINE"
);
}
);
width = 280;
}
);
leftKerningGroup = quotedbl;
rightKerningGroup = quotedbl;
unicode = 0027;
},
{
color = 10;
glyphname = slash;
layers = (
{
anchors = (
{
name = _center;
position = "{202, 313}";
}
);
layerId = "6DB5A621-F658-4304-B48E-115D54993538";
paths = (
{
closed = 1;
nodes = (
"404 665 LINE",
"353 665 LINE SMOOTH",
"330 665 OFFCURVE",
"319 660 OFFCURVE",
"310 640 CURVE SMOOTH",
"0 -40 LINE",
"51 -40 LINE SMOOTH",
"74 -40 OFFCURVE",
"85 -35 OFFCURVE",
"94 -15 CURVE SMOOTH"
);
}
);
width = 404;
}
);
leftKerningGroup = slash;
rightKerningGroup = slash;
unicode = 002F;
},
{
color = 10;
glyphname = underscore;
layers = (
{
layerId = "6DB5A621-F658-4304-B48E-115D54993538";
paths = (
{
closed = 1;
nodes = (
"25 -135 LINE",
"501 -135 LINE SMOOTH",
"541 -135 OFFCURVE",
"570 -132 OFFCURVE",
"570 -93 CURVE SMOOTH",
"570 15 LINE",
"94 15 LINE SMOOTH",
"54 15 OFFCURVE",
"25 12 OFFCURVE",
"25 -27 CURVE"
);
}
);
width = 595;
}
);
leftKerningGroup = underscore;
rightKerningGroup = underscore;
unicode = 005F;
},
{
color = 10;
glyphname = braceleft;
layers = (
{
layerId = "6DB5A621-F658-4304-B48E-115D54993538";
paths = (
{
closed = 1;
nodes = (
"261 175 LINE SMOOTH",
"266 235 OFFCURVE",
"247 278 OFFCURVE",
"205 305 CURVE",
"205 317 LINE",
"247 344 OFFCURVE",
"266 387 OFFCURVE",
"261 447 CURVE SMOOTH",
"246 637 LINE",
"329 644 LINE",
"320 789 LINE",
"190 789 OFFCURVE",
"65 784 OFFCURVE",
"70 678 CURVE SMOOTH",
"85 387 LINE",
"20 370 LINE",
"20 252 LINE",
"85 235 LINE",
"70 -53 LINE SMOOTH",
"64 -159 OFFCURVE",
"190 -164 OFFCURVE",
"320 -164 CURVE",
"329 -19 LINE",
"246 -12 LINE"
);
}
);
width = 359;
}
);
leftKerningGroup = braceleft;
rightKerningGroup = braceleft;
unicode = 007B;
},
{
color = 10;
glyphname = bracketleft;
layers = (
{
layerId = "6DB5A621-F658-4304-B48E-115D54993538";
paths = (
{
closed = 1;
nodes = (
"50 -59 LINE SMOOTH",
"50 -136 OFFCURVE",
"116 -164 OFFCURVE",
"300 -164 CURVE",
"309 -17 LINE",
"226 -10 LINE",
"226 635 LINE",
"309 642 LINE",
"300 789 LINE",
"116 789 OFFCURVE",
"50 761 OFFCURVE",
"50 684 CURVE SMOOTH"
);
}
);
width = 339;
}
);
leftKerningGroup = bracketleft;
rightKerningGroup = bracketleft;
unicode = 005B;
},
{
color = 10;
glyphname = parenleft;
layers = (
{
layerId = "6DB5A621-F658-4304-B48E-115D54993538";
paths = (
{
closed = 1;
nodes = (
"304 -5 LINE",
"231 30 OFFCURVE",
"200 124 OFFCURVE",
"200 313 CURVE SMOOTH",
"200 502 OFFCURVE",
"231 596 OFFCURVE",
"304 631 CURVE",
"284 785 LINE",
"117 740 OFFCURVE",
"20 586 OFFCURVE",
"20 313 CURVE SMOOTH",
"20 40 OFFCURVE",
"117 -114 OFFCURVE",
"284 -159 CURVE"
);
}
);
width = 334;
}
);
leftKerningGroup = parenleft;
rightKerningGroup = parenleft;
unicode = 0028;
},
{
color = 10;
glyphname = emdash;
layers = (
{
layerId = "6DB5A621-F658-4304-B48E-115D54993538";
paths = (
{
closed = 1;
nodes = (
"25 200 LINE",
"760 200 LINE SMOOTH",
"800 200 OFFCURVE",
"829 203 OFFCURVE",
"829 242 CURVE SMOOTH",
"829 350 LINE",
"94 350 LINE SMOOTH",
"54 350 OFFCURVE",
"25 347 OFFCURVE",
"25 308 CURVE SMOOTH"
);
}
);
width = 854;
}
);
leftKerningGroup = hyphen;
rightKerningGroup = hyphen;
unicode = 2014;
},
{
color = 10;
glyphname = endash;
layers = (
{
layerId = "6DB5A621-F658-4304-B48E-115D54993538";
paths = (
{
closed = 1;
nodes = (
"25 200 LINE",
"501 200 LINE SMOOTH",
"541 200 OFFCURVE",
"570 203 OFFCURVE",
"570 242 CURVE SMOOTH",
"570 350 LINE",
"94 350 LINE SMOOTH",
"54 350 OFFCURVE",
"25 347 OFFCURVE",
"25 308 CURVE"
);
}
);
width = 595;
}
);
leftKerningGroup = hyphen;
rightKerningGroup = hyphen;
unicode = 2013;
},
{
color = 10;
glyphname = hyphen;
layers = (
{
layerId = "6DB5A621-F658-4304-B48E-115D54993538";
paths = (
{
closed = 1;
nodes = (
"25 200 LINE",
"256 200 LINE SMOOTH",
"296 200 OFFCURVE",
"325 203 OFFCURVE",
"325 242 CURVE SMOOTH",
"325 350 LINE",
"94 350 LINE SMOOTH",
"54 350 OFFCURVE",
"25 347 OFFCURVE",
"25 308 CURVE SMOOTH"
);
}
);
width = 350;
}
);
leftKerningGroup = hyphen;
rightKerningGroup = hyphen;
unicode = 002D;
},
{
color = 10;
glyphname = guillemotleft;
layers = (
{
layerId = "6DB5A621-F658-4304-B48E-115D54993538";
paths = (
{
closed = 1;
nodes = (
"550 76 LINE",
"450 250 LINE",
"550 424 LINE",
"469 475 LINE",
"275 300 LINE",
"275 200 LINE",
"469 25 LINE"
);
},
{
closed = 1;
nodes = (
"300 76 LINE",
"200 250 LINE",
"300 424 LINE",
"219 475 LINE",
"25 300 LINE",
"25 200 LINE",
"219 25 LINE"
);
}
);
width = 575;
}
);
leftKerningGroup = guillemotleft;
rightKerningGroup = guillemotleft;
unicode = 00AB;
},
{
color = 10;
glyphname = guilsinglleft;
layers = (
{
layerId = "6DB5A621-F658-4304-B48E-115D54993538";
paths = (
{
closed = 1;
nodes = (
"300 76 LINE",
"200 250 LINE",
"300 424 LINE",
"219 475 LINE",
"25 300 LINE",
"25 200 LINE",
"219 25 LINE"
);
}
);
width = 325;
}
);
leftKerningGroup = guillemotleft;
rightKerningGroup = guillemotleft;
unicode = 2039;
},
